<?xml version="1.0" standalone="no"?>
 <!DOCTYPE svg PUBLIC "-//W3C//DTD SVG 1.1//EN" 
 "http://www.w3.org/Graphics/SVG/1.1/DTD/svg11.dtd"> 
<svg
  xmlns:svg="http://www.w3.org/2000/svg"
  xmlns="http://www.w3.org/2000/svg"
  xmlns:xlink="http://www.w3.org/1999/xlink"
  version="1.1"
  width="29.700220cm" height="21.000720cm" viewBox="0 0 116930 82680">
<title>SVG Picture created as CZTBoardV3-F_SilkS.svg date 2021/08/27 15:43:49 </title>
  <desc>Picture generated by PCBNEW </desc>
<g style="fill:#000000; fill-opacity:1;stroke:#000000; stroke-opacity:1;
stroke-linecap:round; stroke-linejoin:round;"
 transform="translate(0 0) scale(1 1)">
</g>
<g style="fill:#000000; fill-opacity:0.0; 
stroke:#000000; stroke-width:-0.000393701; stroke-opacity:1; 
stroke-linecap:round; stroke-linejoin:round;">
</g>
<g style="fill:#000000; fill-opacity:1.0; 
stroke:#000000; stroke-width:39.3701; stroke-opacity:1; 
stroke-linecap:round; stroke-linejoin:round;">
<rect x="36374.7" y="25709.6" width="52094.7" height="37069.9" rx="0" />
</g>
<g style="fill:#FFFFFF; fill-opacity:1.0; 
stroke:#FFFFFF; stroke-width:39.3701; stroke-opacity:1; 
stroke-linecap:round; stroke-linejoin:round;">
</g>
<g style="fill:#FFFFFF; fill-opacity:0.0; 
stroke:#FFFFFF; stroke-width:60; stroke-opacity:1; 
stroke-linecap:round; stroke-linejoin:round;">
<circle cx="78383.4" cy="55023.7" r="200" /> 
<circle cx="80353.4" cy="55023.7" r="200" /> 
<circle cx="76413.4" cy="55023.7" r="200" /> 
<path d="M75433 54503
L75433 54423
" />
<path d="M81333 54503
L81333 57103
" />
<path d="M81333 54503
L75433 54503
" />
<path d="M81333 57103
L81333 58043
" />
<path d="M75433 57103
L75433 54503
" />
<path d="M80703 57103
L81333 57103
" />
<path d="M78733 57103
L80003 57103
" />
<path d="M76763 57103
L78033 57103
" />
<path d="M75433 57103
L76063 57103
" />
<path d="M75433 58043
L75433 57103
" />
<path d="M81333 54423
L75433 54423
" />
<path d="M81333 54423
L81333 54503
" />
<path d="M75433 58043
L81333 58043
" />
<circle cx="73225.9" cy="55015.8" r="200" /> 
<circle cx="71255.9" cy="55015.8" r="200" /> 
<path d="M74205 54495
L74205 57095
" />
<path d="M70275 54495
L70275 54415
" />
<path d="M70275 54495
L74205 54495
" />
<path d="M74205 57095
L74205 58035
" />
<path d="M70275 57095
L70275 54495
" />
<path d="M73575 57095
L74205 57095
" />
<path d="M71605 57095
L72875 57095
" />
<path d="M70275 57095
L70905 57095
" />
<path d="M70275 58035
L70275 57095
" />
<path d="M74205 54415
L70275 54415
" />
<path d="M74205 54415
L74205 54495
" />
<path d="M70275 58035
L74205 58035
" />
<circle cx="68383.4" cy="55055.2" r="200" /> 
<circle cx="66413.4" cy="55055.2" r="200" /> 
<path d="M69363 54535
L69363 57135
" />
<path d="M65433 54535
L65433 54455
" />
<path d="M65433 54535
L69363 54535
" />
<path d="M69363 57135
L69363 58075
" />
<path d="M65433 57135
L65433 54535
" />
<path d="M68733 57135
L69363 57135
" />
<path d="M66763 57135
L68033 57135
" />
<path d="M65433 57135
L66063 57135
" />
<path d="M65433 58075
L65433 57135
" />
<path d="M69363 54455
L65433 54455
" />
<path d="M69363 54455
L69363 54535
" />
<path d="M65433 58075
L69363 58075
" />
<circle cx="63344" cy="55133.9" r="200" /> 
<circle cx="61374" cy="55133.9" r="200" /> 
<path d="M64324 54613
L64324 57213
" />
<path d="M60394 54613
L60394 54533
" />
<path d="M60394 54613
L64324 54613
" />
<path d="M64324 57213
L64324 58153
" />
<path d="M60394 57213
L60394 54613
" />
<path d="M63694 57213
L64324 57213
" />
<path d="M61724 57213
L62994 57213
" />
<path d="M60394 57213
L61024 57213
" />
<path d="M60394 58153
L60394 57213
" />
<path d="M64324 54533
L60394 54533
" />
<path d="M64324 54533
L64324 54613
" />
<path d="M60394 58153
L64324 58153
" />
<circle cx="58580.2" cy="55133.9" r="200" /> 
<circle cx="56610.2" cy="55133.9" r="200" /> 
<path d="M59560 54613
L59560 57213
" />
<path d="M55630 54613
L55630 54533
" />
<path d="M55630 54613
L59560 54613
" />
<path d="M59560 57213
L59560 58153
" />
<path d="M55630 57213
L55630 54613
" />
<path d="M58930 57213
L59560 57213
" />
<path d="M56960 57213
L58230 57213
" />
<path d="M55630 57213
L56260 57213
" />
<path d="M55630 58153
L55630 57213
" />
<path d="M59560 54533
L55630 54533
" />
<path d="M59560 54533
L59560 54613
" />
<path d="M55630 58153
L59560 58153
" />
<circle cx="53934.6" cy="55106.4" r="200" /> 
<circle cx="51964.6" cy="55106.4" r="200" /> 
<path d="M54914 54586
L54914 57186
" />
<path d="M50984 54586
L50984 54506
" />
<path d="M50984 54586
L54914 54586
" />
<path d="M54914 57186
L54914 58126
" />
<path d="M50984 57186
L50984 54586
" />
<path d="M54284 57186
L54914 57186
" />
<path d="M52314 57186
L53584 57186
" />
<path d="M50984 57186
L51614 57186
" />
<path d="M50984 58126
L50984 57186
" />
<path d="M54914 54506
L50984 54506
" />
<path d="M54914 54506
L54914 54586
" />
<path d="M50984 58126
L54914 58126
" />
</g>
<g style="fill:#FFFFFF; fill-opacity:0.0; 
stroke:#FFFFFF; stroke-width:47.2441; stroke-opacity:1; 
stroke-linecap:round; stroke-linejoin:round;">
<path d="M70153 34732
L70787 34732
" />
<path d="M70153 34732
L70153 35519
" />
<path d="M70263 39669
L70263 34846
" />
<path d="M72531 39669
L70263 39669
" />
<path d="M72531 34842
L72531 39669
" />
<path d="M70267 34842
L72527 34842
" />
</g>
<g style="fill:#FFFFFF; fill-opacity:0.0; 
stroke:#FFFFFF; stroke-width:60; stroke-opacity:1; 
stroke-linecap:round; stroke-linejoin:round;">
<path d="M76853 50048
L76853 49908
" />
<path d="M76953 50048
L76853 50048
" />
<path d="M76953 49908
L76953 50048
" />
<path d="M75273 46758
L74883 46758
" />
<path d="M75513 46758
L75273 46758
" />
<path d="M75903 46758
L75513 46758
" />
<path d="M74883 50698
L75903 50698
" />
</g>
<g style="fill:#FFFFFF; fill-opacity:0.0; 
stroke:#FFFFFF; stroke-width:47.2441; stroke-opacity:1; 
stroke-linecap:round; stroke-linejoin:round;">
<path d="M75273.7 46758.3 A120 120 0.0 0 0 75513.7 46758.3" />
</g>
<g style="fill:#FFFFFF; fill-opacity:0.0; 
stroke:#FFFFFF; stroke-width:60; stroke-opacity:1; 
stroke-linecap:round; stroke-linejoin:round;">
<path d="M66310 35260
L66310 35120
" />
<path d="M66410 35260
L66310 35260
" />
<path d="M66410 35120
L66410 35260
" />
<path d="M64730 31970
L64340 31970
" />
<path d="M64970 31970
L64730 31970
" />
<path d="M65360 31970
L64970 31970
" />
<path d="M64340 35910
L65360 35910
" />
</g>
<g style="fill:#FFFFFF; fill-opacity:0.0; 
stroke:#FFFFFF; stroke-width:47.2441; stroke-opacity:1; 
stroke-linecap:round; stroke-linejoin:round;">
<path d="M64730.4 31970.9 A120 120 0.0 0 0 64970.4 31970.9" />
</g>
<g style="fill:#FFFFFF; fill-opacity:0.0; 
stroke:#FFFFFF; stroke-width:50; stroke-opacity:1; 
stroke-linecap:round; stroke-linejoin:round;">
<path d="M61082 29035
L45704 29035
" />
<path d="M61082 44413
L61082 29035
" />
<path d="M45704 44413
L61082 44413
" />
<path d="M45704 29035
L45704 44413
" />
<path d="M47591 30098
L48491 30098
" />
<path d="M47591 30798
L47591 30098
" />
<path d="M46916 30798
L47591 30798
" />
<path d="M46916 36348
L46916 30798
" />
<path d="M47591 36348
L46916 36348
" />
<path d="M47591 37048
L47591 36348
" />
<path d="M48491 37048
L47591 37048
" />
<path d="M48491 36348
L48491 37048
" />
<path d="M49166 36348
L48491 36348
" />
<path d="M49166 30998
L49166 36348
" />
<path d="M48841 30998
L49166 30998
" />
<path d="M48841 30798
L48841 30998
" />
<path d="M48491 30798
L48841 30798
" />
<path d="M48491 30098
L48491 30798
" />
<path d="M55069 36399
L55969 36399
" />
<path d="M55069 37099
L55069 36399
" />
<path d="M54394 37099
L55069 37099
" />
<path d="M54394 42649
L54394 37099
" />
<path d="M55069 42649
L54394 42649
" />
<path d="M55069 43349
L55069 42649
" />
<path d="M55969 43349
L55069 43349
" />
<path d="M55969 42649
L55969 43349
" />
<path d="M56644 42649
L55969 42649
" />
<path d="M56644 37299
L56644 42649
" />
<path d="M56319 37299
L56644 37299
" />
<path d="M56319 37099
L56319 37299
" />
<path d="M55969 37099
L56319 37099
" />
<path d="M55969 36399
L55969 37099
" />
</g>
<g style="fill:#FFFFFF; fill-opacity:0.0; 
stroke:#FFFFFF; stroke-width:80; stroke-opacity:1; 
stroke-linecap:round; stroke-linejoin:round;">
<path d="M65564 46862
L68144 46862
" />
<path d="M65564 48262
L65564 46862
" />
<path d="M68144 48262
L65564 48262
" />
<path d="M68144 46862
L68144 48262
" />
<path d="M61934 46918
L64514 46918
" />
<path d="M61934 48318
L61934 46918
" />
<path d="M64514 48318
L61934 48318
" />
<path d="M64514 46918
L64514 48318
" />
</g>
<g style="fill:#FFFFFF; fill-opacity:0.0; 
stroke:#FFFFFF; stroke-width:59.0551; stroke-opacity:1; 
stroke-linecap:round; stroke-linejoin:round;">
<text x="82547.2" y="56066.9"
textLength="1840.83" font-size="524.934" lengthAdjust="spacingAndGlyphs"
text-anchor="middle" opacity="0">REF**</text>
<path d="M82022 56048
L81891 55860
" />
<path d="M81797 56048
L81797 55654
L81947 55654
L81984 55673
L82003 55691
L82022 55729
L82022 55785
L82003 55823
L81984 55841
L81947 55860
L81797 55860
" />
<path d="M82191 55841
L82322 55841
" />
<path d="M82378 56048
L82191 56048
L82191 55654
L82378 55654
" />
<path d="M82678 55841
L82547 55841
" />
<path d="M82547 56048
L82547 55654
L82734 55654
" />
<path d="M82940 55654
L82940 55748
" />
<path d="M82847 55710
L82940 55748
L83034 55710
" />
<path d="M82884 55823
L82940 55748
L82997 55823
" />
<path d="M83240 55654
L83240 55748
" />
<path d="M83147 55710
L83240 55748
L83334 55710
" />
<path d="M83184 55823
L83240 55748
L83297 55823
" />
<text x="43968.5" y="28173.2"
textLength="1764.06" font-size="524.934" lengthAdjust="spacingAndGlyphs"
text-anchor="middle" opacity="0">REF**</text>
<path d="M43443 28154
L43312 27967
" />
<path d="M43218 28154
L43218 27760
L43368 27760
L43406 27779
L43424 27798
L43443 27835
L43443 27892
L43424 27929
L43406 27948
L43368 27967
L43218 27967
" />
<path d="M43612 27948
L43743 27948
" />
<path d="M43799 28154
L43612 28154
L43612 27760
L43799 27760
" />
<path d="M44099 27948
L43968 27948
" />
<path d="M43968 28154
L43968 27760
L44155 27760
" />
<path d="M44362 27760
L44362 27854
" />
<path d="M44268 27817
L44362 27854
L44455 27817
" />
<path d="M44305 27929
L44362 27854
L44418 27929
" />
<path d="M44662 27760
L44662 27854
" />
<path d="M44568 27817
L44662 27854
L44755 27817
" />
<path d="M44605 27929
L44662 27854
L44718 27929
" />
<text x="44232.3" y="56149.6"
textLength="1764.06" font-size="524.934" lengthAdjust="spacingAndGlyphs"
text-anchor="middle" opacity="0">REF**</text>
<path d="M43707 56130
L43576 55943
" />
<path d="M43482 56130
L43482 55737
L43632 55737
L43669 55755
L43688 55774
L43707 55812
L43707 55868
L43688 55905
L43669 55924
L43632 55943
L43482 55943
" />
<path d="M43876 55924
L44007 55924
" />
<path d="M44063 56130
L43876 56130
L43876 55737
L44063 55737
" />
<path d="M44363 55924
L44232 55924
" />
<path d="M44232 56130
L44232 55737
L44419 55737
" />
<path d="M44625 55737
L44625 55830
" />
<path d="M44532 55793
L44625 55830
L44719 55793
" />
<path d="M44569 55905
L44625 55830
L44682 55905
" />
<path d="M44925 55737
L44925 55830
" />
<path d="M44832 55793
L44925 55830
L45019 55793
" />
<path d="M44869 55905
L44925 55830
L44982 55905
" />
<text x="82787.4" y="28334.6"
textLength="1764.06" font-size="524.934" lengthAdjust="spacingAndGlyphs"
text-anchor="middle" opacity="0">REF**</text>
<path d="M82262 28315
L82131 28128
" />
<path d="M82037 28315
L82037 27922
L82187 27922
L82224 27940
L82243 27959
L82262 27997
L82262 28053
L82243 28090
L82224 28109
L82187 28128
L82037 28128
" />
<path d="M82431 28109
L82562 28109
" />
<path d="M82618 28315
L82431 28315
L82431 27922
L82618 27922
" />
<path d="M82918 28109
L82787 28109
" />
<path d="M82787 28315
L82787 27922
L82974 27922
" />
<path d="M83181 27922
L83181 28015
" />
<path d="M83087 27978
L83181 28015
L83274 27978
" />
<path d="M83124 28090
L83181 28015
L83237 28090
" />
<path d="M83481 27922
L83481 28015
" />
<path d="M83387 27978
L83481 28015
L83574 27978
" />
<path d="M83424 28090
L83481 28015
L83537 28090
" />
</g>
<g style="fill:#FFFFFF; fill-opacity:0.0; 
stroke:#FFFFFF; stroke-width:47.5; stroke-opacity:1; 
stroke-linecap:round; stroke-linejoin:round;">
<text x="76041.9" y="57918.2"
textLength="981.533" font-size="633.333" lengthAdjust="spacingAndGlyphs"
text-anchor="start" opacity="0">X6</text>
<path d="M76140 57420
L76457 57895
" />
<path d="M76457 57420
L76140 57895
" />
<path d="M76841 57420
L76751 57420
L76706 57443
L76683 57465
L76638 57533
L76615 57624
L76615 57805
L76638 57850
L76660 57872
L76706 57895
L76796 57895
L76841 57872
L76864 57850
L76887 57805
L76887 57691
L76864 57646
L76841 57624
L76796 57601
L76706 57601
L76660 57624
L76638 57646
L76615 57691
" />
<text x="70725.9" y="57855.8"
textLength="966.512" font-size="633.333" lengthAdjust="spacingAndGlyphs"
text-anchor="start" opacity="0">X5</text>
<path d="M70824 57358
L71141 57833
" />
<path d="M71141 57358
L70824 57833
" />
<path d="M71548 57358
L71322 57358
L71299 57584
L71322 57561
L71367 57539
L71480 57539
L71525 57561
L71548 57584
L71571 57629
L71571 57742
L71548 57787
L71525 57810
L71480 57833
L71367 57833
L71322 57810
L71299 57787
" />
</g>
<g style="fill:#FFFFFF; fill-opacity:0.0; 
stroke:#FFFFFF; stroke-width:50; stroke-opacity:1; 
stroke-linecap:round; stroke-linejoin:round;">
<text x="72405.9" y="55635.8"
textLength="514.131" font-size="633.333" lengthAdjust="spacingAndGlyphs"
text-anchor="start" opacity="0">2</text>
<path d="M72528 55183
L72551 55160
L72596 55138
L72709 55138
L72755 55160
L72777 55183
L72800 55228
L72800 55273
L72777 55341
L72506 55613
L72800 55613
" />
<text x="70455.9" y="55635.8"
textLength="517.381" font-size="633.333" lengthAdjust="spacingAndGlyphs"
text-anchor="start" opacity="0">1</text>
<path d="M70850 55613
L70578 55613
" />
<path d="M70714 55613
L70714 55138
L70669 55206
L70624 55251
L70578 55273
" />
</g>
<g style="fill:#FFFFFF; fill-opacity:0.0; 
stroke:#FFFFFF; stroke-width:47.5; stroke-opacity:1; 
stroke-linecap:round; stroke-linejoin:round;">
<text x="65883.4" y="57895.2"
textLength="969.762" font-size="633.333" lengthAdjust="spacingAndGlyphs"
text-anchor="start" opacity="0">X4</text>
<path d="M65982 57397
L66298 57872
" />
<path d="M66298 57397
L65982 57872
" />
<path d="M66683 57555
L66683 57872
" />
<path d="M66570 57374
L66457 57714
L66751 57714
" />
</g>
<g style="fill:#FFFFFF; fill-opacity:0.0; 
stroke:#FFFFFF; stroke-width:50; stroke-opacity:1; 
stroke-linecap:round; stroke-linejoin:round;">
<text x="67563.4" y="55675.2"
textLength="514.131" font-size="633.333" lengthAdjust="spacingAndGlyphs"
text-anchor="start" opacity="0">2</text>
<path d="M67686 55222
L67708 55200
L67754 55177
L67867 55177
L67912 55200
L67935 55222
L67957 55268
L67957 55313
L67935 55381
L67663 55652
L67957 55652
" />
<text x="65613.4" y="55675.2"
textLength="517.381" font-size="633.333" lengthAdjust="spacingAndGlyphs"
text-anchor="start" opacity="0">1</text>
<path d="M66007 55652
L65736 55652
" />
<path d="M65872 55652
L65872 55177
L65826 55245
L65781 55290
L65736 55313
" />
</g>
<g style="fill:#FFFFFF; fill-opacity:0.0; 
stroke:#FFFFFF; stroke-width:47.5; stroke-opacity:1; 
stroke-linecap:round; stroke-linejoin:round;">
<text x="60844" y="57973.9"
textLength="969.762" font-size="633.333" lengthAdjust="spacingAndGlyphs"
text-anchor="start" opacity="0">X3</text>
<path d="M60942 57476
L61259 57951
" />
<path d="M61259 57476
L60942 57951
" />
<path d="M61395 57476
L61689 57476
L61530 57657
L61598 57657
L61643 57679
L61666 57702
L61689 57747
L61689 57860
L61666 57906
L61643 57928
L61598 57951
L61462 57951
L61417 57928
L61395 57906
" />
</g>
<g style="fill:#FFFFFF; fill-opacity:0.0; 
stroke:#FFFFFF; stroke-width:50; stroke-opacity:1; 
stroke-linecap:round; stroke-linejoin:round;">
<text x="62524" y="55753.9"
textLength="514.131" font-size="633.333" lengthAdjust="spacingAndGlyphs"
text-anchor="start" opacity="0">2</text>
<path d="M62646 55301
L62669 55278
L62714 55256
L62827 55256
L62873 55278
L62895 55301
L62918 55346
L62918 55392
L62895 55459
L62624 55731
L62918 55731
" />
<text x="60574" y="55753.9"
textLength="517.381" font-size="633.333" lengthAdjust="spacingAndGlyphs"
text-anchor="start" opacity="0">1</text>
<path d="M60968 55731
L60696 55731
" />
<path d="M60832 55731
L60832 55256
L60787 55324
L60742 55369
L60696 55392
" />
</g>
<g style="fill:#FFFFFF; fill-opacity:0.0; 
stroke:#FFFFFF; stroke-width:47.5; stroke-opacity:1; 
stroke-linecap:round; stroke-linejoin:round;">
<text x="56080.2" y="57973.9"
textLength="969.762" font-size="633.333" lengthAdjust="spacingAndGlyphs"
text-anchor="start" opacity="0">X2</text>
<path d="M56178 57476
L56495 57951
" />
<path d="M56495 57476
L56178 57951
" />
<path d="M56653 57521
L56676 57498
L56721 57476
L56834 57476
L56880 57498
L56902 57521
L56925 57566
L56925 57612
L56902 57679
L56631 57951
L56925 57951
" />
</g>
<g style="fill:#FFFFFF; fill-opacity:0.0; 
stroke:#FFFFFF; stroke-width:50; stroke-opacity:1; 
stroke-linecap:round; stroke-linejoin:round;">
<text x="57760.2" y="55753.9"
textLength="514.131" font-size="633.333" lengthAdjust="spacingAndGlyphs"
text-anchor="start" opacity="0">2</text>
<path d="M57883 55301
L57905 55278
L57951 55256
L58064 55256
L58109 55278
L58132 55301
L58154 55346
L58154 55392
L58132 55459
L57860 55731
L58154 55731
" />
<text x="55810.2" y="55753.9"
textLength="517.381" font-size="633.333" lengthAdjust="spacingAndGlyphs"
text-anchor="start" opacity="0">1</text>
<path d="M56204 55731
L55933 55731
" />
<path d="M56068 55731
L56068 55256
L56023 55324
L55978 55369
L55933 55392
" />
</g>
<g style="fill:#FFFFFF; fill-opacity:0.0; 
stroke:#FFFFFF; stroke-width:47.5; stroke-opacity:1; 
stroke-linecap:round; stroke-linejoin:round;">
<text x="51434.6" y="57946.4"
textLength="969.762" font-size="633.333" lengthAdjust="spacingAndGlyphs"
text-anchor="start" opacity="0">X1</text>
<path d="M51533 57448
L51849 57923
" />
<path d="M51849 57448
L51533 57923
" />
<path d="M52279 57923
L52008 57923
" />
<path d="M52144 57923
L52144 57448
L52098 57516
L52053 57561
L52008 57584
" />
</g>
<g style="fill:#FFFFFF; fill-opacity:0.0; 
stroke:#FFFFFF; stroke-width:50; stroke-opacity:1; 
stroke-linecap:round; stroke-linejoin:round;">
<text x="53114.6" y="55726.4"
textLength="514.131" font-size="633.333" lengthAdjust="spacingAndGlyphs"
text-anchor="start" opacity="0">2</text>
<path d="M53237 55273
L53260 55251
L53305 55228
L53418 55228
L53463 55251
L53486 55273
L53508 55319
L53508 55364
L53486 55432
L53214 55703
L53508 55703
" />
<text x="51164.6" y="55726.4"
textLength="517.381" font-size="633.333" lengthAdjust="spacingAndGlyphs"
text-anchor="start" opacity="0">1</text>
<path d="M51558 55703
L51287 55703
" />
<path d="M51423 55703
L51423 55228
L51378 55296
L51332 55341
L51287 55364
" />
</g>
<g style="fill:#FFFFFF; fill-opacity:0.0; 
stroke:#FFFFFF; stroke-width:59.0551; stroke-opacity:1; 
stroke-linecap:round; stroke-linejoin:round;">
<text x="71003.9" y="34574.8"
textLength="852.402" font-size="524.934" lengthAdjust="spacingAndGlyphs"
text-anchor="middle" opacity="0">U4</text>
<path d="M70703 34162
L70703 34481
L70722 34518
L70741 34537
L70778 34556
L70853 34556
L70891 34537
L70910 34518
L70928 34481
L70928 34162
" />
<path d="M71285 34293
L71285 34556
" />
<path d="M71191 34143
L71097 34424
L71341 34424
" />
</g>
<g style="fill:#FFFFFF; fill-opacity:0.0; 
stroke:#FFFFFF; stroke-width:47.5; stroke-opacity:1; 
stroke-linecap:round; stroke-linejoin:round;">
<text x="76003.7" y="46188.3"
textLength="1026.77" font-size="633.333" lengthAdjust="spacingAndGlyphs"
text-anchor="start" opacity="0">U3</text>
<path d="M76147 45690
L76147 46075
L76170 46120
L76192 46143
L76238 46165
L76328 46165
L76373 46143
L76396 46120
L76419 46075
L76419 45690
" />
<path d="M76600 45690
L76894 45690
L76735 45871
L76803 45871
L76848 45894
L76871 45916
L76894 45962
L76894 46075
L76871 46120
L76848 46143
L76803 46165
L76667 46165
L76622 46143
L76600 46120
" />
</g>
<g style="fill:#FFFFFF; fill-opacity:0.0; 
stroke:#FFFFFF; stroke-width:30; stroke-opacity:1; 
stroke-linecap:round; stroke-linejoin:round;">
<text x="74093.7" y="46808.3"
textLength="423.655" font-size="633.333" lengthAdjust="spacingAndGlyphs"
text-anchor="start" opacity="0">*</text>
<path d="M74294 46310
L74294 46423
" />
<path d="M74181 46378
L74294 46423
L74407 46378
" />
<path d="M74226 46514
L74294 46423
L74362 46514
" />
</g>
<g style="fill:#FFFFFF; fill-opacity:0.0; 
stroke:#FFFFFF; stroke-width:47.5; stroke-opacity:1; 
stroke-linecap:round; stroke-linejoin:round;">
<text x="65460.4" y="31400.9"
textLength="989" font-size="633.333" lengthAdjust="spacingAndGlyphs"
text-anchor="start" opacity="0">U2</text>
<path d="M65604 30903
L65604 31287
L65626 31333
L65649 31355
L65694 31378
L65785 31378
L65830 31355
L65853 31333
L65875 31287
L65875 30903
" />
<path d="M66079 30948
L66101 30925
L66147 30903
L66260 30903
L66305 30925
L66328 30948
L66350 30993
L66350 31039
L66328 31106
L66056 31378
L66350 31378
" />
</g>
<g style="fill:#FFFFFF; fill-opacity:0.0; 
stroke:#FFFFFF; stroke-width:30; stroke-opacity:1; 
stroke-linecap:round; stroke-linejoin:round;">
<text x="63550.4" y="32020.9"
textLength="423.655" font-size="633.333" lengthAdjust="spacingAndGlyphs"
text-anchor="start" opacity="0">*</text>
<path d="M63750 31523
L63750 31636
" />
<path d="M63637 31591
L63750 31636
L63863 31591
" />
<path d="M63682 31726
L63750 31636
L63818 31726
" />
</g>
<g style="fill:#FFFFFF; fill-opacity:0.0; 
stroke:#FFFFFF; stroke-width:38; stroke-opacity:1; 
stroke-linecap:round; stroke-linejoin:round;">
<g transform="rotate(-90 53719.7 38674)">
<text x="53719.7" y="38674"
textLength="989" font-size="633.333" lengthAdjust="spacingAndGlyphs"
text-anchor="end" opacity="0">U1</text>
</g>
<path d="M53222 39535
L53606 39535
L53651 39513
L53674 39490
L53697 39445
L53697 39354
L53674 39309
L53651 39286
L53606 39264
L53222 39264
" />
<path d="M53697 38789
L53697 39060
" />
<path d="M53697 38924
L53222 38924
L53289 38970
L53335 39015
L53357 39060
" />
</g>
<g style="fill:#FFFFFF; fill-opacity:0.0; 
stroke:#FFFFFF; stroke-width:40; stroke-opacity:1; 
stroke-linecap:round; stroke-linejoin:round;">
<g transform="rotate(-90 49341.9 35573.6)">
<text x="49341.9" y="35573.6"
textLength="501.781" font-size="633.333" lengthAdjust="spacingAndGlyphs"
text-anchor="end" opacity="0">2</text>
</g>
<path d="M48889 35961
L48866 35938
L48844 35893
L48844 35780
L48866 35735
L48889 35712
L48934 35690
L48979 35690
L49047 35712
L49319 35984
L49319 35690
" />
<g transform="rotate(-90 46241.9 35573.6)">
<text x="46241.9" y="35573.6"
textLength="504.381" font-size="633.333" lengthAdjust="spacingAndGlyphs"
text-anchor="end" opacity="0">1</text>
</g>
<path d="M46219 35690
L46219 35961
" />
<path d="M46219 35825
L45744 35825
L45812 35871
L45857 35916
L45879 35961
" />
<g transform="rotate(-90 56819.7 41874)">
<text x="56819.7" y="41874"
textLength="504.381" font-size="633.333" lengthAdjust="spacingAndGlyphs"
text-anchor="end" opacity="0">2</text>
</g>
<path d="M56367 42261
L56344 42239
L56322 42194
L56322 42080
L56344 42035
L56367 42013
L56412 41990
L56457 41990
L56525 42013
L56797 42284
L56797 41990
" />
<g transform="rotate(-90 53719.7 41874)">
<text x="53719.7" y="41874"
textLength="504.381" font-size="633.333" lengthAdjust="spacingAndGlyphs"
text-anchor="end" opacity="0">1</text>
</g>
<path d="M53697 41990
L53697 42261
" />
<path d="M53697 42126
L53222 42126
L53289 42171
L53335 42216
L53357 42261
" />
</g>
<g style="fill:#FFFFFF; fill-opacity:0.0; 
stroke:#FFFFFF; stroke-width:38; stroke-opacity:1; 
stroke-linecap:round; stroke-linejoin:round;">
<text x="70598.4" y="45796.1"
textLength="1431.76" font-size="633.333" lengthAdjust="spacingAndGlyphs"
text-anchor="start" opacity="0">R21</text>
<path d="M71007 45773
L70849 45547
" />
<path d="M70736 45773
L70736 45298
L70917 45298
L70962 45321
L70985 45343
L71007 45388
L71007 45456
L70985 45502
L70962 45524
L70917 45547
L70736 45547
" />
<path d="M71188 45343
L71211 45321
L71256 45298
L71369 45298
L71414 45321
L71437 45343
L71460 45388
L71460 45434
L71437 45502
L71165 45773
L71460 45773
" />
<path d="M71912 45773
L71640 45773
" />
<path d="M71776 45773
L71776 45298
L71731 45366
L71686 45411
L71640 45434
" />
<g transform="rotate(90 55405.5 49977.2)">
<text x="55405.5" y="49977.2"
textLength="1429.16" font-size="633.333" lengthAdjust="spacingAndGlyphs"
text-anchor="start" opacity="0">R18</text>
</g>
<path d="M55428 50386
L55654 50228
" />
<path d="M55428 50114
L55903 50114
L55903 50295
L55880 50341
L55857 50363
L55812 50386
L55744 50386
L55699 50363
L55676 50341
L55654 50295
L55654 50114
" />
<path d="M55428 50838
L55428 50567
" />
<path d="M55428 50703
L55903 50703
L55835 50657
L55790 50612
L55767 50567
" />
<path d="M55699 51110
L55722 51064
L55744 51042
L55790 51019
L55812 51019
L55857 51042
L55880 51064
L55903 51110
L55903 51200
L55880 51245
L55857 51268
L55812 51291
L55790 51291
L55744 51268
L55722 51245
L55699 51200
L55699 51110
L55676 51064
L55654 51042
L55609 51019
L55518 51019
L55473 51042
L55450 51064
L55428 51110
L55428 51200
L55450 51245
L55473 51268
L55518 51291
L55609 51291
L55654 51268
L55676 51245
L55699 51200
" />
<g transform="rotate(-90 78342.5 49141.7)">
<text x="78342.5" y="49141.7"
textLength="1429.16" font-size="633.333" lengthAdjust="spacingAndGlyphs"
text-anchor="end" opacity="0">R17</text>
</g>
<path d="M78319 50161
L78093 50320
" />
<path d="M78319 50433
L77844 50433
L77844 50252
L77867 50206
L77890 50184
L77935 50161
L78003 50161
L78048 50184
L78071 50206
L78093 50252
L78093 50433
" />
<path d="M78319 49709
L78319 49980
" />
<path d="M78319 49845
L77844 49845
L77912 49890
L77957 49935
L77980 49980
" />
<path d="M77844 49550
L77844 49234
L78319 49437
" />
<g transform="rotate(-90 64940.9 41989)">
<text x="64940.9" y="41989"
textLength="1429.16" font-size="633.333" lengthAdjust="spacingAndGlyphs"
text-anchor="end" opacity="0">R16</text>
</g>
<path d="M64918 43008
L64692 43167
" />
<path d="M64918 43280
L64443 43280
L64443 43099
L64465 43054
L64488 43031
L64533 43008
L64601 43008
L64646 43031
L64669 43054
L64692 43099
L64692 43280
" />
<path d="M64918 42556
L64918 42827
" />
<path d="M64918 42692
L64443 42692
L64511 42737
L64556 42782
L64579 42827
" />
<path d="M64443 42149
L64443 42239
L64465 42285
L64488 42307
L64556 42352
L64646 42375
L64827 42375
L64873 42352
L64895 42330
L64918 42285
L64918 42194
L64895 42149
L64873 42126
L64827 42104
L64714 42104
L64669 42126
L64646 42149
L64624 42194
L64624 42285
L64646 42330
L64669 42352
L64714 42375
" />
<g transform="rotate(-90 62500 42059.8)">
<text x="62500" y="42059.8"
textLength="1429.16" font-size="633.333" lengthAdjust="spacingAndGlyphs"
text-anchor="end" opacity="0">R15</text>
</g>
<path d="M62477 43079
L62251 43238
" />
<path d="M62477 43351
L62002 43351
L62002 43170
L62025 43125
L62047 43102
L62092 43079
L62160 43079
L62205 43102
L62228 43125
L62251 43170
L62251 43351
" />
<path d="M62477 42627
L62477 42898
" />
<path d="M62477 42763
L62002 42763
L62070 42808
L62115 42853
L62138 42898
" />
<path d="M62002 42197
L62002 42423
L62228 42446
L62205 42423
L62183 42378
L62183 42265
L62205 42220
L62228 42197
L62273 42175
L62386 42175
L62432 42197
L62454 42220
L62477 42265
L62477 42378
L62454 42423
L62432 42446
" />
<g transform="rotate(-90 65992.1 41989)">
<text x="65992.1" y="41989"
textLength="1429.16" font-size="633.333" lengthAdjust="spacingAndGlyphs"
text-anchor="end" opacity="0">R14</text>
</g>
<path d="M65969 43008
L65743 43167
" />
<path d="M65969 43280
L65494 43280
L65494 43099
L65517 43054
L65539 43031
L65584 43008
L65652 43008
L65698 43031
L65720 43054
L65743 43099
L65743 43280
" />
<path d="M65969 42556
L65969 42827
" />
<path d="M65969 42692
L65494 42692
L65562 42737
L65607 42782
L65630 42827
" />
<path d="M65652 42149
L65969 42149
" />
<path d="M65471 42262
L65811 42375
L65811 42081
" />
<g transform="rotate(-90 69295.3 41941.7)">
<text x="69295.3" y="41941.7"
textLength="1429.16" font-size="633.333" lengthAdjust="spacingAndGlyphs"
text-anchor="end" opacity="0">R13</text>
</g>
<path d="M69272 42961
L69046 43120
" />
<path d="M69272 43233
L68797 43233
L68797 43052
L68820 43006
L68842 42984
L68888 42961
L68955 42961
L69001 42984
L69023 43006
L69046 43052
L69046 43233
" />
<path d="M69272 42509
L69272 42780
" />
<path d="M69272 42645
L68797 42645
L68865 42690
L68910 42735
L68933 42780
" />
<path d="M68797 42350
L68797 42056
L68978 42215
L68978 42147
L69001 42102
L69023 42079
L69069 42056
L69182 42056
L69227 42079
L69250 42102
L69272 42147
L69272 42283
L69250 42328
L69227 42350
" />
<g transform="rotate(-90 66098.4 43000.8)">
<text x="66098.4" y="43000.8"
textLength="1429.16" font-size="633.333" lengthAdjust="spacingAndGlyphs"
text-anchor="start" opacity="0">R12</text>
</g>
<path d="M66075 42591
L65849 42749
" />
<path d="M66075 42862
L65600 42862
L65600 42682
L65623 42636
L65646 42614
L65691 42591
L65759 42591
L65804 42614
L65826 42636
L65849 42682
L65849 42862
" />
<path d="M66075 42139
L66075 42410
" />
<path d="M66075 42274
L65600 42274
L65668 42320
L65713 42365
L65736 42410
" />
<path d="M65646 41958
L65623 41935
L65600 41890
L65600 41777
L65623 41732
L65646 41709
L65691 41686
L65736 41686
L65804 41709
L66075 41980
L66075 41686
" />
<g transform="rotate(-90 58921.3 47166.1)">
<text x="58921.3" y="47166.1"
textLength="1429.16" font-size="633.333" lengthAdjust="spacingAndGlyphs"
text-anchor="end" opacity="0">R11</text>
</g>
<path d="M58898 48186
L58672 48344
" />
<path d="M58898 48457
L58423 48457
L58423 48276
L58446 48231
L58468 48208
L58514 48186
L58581 48186
L58627 48208
L58649 48231
L58672 48276
L58672 48457
" />
<path d="M58898 47733
L58898 48005
" />
<path d="M58898 47869
L58423 47869
L58491 47914
L58536 47959
L58559 48005
" />
<path d="M58898 47281
L58898 47552
" />
<path d="M58898 47417
L58423 47417
L58491 47462
L58536 47507
L58559 47552
" />
<g transform="rotate(-90 60653.5 47166.1)">
<text x="60653.5" y="47166.1"
textLength="1429.16" font-size="633.333" lengthAdjust="spacingAndGlyphs"
text-anchor="end" opacity="0">R10</text>
</g>
<path d="M60630 48186
L60404 48344
" />
<path d="M60630 48457
L60155 48457
L60155 48276
L60178 48231
L60201 48208
L60246 48186
L60314 48186
L60359 48208
L60382 48231
L60404 48276
L60404 48457
" />
<path d="M60630 47733
L60630 48005
" />
<path d="M60630 47869
L60155 47869
L60223 47914
L60269 47959
L60291 48005
" />
<path d="M60155 47439
L60155 47394
L60178 47349
L60201 47326
L60246 47303
L60336 47281
L60449 47281
L60540 47303
L60585 47326
L60608 47349
L60630 47394
L60630 47439
L60608 47484
L60585 47507
L60540 47530
L60449 47552
L60336 47552
L60246 47530
L60201 47507
L60178 47484
L60155 47439
" />
<g transform="rotate(-90 63811 42036.2)">
<text x="63811" y="42036.2"
textLength="976.781" font-size="633.333" lengthAdjust="spacingAndGlyphs"
text-anchor="end" opacity="0">R9</text>
</g>
<path d="M63788 42603
L63562 42762
" />
<path d="M63788 42875
L63313 42875
L63313 42694
L63336 42649
L63358 42626
L63403 42603
L63471 42603
L63516 42626
L63539 42649
L63562 42694
L63562 42875
" />
<path d="M63788 42377
L63788 42287
L63765 42241
L63743 42219
L63675 42174
L63584 42151
L63403 42151
L63358 42174
L63336 42196
L63313 42241
L63313 42332
L63336 42377
L63358 42400
L63403 42422
L63516 42422
L63562 42400
L63584 42377
L63607 42332
L63607 42241
L63584 42196
L63562 42174
L63516 42151
" />
<g transform="rotate(-90 57559.1 48933.1)">
<text x="57559.1" y="48933.1"
textLength="976.781" font-size="633.333" lengthAdjust="spacingAndGlyphs"
text-anchor="end" opacity="0">R4</text>
</g>
<path d="M57536 49500
L57310 49658
" />
<path d="M57536 49772
L57061 49772
L57061 49591
L57084 49545
L57106 49523
L57151 49500
L57219 49500
L57265 49523
L57287 49545
L57310 49591
L57310 49772
" />
<path d="M57219 49093
L57536 49093
" />
<path d="M57038 49206
L57378 49319
L57378 49025
" />
<g transform="rotate(90 66964.6 34059.8)">
<text x="66964.6" y="34059.8"
textLength="976.781" font-size="633.333" lengthAdjust="spacingAndGlyphs"
text-anchor="start" opacity="0">R3</text>
</g>
<path d="M66987 34469
L67213 34310
" />
<path d="M66987 34197
L67462 34197
L67462 34378
L67439 34423
L67416 34446
L67371 34469
L67303 34469
L67258 34446
L67235 34423
L67213 34378
L67213 34197
" />
<path d="M67462 34627
L67462 34921
L67281 34763
L67281 34830
L67258 34876
L67235 34898
L67190 34921
L67077 34921
L67032 34898
L67009 34876
L66987 34830
L66987 34695
L67009 34650
L67032 34627
" />
<g transform="rotate(-90 68185 41960.6)">
<text x="68185" y="41960.6"
textLength="976.781" font-size="633.333" lengthAdjust="spacingAndGlyphs"
text-anchor="end" opacity="0">R2</text>
</g>
<path d="M68162 42528
L67936 42686
" />
<path d="M68162 42799
L67687 42799
L67687 42618
L67710 42573
L67732 42550
L67777 42528
L67845 42528
L67890 42550
L67913 42573
L67936 42618
L67936 42799
" />
<path d="M67732 42347
L67710 42324
L67687 42279
L67687 42166
L67710 42121
L67732 42098
L67777 42075
L67823 42075
L67890 42098
L68162 42369
L68162 42075
" />
<g transform="rotate(90 62212.6 35220.5)">
<text x="62212.6" y="35220.5"
textLength="976.781" font-size="633.333" lengthAdjust="spacingAndGlyphs"
text-anchor="start" opacity="0">R1</text>
</g>
<path d="M62235 35629
L62461 35471
" />
<path d="M62235 35358
L62710 35358
L62710 35539
L62687 35584
L62664 35607
L62619 35629
L62551 35629
L62506 35607
L62484 35584
L62461 35539
L62461 35358
" />
<path d="M62235 36082
L62235 35810
" />
<path d="M62235 35946
L62710 35946
L62642 35901
L62597 35855
L62574 35810
" />
<text x="65854.3" y="47543"
textLength="1202.97" font-size="633.333" lengthAdjust="spacingAndGlyphs"
text-anchor="start" opacity="0">IC2</text>
<path d="M65992 47520
L65992 47045
" />
<path d="M66489 47475
L66467 47497
L66399 47520
L66354 47520
L66286 47497
L66240 47452
L66218 47407
L66195 47316
L66195 47248
L66218 47158
L66240 47113
L66286 47067
L66354 47045
L66399 47045
L66467 47067
L66489 47090
" />
<path d="M66670 47090
L66693 47067
L66738 47045
L66851 47045
L66896 47067
L66919 47090
L66942 47135
L66942 47181
L66919 47248
L66648 47520
L66942 47520
" />
<text x="62224.4" y="47598.1"
textLength="1202.97" font-size="633.333" lengthAdjust="spacingAndGlyphs"
text-anchor="start" opacity="0">IC1</text>
<path d="M62362 47575
L62362 47100
" />
<path d="M62859 47530
L62837 47552
L62769 47575
L62724 47575
L62656 47552
L62611 47507
L62588 47462
L62565 47371
L62565 47304
L62588 47213
L62611 47168
L62656 47123
L62724 47100
L62769 47100
L62837 47123
L62859 47145
" />
<path d="M63312 47575
L63040 47575
" />
<path d="M63176 47575
L63176 47100
L63131 47168
L63086 47213
L63040 47236
" />
</g>
<g style="fill:#FFFFFF; fill-opacity:0.0; 
stroke:#FFFFFF; stroke-width:30.4; stroke-opacity:1; 
stroke-linecap:round; stroke-linejoin:round;">
<g transform="rotate(90 70746.1 41291.3)">
<text x="70746.1" y="41291.3"
textLength="1153.21" font-size="506.667" lengthAdjust="spacingAndGlyphs"
text-anchor="start" opacity="0">C14</text>
</g>
<path d="M70800 41618
L70782 41600
L70764 41546
L70764 41510
L70782 41455
L70818 41419
L70854 41401
L70927 41383
L70981 41383
L71053 41401
L71089 41419
L71126 41455
L71144 41510
L71144 41546
L71126 41600
L71107 41618
" />
<path d="M70764 41980
L70764 41763
" />
<path d="M70764 41872
L71144 41872
L71089 41835
L71053 41799
L71035 41763
" />
<path d="M71017 42306
L70764 42306
" />
<path d="M71162 42215
L70890 42125
L70890 42360
" />
<g transform="rotate(90 70738.2 43153.5)">
<text x="70738.2" y="43153.5"
textLength="1143.33" font-size="506.667" lengthAdjust="spacingAndGlyphs"
text-anchor="start" opacity="0">C13</text>
</g>
<path d="M70792 43480
L70774 43462
L70756 43408
L70756 43372
L70774 43318
L70810 43281
L70846 43263
L70919 43245
L70973 43245
L71045 43263
L71081 43281
L71118 43318
L71136 43372
L71136 43408
L71118 43462
L71100 43480
" />
<path d="M70756 43842
L70756 43625
" />
<path d="M70756 43734
L71136 43734
L71081 43698
L71045 43661
L71027 43625
" />
<path d="M71136 43969
L71136 44204
L70991 44078
L70991 44132
L70973 44168
L70955 44186
L70919 44204
L70828 44204
L70792 44186
L70774 44168
L70756 44132
L70756 44023
L70774 43987
L70792 43969
" />
<g transform="rotate(90 71836.6 45614.2)">
<text x="71836.6" y="45614.2"
textLength="1143.33" font-size="506.667" lengthAdjust="spacingAndGlyphs"
text-anchor="start" opacity="0">C12</text>
</g>
<path d="M71890 45941
L71872 45923
L71854 45869
L71854 45832
L71872 45778
L71908 45742
L71945 45724
L72017 45706
L72071 45706
L72144 45724
L72180 45742
L72216 45778
L72234 45832
L72234 45869
L72216 45923
L72198 45941
" />
<path d="M71854 46303
L71854 46086
" />
<path d="M71854 46194
L72234 46194
L72180 46158
L72144 46122
L72126 46086
" />
<path d="M72198 46448
L72216 46466
L72234 46502
L72234 46592
L72216 46629
L72198 46647
L72162 46665
L72126 46665
L72071 46647
L71854 46430
L71854 46665
" />
<g transform="rotate(90 72927.2 45606.3)">
<text x="72927.2" y="45606.3"
textLength="1143.33" font-size="506.667" lengthAdjust="spacingAndGlyphs"
text-anchor="start" opacity="0">C11</text>
</g>
<path d="M72981 45933
L72963 45915
L72945 45861
L72945 45825
L72963 45770
L72999 45734
L73035 45716
L73108 45698
L73162 45698
L73234 45716
L73270 45734
L73307 45770
L73325 45825
L73325 45861
L73307 45915
L73289 45933
" />
<path d="M72945 46295
L72945 46078
" />
<path d="M72945 46187
L73325 46187
L73270 46150
L73234 46114
L73216 46078
" />
<path d="M72945 46657
L72945 46440
" />
<path d="M72945 46548
L73325 46548
L73270 46512
L73234 46476
L73216 46440
" />
<g transform="rotate(-90 74005.9 45622)">
<text x="74005.9" y="45622"
textLength="781.425" font-size="506.667" lengthAdjust="spacingAndGlyphs"
text-anchor="start" opacity="0">C6</text>
</g>
<path d="M73951 45294
L73969 45312
L73987 45367
L73987 45403
L73969 45457
L73933 45493
L73897 45511
L73824 45529
L73770 45529
L73698 45511
L73662 45493
L73625 45457
L73607 45403
L73607 45367
L73625 45312
L73644 45294
" />
<path d="M73607 44968
L73607 45041
L73625 45077
L73644 45095
L73698 45131
L73770 45149
L73915 45149
L73951 45131
L73969 45113
L73987 45077
L73987 45005
L73969 44968
L73951 44950
L73915 44932
L73824 44932
L73788 44950
L73770 44968
L73752 45005
L73752 45077
L73770 45113
L73788 45131
L73824 45149
" />
<g transform="rotate(-90 66368.1 44236.2)">
<text x="66368.1" y="44236.2"
textLength="781.425" font-size="506.667" lengthAdjust="spacingAndGlyphs"
text-anchor="end" opacity="0">C4</text>
</g>
<path d="M66313 44690
L66331 44708
L66350 44762
L66350 44798
L66331 44853
L66295 44889
L66259 44907
L66187 44925
L66132 44925
L66060 44907
L66024 44889
L65988 44853
L65970 44798
L65970 44762
L65988 44708
L66006 44690
" />
<path d="M66096 44364
L66350 44364
" />
<path d="M65951 44455
L66223 44545
L66223 44310
" />
<g transform="rotate(-90 67344.5 44220.5)">
<text x="67344.5" y="44220.5"
textLength="781.425" font-size="506.667" lengthAdjust="spacingAndGlyphs"
text-anchor="end" opacity="0">C3</text>
</g>
<path d="M67290 44674
L67308 44692
L67326 44746
L67326 44783
L67308 44837
L67272 44873
L67235 44891
L67163 44909
L67109 44909
L67036 44891
L67000 44873
L66964 44837
L66946 44783
L66946 44746
L66964 44692
L66982 44674
" />
<path d="M66946 44547
L66946 44312
L67091 44439
L67091 44384
L67109 44348
L67127 44330
L67163 44312
L67254 44312
L67290 44330
L67308 44348
L67326 44384
L67326 44493
L67308 44529
L67290 44547
" />
<g transform="rotate(-90 65415.4 44240.2)">
<text x="65415.4" y="44240.2"
textLength="781.425" font-size="506.667" lengthAdjust="spacingAndGlyphs"
text-anchor="end" opacity="0">C2</text>
</g>
<path d="M65361 44694
L65379 44712
L65397 44766
L65397 44802
L65379 44857
L65342 44893
L65306 44911
L65234 44929
L65180 44929
L65107 44911
L65071 44893
L65035 44857
L65017 44802
L65017 44766
L65035 44712
L65053 44694
" />
<path d="M65053 44549
L65035 44531
L65017 44495
L65017 44404
L65035 44368
L65053 44350
L65089 44332
L65125 44332
L65180 44350
L65397 44567
L65397 44332
" />
<g >
</g>
</g> 
</svg>
