<?xml version="1.0" standalone="no"?>
 <!DOCTYPE svg PUBLIC "-//W3C//DTD SVG 1.1//EN" 
 "http://www.w3.org/Graphics/SVG/1.1/DTD/svg11.dtd"> 
<svg
  xmlns:svg="http://www.w3.org/2000/svg"
  xmlns="http://www.w3.org/2000/svg"
  xmlns:xlink="http://www.w3.org/1999/xlink"
  version="1.1"
  width="29.700220cm" height="21.000720cm" viewBox="0 0 116930 82680">
<title>SVG Picture created as CZTBoardV3-B_Mask.svg date 2021/08/27 15:43:49 </title>
  <desc>Picture generated by PCBNEW </desc>
<g style="fill:#000000; fill-opacity:1;stroke:#000000; stroke-opacity:1;
stroke-linecap:round; stroke-linejoin:round;"
 transform="translate(0 0) scale(1 1)">
</g>
<g style="fill:#000000; fill-opacity:0.0; 
stroke:#000000; stroke-width:-0.000393701; stroke-opacity:1; 
stroke-linecap:round; stroke-linejoin:round;">
</g>
<g style="fill:#000000; fill-opacity:1.0; 
stroke:#000000; stroke-width:39.3701; stroke-opacity:1; 
stroke-linecap:round; stroke-linejoin:round;">
<rect x="36374.7" y="25709.6" width="52094.7" height="37069.9" rx="0" />
</g>
<g style="fill:#FFFFFF; fill-opacity:1.0; 
stroke:#FFFFFF; stroke-width:39.3701; stroke-opacity:1; 
stroke-linecap:round; stroke-linejoin:round;">
<g >
</g>
<g style="fill:#FFFFFF; fill-opacity:1.0; 
stroke:#FFFFFF; stroke-width:0; stroke-opacity:1; 
stroke-linecap:round; stroke-linejoin:round;">
<circle cx="82547.2" cy="57523.6" r="629.921" /> 
</g>
<g style="fill:#FFFFFF; fill-opacity:1.0; 
stroke:#FFFFFF; stroke-width:39.3701; stroke-opacity:1; 
stroke-linecap:round; stroke-linejoin:round;">
</g>
<g >
</g>
<g style="fill:#FFFFFF; fill-opacity:1.0; 
stroke:#FFFFFF; stroke-width:39.3701; stroke-opacity:1; 
stroke-linecap:round; stroke-linejoin:round;">
</g>
<g style="fill:#FFFFFF; fill-opacity:1.0; 
stroke:#FFFFFF; stroke-width:0; stroke-opacity:1; 
stroke-linecap:round; stroke-linejoin:round;">
<circle cx="43968.5" cy="29629.9" r="629.921" /> 
</g>
<g style="fill:#FFFFFF; fill-opacity:1.0; 
stroke:#FFFFFF; stroke-width:39.3701; stroke-opacity:1; 
stroke-linecap:round; stroke-linejoin:round;">
</g>
<g >
</g>
<g style="fill:#FFFFFF; fill-opacity:1.0; 
stroke:#FFFFFF; stroke-width:39.3701; stroke-opacity:1; 
stroke-linecap:round; stroke-linejoin:round;">
</g>
<g style="fill:#FFFFFF; fill-opacity:1.0; 
stroke:#FFFFFF; stroke-width:0; stroke-opacity:1; 
stroke-linecap:round; stroke-linejoin:round;">
<circle cx="44232.3" cy="57606.3" r="629.921" /> 
</g>
<g style="fill:#FFFFFF; fill-opacity:1.0; 
stroke:#FFFFFF; stroke-width:39.3701; stroke-opacity:1; 
stroke-linecap:round; stroke-linejoin:round;">
</g>
<g >
</g>
<g style="fill:#FFFFFF; fill-opacity:1.0; 
stroke:#FFFFFF; stroke-width:39.3701; stroke-opacity:1; 
stroke-linecap:round; stroke-linejoin:round;">
</g>
<g style="fill:#FFFFFF; fill-opacity:1.0; 
stroke:#FFFFFF; stroke-width:0; stroke-opacity:1; 
stroke-linecap:round; stroke-linejoin:round;">
<circle cx="82787.4" cy="29791.3" r="629.921" /> 
</g>
<g style="fill:#FFFFFF; fill-opacity:1.0; 
stroke:#FFFFFF; stroke-width:39.3701; stroke-opacity:1; 
stroke-linecap:round; stroke-linejoin:round;">
</g>
<g >
</g>
<g style="fill:#FFFFFF; fill-opacity:1.0; 
stroke:#FFFFFF; stroke-width:39.3701; stroke-opacity:1; 
stroke-linecap:round; stroke-linejoin:round;">
</g>
<g style="fill:#FFFFFF; fill-opacity:1.0; 
stroke:#FFFFFF; stroke-width:785; stroke-opacity:1; 
stroke-linecap:round; stroke-linejoin:round;">
</g>
<g style="fill:#FFFFFF; fill-opacity:0.0; 
stroke:#FFFFFF; stroke-width:785; stroke-opacity:1; 
stroke-linecap:round; stroke-linejoin:round;">
<path d="M80350 56746
L80350 56041
" />
<path d="M78381 56746
L78381 56041
" />
<path d="M76413 56746
L76413 56041
" />
</g>
<g >
</g>
<g style="fill:#FFFFFF; fill-opacity:0.0; 
stroke:#FFFFFF; stroke-width:785; stroke-opacity:1; 
stroke-linecap:round; stroke-linejoin:round;">
<path d="M73224 56738
L73224 56033
" />
<path d="M71255 56738
L71255 56033
" />
</g>
<g >
</g>
<g style="fill:#FFFFFF; fill-opacity:0.0; 
stroke:#FFFFFF; stroke-width:785; stroke-opacity:1; 
stroke-linecap:round; stroke-linejoin:round;">
<path d="M68381 56777
L68381 56072
" />
<path d="M66413 56777
L66413 56072
" />
</g>
<g >
</g>
<g style="fill:#FFFFFF; fill-opacity:0.0; 
stroke:#FFFFFF; stroke-width:785; stroke-opacity:1; 
stroke-linecap:round; stroke-linejoin:round;">
<path d="M63342 56856
L63342 56151
" />
<path d="M61374 56856
L61374 56151
" />
</g>
<g >
</g>
<g style="fill:#FFFFFF; fill-opacity:0.0; 
stroke:#FFFFFF; stroke-width:785; stroke-opacity:1; 
stroke-linecap:round; stroke-linejoin:round;">
<path d="M58578 56856
L58578 56151
" />
<path d="M56610 56856
L56610 56151
" />
</g>
<g >
</g>
<g style="fill:#FFFFFF; fill-opacity:0.0; 
stroke:#FFFFFF; stroke-width:785; stroke-opacity:1; 
stroke-linecap:round; stroke-linejoin:round;">
<path d="M53933 56828
L53933 56123
" />
<path d="M51964 56828
L51964 56123
" />
</g>
<g >
</g>
<g style="fill:#FFFFFF; fill-opacity:0.0; 
stroke:#FFFFFF; stroke-width:785; stroke-opacity:1; 
stroke-linecap:round; stroke-linejoin:round;">
</g>
<g style="fill:#FFFFFF; fill-opacity:1.0; 
stroke:#FFFFFF; stroke-width:0; stroke-opacity:1; 
stroke-linecap:round; stroke-linejoin:round;">
<circle cx="71397.6" cy="38755.9" r="295.276" /> 
</g>
<g style="fill:#FFFFFF; fill-opacity:1.0; 
stroke:#FFFFFF; stroke-width:39.3701; stroke-opacity:1; 
stroke-linecap:round; stroke-linejoin:round;">
</g>
<g style="fill:#FFFFFF; fill-opacity:1.0; 
stroke:#FFFFFF; stroke-width:0; stroke-opacity:1; 
stroke-linecap:round; stroke-linejoin:round;">
<circle cx="71397.6" cy="37755.9" r="295.276" /> 
</g>
<g style="fill:#FFFFFF; fill-opacity:1.0; 
stroke:#FFFFFF; stroke-width:39.3701; stroke-opacity:1; 
stroke-linecap:round; stroke-linejoin:round;">
</g>
<g style="fill:#FFFFFF; fill-opacity:1.0; 
stroke:#FFFFFF; stroke-width:0; stroke-opacity:1; 
stroke-linecap:round; stroke-linejoin:round;">
<circle cx="71397.6" cy="36755.9" r="295.276" /> 
</g>
<g style="fill:#FFFFFF; fill-opacity:1.0; 
stroke:#FFFFFF; stroke-width:39.3701; stroke-opacity:1; 
stroke-linecap:round; stroke-linejoin:round;">
</g>
<g style="fill:#FFFFFF; fill-opacity:1.0; 
stroke:#FFFFFF; stroke-width:0; stroke-opacity:1; 
stroke-linecap:round; stroke-linejoin:round;">
<path style="fill:#FFFFFF; fill-opacity:1.0; 
stroke:#FFFFFF; stroke-width:0; stroke-opacity:1; 
stroke-linecap:round; stroke-linejoin:round;fill-rule:evenodd;"
d="M 71102.4,36051.2
71102.4,35460.6
71692.9,35460.6
71692.9,36051.2
Z" /> 
</g>
<g >
</g>
<g >
</g>
<g >
</g>
<g style="fill:#FFFFFF; fill-opacity:1.0; 
stroke:#FFFFFF; stroke-width:0; stroke-opacity:1; 
stroke-linecap:round; stroke-linejoin:round;">
<circle cx="48854.3" cy="43122" r="827.402" /> 
</g>
<g style="fill:#FFFFFF; fill-opacity:1.0; 
stroke:#FFFFFF; stroke-width:39.3701; stroke-opacity:1; 
stroke-linecap:round; stroke-linejoin:round;">
</g>
<g style="fill:#FFFFFF; fill-opacity:1.0; 
stroke:#FFFFFF; stroke-width:0; stroke-opacity:1; 
stroke-linecap:round; stroke-linejoin:round;">
<circle cx="48041.9" cy="36448.6" r="280" /> 
</g>
<g style="fill:#FFFFFF; fill-opacity:1.0; 
stroke:#FFFFFF; stroke-width:39.3701; stroke-opacity:1; 
stroke-linecap:round; stroke-linejoin:round;">
</g>
<g style="fill:#FFFFFF; fill-opacity:1.0; 
stroke:#FFFFFF; stroke-width:0; stroke-opacity:1; 
stroke-linecap:round; stroke-linejoin:round;">
<circle cx="48041.9" cy="30698.6" r="280" /> 
</g>
<g style="fill:#FFFFFF; fill-opacity:1.0; 
stroke:#FFFFFF; stroke-width:39.3701; stroke-opacity:1; 
stroke-linecap:round; stroke-linejoin:round;">
</g>
<g style="fill:#FFFFFF; fill-opacity:1.0; 
stroke:#FFFFFF; stroke-width:0; stroke-opacity:1; 
stroke-linecap:round; stroke-linejoin:round;">
<circle cx="55519.7" cy="42749" r="280" /> 
</g>
<g style="fill:#FFFFFF; fill-opacity:1.0; 
stroke:#FFFFFF; stroke-width:39.3701; stroke-opacity:1; 
stroke-linecap:round; stroke-linejoin:round;">
</g>
<g style="fill:#FFFFFF; fill-opacity:1.0; 
stroke:#FFFFFF; stroke-width:0; stroke-opacity:1; 
stroke-linecap:round; stroke-linejoin:round;">
<circle cx="55519.7" cy="36999" r="280" /> 
</g>
<g style="fill:#FFFFFF; fill-opacity:1.0; 
stroke:#FFFFFF; stroke-width:39.3701; stroke-opacity:1; 
stroke-linecap:round; stroke-linejoin:round;">
</g>
<g >
</g>
<g >
</g>
<g style="fill:#FFFFFF; fill-opacity:1.0; 
stroke:#FFFFFF; stroke-width:39.3701; stroke-opacity:1; 
stroke-linecap:round; stroke-linejoin:round;">
</g>
<g style="fill:#FFFFFF; fill-opacity:1.0; 
stroke:#FFFFFF; stroke-width:0; stroke-opacity:1; 
stroke-linecap:round; stroke-linejoin:round;">
<path style="fill:#FFFFFF; fill-opacity:1.0; 
stroke:#FFFFFF; stroke-width:0; stroke-opacity:1; 
stroke-linecap:round; stroke-linejoin:round;fill-rule:evenodd;"
d="M 53347,49909.8
53350.9,49910.4
53354.7,49911.3
53358.4,49912.7
53362,49914.3
53365.3,49916.3
53368.5,49918.7
53371.4,49921.3
53374,49924.2
53376.4,49927.4
53378.4,49930.8
53380.1,49934.3
53381.4,49938
53382.3,49941.8
53382.9,49945.7
53383.1,49949.6
53383.1,50579.5
53382.9,50583.4
53382.3,50587.3
53381.4,50591.1
53380.1,50594.8
53378.4,50598.4
53376.4,50601.8
53374,50604.9
53371.4,50607.8
53368.5,50610.4
53365.3,50612.8
53362,50614.8
53358.4,50616.5
53354.7,50617.8
53350.9,50618.8
53347,50619.3
53343.1,50619.5
52633.3,50619.5
52629.3,50619.3
52625.5,50618.8
52621.7,50617.8
52618,50616.5
52614.4,50614.8
52611,50612.8
52607.9,50610.4
52605,50607.8
52602.3,50604.9
52600,50601.8
52598,50598.4
52596.3,50594.8
52595,50591.1
52594,50587.3
52593.5,50583.4
52593.3,50579.5
52593.3,49949.6
52593.5,49945.7
52594,49941.8
52595,49938
52596.3,49934.3
52598,49930.8
52600,49927.4
52602.3,49924.2
52605,49921.3
52607.9,49918.7
52611,49916.3
52614.4,49914.3
52618,49912.7
52621.7,49911.3
52625.5,49910.4
52629.3,49909.8
52633.3,49909.6
53343.1,49909.6
Z" /> 
<path style="fill:#FFFFFF; fill-opacity:1.0; 
stroke:#FFFFFF; stroke-width:0; stroke-opacity:1; 
stroke-linecap:round; stroke-linejoin:round;fill-rule:evenodd;"
d="M 53347,48790.1
53350.9,48790.7
53354.7,48791.6
53358.4,48793
53362,48794.6
53365.3,48796.7
53368.5,48799
53371.4,48801.6
53374,48804.5
53376.4,48807.7
53378.4,48811.1
53380.1,48814.6
53381.4,48818.3
53382.3,48822.1
53382.9,48826
53383.1,48829.9
53383.1,49459.8
53382.9,49463.8
53382.3,49467.6
53381.4,49471.5
53380.1,49475.2
53378.4,49478.7
53376.4,49482.1
53374,49485.2
53371.4,49488.1
53368.5,49490.8
53365.3,49493.1
53362,49495.1
53358.4,49496.8
53354.7,49498.1
53350.9,49499.1
53347,49499.7
53343.1,49499.8
52633.3,49499.8
52629.3,49499.7
52625.5,49499.1
52621.7,49498.1
52618,49496.8
52614.4,49495.1
52611,49493.1
52607.9,49490.8
52605,49488.1
52602.3,49485.2
52600,49482.1
52598,49478.7
52596.3,49475.2
52595,49471.5
52594,49467.6
52593.5,49463.8
52593.3,49459.8
52593.3,48829.9
52593.5,48826
52594,48822.1
52595,48818.3
52596.3,48814.6
52598,48811.1
52600,48807.7
52602.3,48804.5
52605,48801.6
52607.9,48799
52611,48796.7
52614.4,48794.6
52618,48793
52621.7,48791.6
52625.5,48790.7
52629.3,48790.1
52633.3,48789.9
53343.1,48789.9
Z" /> 
</g>
<g >
</g>
<g >
</g>
<g >
</g>
<g >
</g>
<g >
</g>
<g >
</g>
<g >
</g>
<g >
</g>
<g >
</g>
<g >
</g>
<g >
</g>
<g >
</g>
<g >
</g>
<g >
</g>
<g >
</g>
<g >
</g>
<g >
</g>
<g >
</g>
<g >
</g>
<g >
</g>
<g >
</g>
<g style="fill:#FFFFFF; fill-opacity:1.0; 
stroke:#FFFFFF; stroke-width:0; stroke-opacity:1; 
stroke-linecap:round; stroke-linejoin:round;">
<path style="fill:#FFFFFF; fill-opacity:1.0; 
stroke:#FFFFFF; stroke-width:0; stroke-opacity:1; 
stroke-linecap:round; stroke-linejoin:round;fill-rule:evenodd;"
d="M 51417.3,48857.8
51421.2,48858.4
51425,48859.4
51428.7,48860.7
51432.2,48862.4
51435.6,48864.4
51438.8,48866.7
51441.7,48869.4
51444.3,48872.3
51446.6,48875.4
51448.7,48878.8
51450.3,48882.3
51451.7,48886
51452.6,48889.8
51453.2,48893.7
51453.4,48897.6
51453.4,49409.4
51453.2,49413.4
51452.6,49417.3
51451.7,49421.1
51450.3,49424.8
51448.7,49428.3
51446.6,49431.7
51444.3,49434.8
51441.7,49437.7
51438.8,49440.4
51435.6,49442.7
51432.2,49444.7
51428.7,49446.4
51425,49447.7
51421.2,49448.7
51417.3,49449.3
51413.4,49449.4
50783.5,49449.4
50779.5,49449.3
50775.7,49448.7
50771.9,49447.7
50768.2,49446.4
50764.6,49444.7
50761.2,49442.7
50758.1,49440.4
50755.2,49437.7
50752.5,49434.8
50750.2,49431.7
50748.2,49428.3
50746.5,49424.8
50745.2,49421.1
50744.2,49417.3
50743.7,49413.4
50743.5,49409.4
50743.5,48897.6
50743.7,48893.7
50744.2,48889.8
50745.2,48886
50746.5,48882.3
50748.2,48878.8
50750.2,48875.4
50752.5,48872.3
50755.2,48869.4
50758.1,48866.7
50761.2,48864.4
50764.6,48862.4
50768.2,48860.7
50771.9,48859.4
50775.7,48858.4
50779.5,48857.8
50783.5,48857.6
51413.4,48857.6
Z" /> 
<path style="fill:#FFFFFF; fill-opacity:1.0; 
stroke:#FFFFFF; stroke-width:0; stroke-opacity:1; 
stroke-linecap:round; stroke-linejoin:round;fill-rule:evenodd;"
d="M 51417.3,49645.2
51421.2,49645.8
51425,49646.8
51428.7,49648.1
51432.2,49649.8
51435.6,49651.8
51438.8,49654.1
51441.7,49656.8
51444.3,49659.7
51446.6,49662.8
51448.7,49666.2
51450.3,49669.7
51451.7,49673.4
51452.6,49677.2
51453.2,49681.1
51453.4,49685
51453.4,50196.9
51453.2,50200.8
51452.6,50204.7
51451.7,50208.5
51450.3,50212.2
51448.7,50215.7
51446.6,50219.1
51444.3,50222.2
51441.7,50225.1
51438.8,50227.8
51435.6,50230.1
51432.2,50232.1
51428.7,50233.8
51425,50235.1
51421.2,50236.1
51417.3,50236.7
51413.4,50236.9
50783.5,50236.9
50779.5,50236.7
50775.7,50236.1
50771.9,50235.1
50768.2,50233.8
50764.6,50232.1
50761.2,50230.1
50758.1,50227.8
50755.2,50225.1
50752.5,50222.2
50750.2,50219.1
50748.2,50215.7
50746.5,50212.2
50745.2,50208.5
50744.2,50204.7
50743.7,50200.8
50743.5,50196.9
50743.5,49685
50743.7,49681.1
50744.2,49677.2
50745.2,49673.4
50746.5,49669.7
50748.2,49666.2
50750.2,49662.8
50752.5,49659.7
50755.2,49656.8
50758.1,49654.1
50761.2,49651.8
50764.6,49649.8
50768.2,49648.1
50771.9,49646.8
50775.7,49645.8
50779.5,49645.2
50783.5,49645
51413.4,49645
Z" /> 
</g>
<g >
</g>
<g >
</g>
<g >
</g>
<g >
</g>
<g >
</g>
<g >
</g>
<g >
</g>
</g> 
</svg>
