<?xml version="1.0" standalone="no"?>
 <!DOCTYPE svg PUBLIC "-//W3C//DTD SVG 1.1//EN" 
 "http://www.w3.org/Graphics/SVG/1.1/DTD/svg11.dtd"> 
<svg
  xmlns:svg="http://www.w3.org/2000/svg"
  xmlns="http://www.w3.org/2000/svg"
  xmlns:xlink="http://www.w3.org/1999/xlink"
  version="1.1"
  width="29.700220cm" height="21.000720cm" viewBox="0 0 116930 82680">
<title>SVG Picture created as CZTBoardV3-B_SilkS.svg date 2021/08/27 15:43:49 </title>
  <desc>Picture generated by PCBNEW </desc>
<g style="fill:#000000; fill-opacity:1;stroke:#000000; stroke-opacity:1;
stroke-linecap:round; stroke-linejoin:round;"
 transform="translate(0 0) scale(1 1)">
</g>
<g style="fill:#000000; fill-opacity:0.0; 
stroke:#000000; stroke-width:-0.000393701; stroke-opacity:1; 
stroke-linecap:round; stroke-linejoin:round;">
</g>
<g style="fill:#000000; fill-opacity:1.0; 
stroke:#000000; stroke-width:39.3701; stroke-opacity:1; 
stroke-linecap:round; stroke-linejoin:round;">
<rect x="36374.7" y="25709.6" width="52094.7" height="37069.9" rx="0" />
</g>
<g style="fill:#FFFFFF; fill-opacity:1.0; 
stroke:#FFFFFF; stroke-width:39.3701; stroke-opacity:1; 
stroke-linecap:round; stroke-linejoin:round;">
</g>
<g style="fill:#FFFFFF; fill-opacity:0.0; 
stroke:#FFFFFF; stroke-width:39.3701; stroke-opacity:1; 
stroke-linecap:round; stroke-linejoin:round;">
</g>
<g style="fill:#FFFFFF; fill-opacity:0.0; 
stroke:#FFFFFF; stroke-width:38; stroke-opacity:1; 
stroke-linecap:round; stroke-linejoin:round;">
<g transform="rotate(-90 53488.2 50204.7)">
<text x="53488.2" y="50204.7"
transform="scale(-1 1) translate(-106976.377953 0)"
textLength="1340.24" font-size="633.333" lengthAdjust="spacingAndGlyphs"
text-anchor="start" opacity="0">R20</text>
</g>
<path d="M53465 50613
L53239 50455
" />
<path d="M53465 50342
L52990 50342
L52990 50523
L53013 50568
L53035 50591
L53081 50613
L53148 50613
L53194 50591
L53216 50568
L53239 50523
L53239 50342
" />
<path d="M53035 50794
L53013 50817
L52990 50862
L52990 50975
L53013 51021
L53035 51043
L53081 51066
L53126 51066
L53194 51043
L53465 50772
L53465 51066
" />
<path d="M52990 51360
L52990 51405
L53013 51450
L53035 51473
L53081 51496
L53171 51518
L53284 51518
L53375 51496
L53420 51473
L53442 51450
L53465 51405
L53465 51360
L53442 51315
L53420 51292
L53375 51269
L53284 51247
L53171 51247
L53081 51269
L53035 51292
L53013 51315
L52990 51360
" />
</g>
<g style="fill:#FFFFFF; fill-opacity:0.0; 
stroke:#FFFFFF; stroke-width:30.4; stroke-opacity:1; 
stroke-linecap:round; stroke-linejoin:round;">
<g transform="rotate(-90 51442.9 49940.9)">
<text x="51442.9" y="49940.9"
transform="scale(-1 1) translate(-102885.826772 0)"
textLength="1054.41" font-size="506.667" lengthAdjust="spacingAndGlyphs"
text-anchor="start" opacity="0">C10</text>
</g>
<path d="M51388 50268
L51406 50250
L51424 50195
L51424 50159
L51406 50105
L51370 50069
L51334 50051
L51261 50033
L51207 50033
L51135 50051
L51099 50069
L51062 50105
L51044 50159
L51044 50195
L51062 50250
L51081 50268
" />
<path d="M51424 50630
L51424 50413
" />
<path d="M51424 50521
L51044 50521
L51099 50485
L51135 50449
L51153 50413
" />
<path d="M51044 50865
L51044 50901
L51062 50937
L51081 50955
L51117 50974
L51189 50992
L51280 50992
L51352 50974
L51388 50955
L51406 50937
L51424 50901
L51424 50865
L51406 50829
L51388 50811
L51352 50793
L51280 50774
L51189 50774
L51117 50793
L51081 50811
L51062 50829
L51044 50865
" />
<g >
</g>
</g> 
</svg>
