%TF.GenerationSoftware,KiCad,Pcbnew,(5.1.10)-1*%
%TF.CreationDate,2021-08-27T14:28:01+05:30*%
%TF.ProjectId,CZTBoardV3,435a5442-6f61-4726-9456-332e6b696361,rev?*%
%TF.SameCoordinates,Original*%
%TF.FileFunction,Soldermask,Bot*%
%TF.FilePolarity,Negative*%
%FSLAX46Y46*%
G04 Gerber Fmt 4.6, Leading zero omitted, Abs format (unit mm)*
G04 Created by KiCad (PCBNEW (5.1.10)-1) date 2021-08-27 14:28:01*
%MOMM*%
%LPD*%
G01*
G04 APERTURE LIST*
%ADD10O,1.993900X3.784600*%
%ADD11C,1.500000*%
%ADD12R,1.500000X1.500000*%
%ADD13C,4.203200*%
%ADD14C,1.422400*%
G04 APERTURE END LIST*
D10*
%TO.C,X6*%
X204090000Y-143240000D03*
X199090000Y-143240000D03*
X194090000Y-143240000D03*
%TD*%
%TO.C,X5*%
X185990000Y-143220000D03*
X180990000Y-143220000D03*
%TD*%
%TO.C,X4*%
X173690000Y-143320000D03*
X168690000Y-143320000D03*
%TD*%
%TO.C,X3*%
X160890000Y-143520000D03*
X155890000Y-143520000D03*
%TD*%
%TO.C,X2*%
X148790000Y-143520000D03*
X143790000Y-143520000D03*
%TD*%
%TO.C,X1*%
X136990000Y-143450000D03*
X131990000Y-143450000D03*
%TD*%
D11*
%TO.C,U4*%
X181350000Y-98440000D03*
X181350000Y-95900000D03*
X181350000Y-93360000D03*
D12*
X181350000Y-90820000D03*
%TD*%
D13*
%TO.C,U1*%
X124090000Y-109530000D03*
D14*
X122026400Y-92579500D03*
X122026400Y-77974500D03*
X141020000Y-108582500D03*
X141020000Y-93977500D03*
%TD*%
%TO.C,R20*%
G36*
G01*
X135491500Y-128573600D02*
X133688500Y-128573600D01*
G75*
G02*
X133586900Y-128472000I0J101600D01*
G01*
X133586900Y-126872000D01*
G75*
G02*
X133688500Y-126770400I101600J0D01*
G01*
X135491500Y-126770400D01*
G75*
G02*
X135593100Y-126872000I0J-101600D01*
G01*
X135593100Y-128472000D01*
G75*
G02*
X135491500Y-128573600I-101600J0D01*
G01*
G37*
G36*
G01*
X135491500Y-125729600D02*
X133688500Y-125729600D01*
G75*
G02*
X133586900Y-125628000I0J101600D01*
G01*
X133586900Y-124028000D01*
G75*
G02*
X133688500Y-123926400I101600J0D01*
G01*
X135491500Y-123926400D01*
G75*
G02*
X135593100Y-124028000I0J-101600D01*
G01*
X135593100Y-125628000D01*
G75*
G02*
X135491500Y-125729600I-101600J0D01*
G01*
G37*
%TD*%
%TO.C,C10*%
G36*
G01*
X130590000Y-125601600D02*
X128990000Y-125601600D01*
G75*
G02*
X128888400Y-125500000I0J101600D01*
G01*
X128888400Y-124200000D01*
G75*
G02*
X128990000Y-124098400I101600J0D01*
G01*
X130590000Y-124098400D01*
G75*
G02*
X130691600Y-124200000I0J-101600D01*
G01*
X130691600Y-125500000D01*
G75*
G02*
X130590000Y-125601600I-101600J0D01*
G01*
G37*
G36*
G01*
X130590000Y-127601600D02*
X128990000Y-127601600D01*
G75*
G02*
X128888400Y-127500000I0J101600D01*
G01*
X128888400Y-126200000D01*
G75*
G02*
X128990000Y-126098400I101600J0D01*
G01*
X130590000Y-126098400D01*
G75*
G02*
X130691600Y-126200000I0J-101600D01*
G01*
X130691600Y-127500000D01*
G75*
G02*
X130590000Y-127601600I-101600J0D01*
G01*
G37*
%TD*%
M02*
