%TF.GenerationSoftware,KiCad,Pcbnew,(5.1.9)-1*%
%TF.CreationDate,2021-09-03T15:16:10+00:00*%
%TF.ProjectId,CZTBoardV3,435a5442-6f61-4726-9456-332e6b696361,rev?*%
%TF.SameCoordinates,Original*%
%TF.FileFunction,Copper,L1,Top*%
%TF.FilePolarity,Positive*%
%FSLAX46Y46*%
G04 Gerber Fmt 4.6, Leading zero omitted, Abs format (unit mm)*
G04 Created by KiCad (PCBNEW (5.1.9)-1) date 2021-09-03 15:16:10*
%MOMM*%
%LPD*%
G01*
G04 APERTURE LIST*
%TA.AperFunction,NonConductor*%
%ADD10C,0.300000*%
%TD*%
%TA.AperFunction,ComponentPad*%
%ADD11C,4.000000*%
%TD*%
%TA.AperFunction,SMDPad,CuDef*%
%ADD12R,2.222400X0.736600*%
%TD*%
%TA.AperFunction,ComponentPad*%
%ADD13O,1.790700X3.581400*%
%TD*%
%TA.AperFunction,ComponentPad*%
%ADD14C,1.500000*%
%TD*%
%TA.AperFunction,ComponentPad*%
%ADD15R,1.500000X1.500000*%
%TD*%
%TA.AperFunction,SMDPad,CuDef*%
%ADD16R,1.981200X0.558800*%
%TD*%
%TA.AperFunction,SMDPad,CuDef*%
%ADD17R,1.803000X1.600000*%
%TD*%
%TA.AperFunction,SMDPad,CuDef*%
%ADD18R,3.800000X2.000000*%
%TD*%
%TA.AperFunction,SMDPad,CuDef*%
%ADD19R,1.500000X2.000000*%
%TD*%
%TA.AperFunction,SMDPad,CuDef*%
%ADD20R,1.600000X1.300000*%
%TD*%
%TA.AperFunction,ViaPad*%
%ADD21C,2.000000*%
%TD*%
%TA.AperFunction,Conductor*%
%ADD22C,0.609600*%
%TD*%
%TA.AperFunction,Conductor*%
%ADD23C,0.250000*%
%TD*%
G04 APERTURE END LIST*
D10*
X184230000Y-80585714D02*
X184158571Y-80657142D01*
X183944285Y-80728571D01*
X183801428Y-80728571D01*
X183587142Y-80657142D01*
X183444285Y-80514285D01*
X183372857Y-80371428D01*
X183301428Y-80085714D01*
X183301428Y-79871428D01*
X183372857Y-79585714D01*
X183444285Y-79442857D01*
X183587142Y-79300000D01*
X183801428Y-79228571D01*
X183944285Y-79228571D01*
X184158571Y-79300000D01*
X184230000Y-79371428D01*
X184730000Y-79228571D02*
X185730000Y-79228571D01*
X184730000Y-80728571D01*
X185730000Y-80728571D01*
X186087142Y-79228571D02*
X186944285Y-79228571D01*
X186515714Y-80728571D02*
X186515714Y-79228571D01*
X188587142Y-80728571D02*
X188587142Y-79228571D01*
X189301428Y-79728571D02*
X189301428Y-80728571D01*
X189301428Y-79871428D02*
X189372857Y-79800000D01*
X189515714Y-79728571D01*
X189730000Y-79728571D01*
X189872857Y-79800000D01*
X189944285Y-79942857D01*
X189944285Y-80728571D01*
X190444285Y-79728571D02*
X191015714Y-79728571D01*
X190658571Y-79228571D02*
X190658571Y-80514285D01*
X190730000Y-80657142D01*
X190872857Y-80728571D01*
X191015714Y-80728571D01*
X192087142Y-80657142D02*
X191944285Y-80728571D01*
X191658571Y-80728571D01*
X191515714Y-80657142D01*
X191444285Y-80514285D01*
X191444285Y-79942857D01*
X191515714Y-79800000D01*
X191658571Y-79728571D01*
X191944285Y-79728571D01*
X192087142Y-79800000D01*
X192158571Y-79942857D01*
X192158571Y-80085714D01*
X191444285Y-80228571D01*
X192801428Y-80728571D02*
X192801428Y-79728571D01*
X192801428Y-80014285D02*
X192872857Y-79871428D01*
X192944285Y-79800000D01*
X193087142Y-79728571D01*
X193230000Y-79728571D01*
X193515714Y-79728571D02*
X194087142Y-79728571D01*
X193730000Y-80728571D02*
X193730000Y-79442857D01*
X193801428Y-79300000D01*
X193944285Y-79228571D01*
X194087142Y-79228571D01*
X195230000Y-80728571D02*
X195230000Y-79942857D01*
X195158571Y-79800000D01*
X195015714Y-79728571D01*
X194730000Y-79728571D01*
X194587142Y-79800000D01*
X195230000Y-80657142D02*
X195087142Y-80728571D01*
X194730000Y-80728571D01*
X194587142Y-80657142D01*
X194515714Y-80514285D01*
X194515714Y-80371428D01*
X194587142Y-80228571D01*
X194730000Y-80157142D01*
X195087142Y-80157142D01*
X195230000Y-80085714D01*
X196587142Y-80657142D02*
X196444285Y-80728571D01*
X196158571Y-80728571D01*
X196015714Y-80657142D01*
X195944285Y-80585714D01*
X195872857Y-80442857D01*
X195872857Y-80014285D01*
X195944285Y-79871428D01*
X196015714Y-79800000D01*
X196158571Y-79728571D01*
X196444285Y-79728571D01*
X196587142Y-79800000D01*
X197801428Y-80657142D02*
X197658571Y-80728571D01*
X197372857Y-80728571D01*
X197230000Y-80657142D01*
X197158571Y-80514285D01*
X197158571Y-79942857D01*
X197230000Y-79800000D01*
X197372857Y-79728571D01*
X197658571Y-79728571D01*
X197801428Y-79800000D01*
X197872857Y-79942857D01*
X197872857Y-80085714D01*
X197158571Y-80228571D01*
X200515714Y-80585714D02*
X200444285Y-80657142D01*
X200230000Y-80728571D01*
X200087142Y-80728571D01*
X199872857Y-80657142D01*
X199730000Y-80514285D01*
X199658571Y-80371428D01*
X199587142Y-80085714D01*
X199587142Y-79871428D01*
X199658571Y-79585714D01*
X199730000Y-79442857D01*
X199872857Y-79300000D01*
X200087142Y-79228571D01*
X200230000Y-79228571D01*
X200444285Y-79300000D01*
X200515714Y-79371428D01*
X201801428Y-80728571D02*
X201801428Y-79942857D01*
X201730000Y-79800000D01*
X201587142Y-79728571D01*
X201301428Y-79728571D01*
X201158571Y-79800000D01*
X201801428Y-80657142D02*
X201658571Y-80728571D01*
X201301428Y-80728571D01*
X201158571Y-80657142D01*
X201087142Y-80514285D01*
X201087142Y-80371428D01*
X201158571Y-80228571D01*
X201301428Y-80157142D01*
X201658571Y-80157142D01*
X201801428Y-80085714D01*
X202515714Y-80728571D02*
X202515714Y-79728571D01*
X202515714Y-80014285D02*
X202587142Y-79871428D01*
X202658571Y-79800000D01*
X202801428Y-79728571D01*
X202944285Y-79728571D01*
X204087142Y-80728571D02*
X204087142Y-79228571D01*
X204087142Y-80657142D02*
X203944285Y-80728571D01*
X203658571Y-80728571D01*
X203515714Y-80657142D01*
X203444285Y-80585714D01*
X203372857Y-80442857D01*
X203372857Y-80014285D01*
X203444285Y-79871428D01*
X203515714Y-79800000D01*
X203658571Y-79728571D01*
X203944285Y-79728571D01*
X204087142Y-79800000D01*
D11*
%TO.P,U1,41*%
%TO.N,/HV*%
X124090000Y-109530000D03*
D12*
%TO.P,U1,1*%
%TO.N,/AVFE*%
X123391700Y-79562000D03*
%TO.P,U1,2*%
X120661200Y-79562000D03*
%TO.P,U1,3*%
%TO.N,AGND*%
X123391700Y-80832000D03*
%TO.P,U1,4*%
X120661200Y-80832000D03*
%TO.P,U1,5*%
%TO.N,N/C*%
X123391700Y-82102000D03*
%TO.P,U1,6*%
X120661200Y-82102000D03*
%TO.P,U1,7*%
X123391700Y-83372000D03*
%TO.P,U1,8*%
X120661200Y-83372000D03*
%TO.P,U1,9*%
%TO.N,AGND*%
X123391700Y-84642000D03*
%TO.P,U1,10*%
X120661200Y-84642000D03*
%TO.P,U1,11*%
%TO.N,N/C*%
X123391700Y-85912000D03*
%TO.P,U1,12*%
X120661200Y-85912000D03*
%TO.P,U1,13*%
X123391700Y-87182000D03*
%TO.P,U1,14*%
%TO.N,/PWR_ON*%
X120661200Y-87182000D03*
%TO.P,U1,15*%
%TO.N,N/C*%
X123391700Y-88452000D03*
%TO.P,U1,16*%
X120661200Y-88452000D03*
%TO.P,U1,17*%
%TO.N,AGND*%
X123391700Y-89722000D03*
%TO.P,U1,18*%
X120661200Y-89722000D03*
%TO.P,U1,19*%
%TO.N,VCC*%
X123391700Y-90992000D03*
%TO.P,U1,20*%
X120661200Y-90992000D03*
%TO.P,U1,21*%
%TO.N,DGND*%
X142385300Y-95565000D03*
%TO.P,U1,22*%
X139654800Y-95565000D03*
%TO.P,U1,23*%
%TO.N,/RST*%
X142385300Y-96835000D03*
%TO.P,U1,24*%
%TO.N,/GPIO*%
X139654800Y-96835000D03*
%TO.P,U1,25*%
%TO.N,Net-(U1-Pad25)*%
X142385300Y-98105000D03*
%TO.P,U1,26*%
%TO.N,/TDI*%
X139654800Y-98105000D03*
%TO.P,U1,27*%
%TO.N,/TMS*%
X142385300Y-99375000D03*
%TO.P,U1,28*%
%TO.N,/TCK*%
X139654800Y-99375000D03*
%TO.P,U1,29*%
%TO.N,/SS_N*%
X142385300Y-100645000D03*
%TO.P,U1,30*%
%TO.N,/SS_P*%
X139654800Y-100645000D03*
%TO.P,U1,31*%
%TO.N,/MISO_N*%
X142385300Y-101915000D03*
%TO.P,U1,32*%
%TO.N,/MISO_P*%
X139654800Y-101915000D03*
%TO.P,U1,33*%
%TO.N,/MOSI_N*%
X142385300Y-103185000D03*
%TO.P,U1,34*%
%TO.N,/MOSI_P*%
X139654800Y-103185000D03*
%TO.P,U1,35*%
%TO.N,DGND*%
X142385300Y-104455000D03*
%TO.P,U1,36*%
X139654800Y-104455000D03*
%TO.P,U1,37*%
%TO.N,/CLK_N*%
X142385300Y-105725000D03*
%TO.P,U1,38*%
%TO.N,/CLK_P*%
X139654800Y-105725000D03*
%TO.P,U1,39*%
%TO.N,VCC*%
X142385300Y-106995000D03*
%TO.P,U1,40*%
X139654800Y-106995000D03*
%TD*%
D13*
%TO.P,X6,3*%
%TO.N,/GPIO*%
X204090000Y-143240000D03*
%TO.P,X6,2*%
%TO.N,/RST*%
X199090000Y-143240000D03*
%TO.P,X6,1*%
%TO.N,/PWR_ON*%
X194090000Y-143240000D03*
%TD*%
%TO.P,X5,2*%
%TO.N,/MISO*%
X185990000Y-143220000D03*
%TO.P,X5,1*%
%TO.N,/SS*%
X180990000Y-143220000D03*
%TD*%
%TO.P,X4,2*%
%TO.N,/MOSI*%
X173690000Y-143320000D03*
%TO.P,X4,1*%
%TO.N,/CLK*%
X168690000Y-143320000D03*
%TD*%
%TO.P,X3,2*%
%TO.N,/VIN5V*%
X160890000Y-143520000D03*
%TO.P,X3,1*%
%TO.N,AGND*%
X155890000Y-143520000D03*
%TD*%
%TO.P,X2,2*%
%TO.N,/LED+*%
X148790000Y-143520000D03*
%TO.P,X2,1*%
%TO.N,/LED-*%
X143790000Y-143520000D03*
%TD*%
%TO.P,X1,2*%
%TO.N,/EXT_PICO_GND*%
X136990000Y-143450000D03*
%TO.P,X1,1*%
%TO.N,/EXT_PICO_600V*%
X131990000Y-143450000D03*
%TD*%
D14*
%TO.P,U4,4*%
%TO.N,AGND*%
X181350000Y-98440000D03*
%TO.P,U4,3*%
%TO.N,Net-(U4-Pad3)*%
X181350000Y-95900000D03*
%TO.P,U4,2*%
%TO.N,/NC*%
X181350000Y-93360000D03*
D15*
%TO.P,U4,1*%
%TO.N,VCC*%
X181350000Y-90820000D03*
%TD*%
D16*
%TO.P,U3,16*%
%TO.N,VCC*%
X193963800Y-119325000D03*
%TO.P,U3,15*%
%TO.N,/MISO_N*%
X193963800Y-120595000D03*
%TO.P,U3,14*%
%TO.N,/MISO_P*%
X193963800Y-121865000D03*
%TO.P,U3,13*%
%TO.N,/MISO*%
X193963800Y-123135000D03*
%TO.P,U3,12*%
%TO.N,DGND*%
X193963800Y-124405000D03*
%TO.P,U3,11*%
%TO.N,Net-(U3-Pad11)*%
X193963800Y-125675000D03*
%TO.P,U3,10*%
%TO.N,Net-(U3-Pad10)*%
X193963800Y-126945000D03*
%TO.P,U3,9*%
%TO.N,Net-(U3-Pad9)*%
X193963800Y-128215000D03*
%TO.P,U3,8*%
%TO.N,DGND*%
X189036200Y-128215000D03*
%TO.P,U3,7*%
%TO.N,Net-(U3-Pad7)*%
X189036200Y-126945000D03*
%TO.P,U3,6*%
%TO.N,Net-(U3-Pad6)*%
X189036200Y-125675000D03*
%TO.P,U3,5*%
%TO.N,Net-(U3-Pad5)*%
X189036200Y-124405000D03*
%TO.P,U3,4*%
%TO.N,Net-(U3-Pad4)*%
X189036200Y-123135000D03*
%TO.P,U3,3*%
%TO.N,Net-(U3-Pad3)*%
X189036200Y-121865000D03*
%TO.P,U3,2*%
%TO.N,Net-(U3-Pad2)*%
X189036200Y-120595000D03*
%TO.P,U3,1*%
%TO.N,Net-(U3-Pad1)*%
X189036200Y-119325000D03*
%TD*%
%TO.P,U2,16*%
%TO.N,VCC*%
X167183800Y-81765000D03*
%TO.P,U2,15*%
%TO.N,/MOSI*%
X167183800Y-83035000D03*
%TO.P,U2,14*%
%TO.N,/MOSI_P*%
X167183800Y-84305000D03*
%TO.P,U2,13*%
%TO.N,/MOSI_N*%
X167183800Y-85575000D03*
%TO.P,U2,12*%
%TO.N,Net-(U2-Pad12)*%
X167183800Y-86845000D03*
%TO.P,U2,11*%
%TO.N,/SS_N*%
X167183800Y-88115000D03*
%TO.P,U2,10*%
%TO.N,/SS_P*%
X167183800Y-89385000D03*
%TO.P,U2,9*%
%TO.N,/SS*%
X167183800Y-90655000D03*
%TO.P,U2,8*%
%TO.N,DGND*%
X162256200Y-90655000D03*
%TO.P,U2,7*%
%TO.N,Net-(U2-Pad7)*%
X162256200Y-89385000D03*
%TO.P,U2,6*%
%TO.N,Net-(U2-Pad6)*%
X162256200Y-88115000D03*
%TO.P,U2,5*%
%TO.N,Net-(U2-Pad5)*%
X162256200Y-86845000D03*
%TO.P,U2,4*%
%TO.N,VCC*%
X162256200Y-85575000D03*
%TO.P,U2,3*%
%TO.N,/CLK_N*%
X162256200Y-84305000D03*
%TO.P,U2,2*%
%TO.N,/CLK_P*%
X162256200Y-83035000D03*
%TO.P,U2,1*%
%TO.N,/CLK*%
X162256200Y-81765000D03*
%TD*%
D17*
%TO.P,R21,1*%
%TO.N,/AVFE*%
X180590000Y-116474000D03*
%TO.P,R21,2*%
%TO.N,Net-(C13-Pad1)*%
X180590000Y-113630000D03*
%TD*%
%TO.P,R18,1*%
%TO.N,/MISO_P*%
X142000000Y-127094000D03*
%TO.P,R18,2*%
%TO.N,VCC*%
X142000000Y-124250000D03*
%TD*%
%TO.P,R17,1*%
%TO.N,/MISO_N*%
X197720000Y-124668000D03*
%TO.P,R17,2*%
%TO.N,DGND*%
X197720000Y-127512000D03*
%TD*%
%TO.P,R16,1*%
%TO.N,/TDI*%
X163680000Y-106500000D03*
%TO.P,R16,2*%
%TO.N,VCC*%
X163680000Y-109344000D03*
%TD*%
%TO.P,R15,1*%
%TO.N,/TMS*%
X157480000Y-106680000D03*
%TO.P,R15,2*%
%TO.N,VCC*%
X157480000Y-109524000D03*
%TD*%
%TO.P,R14,1*%
%TO.N,/TCK*%
X166350000Y-106500000D03*
%TO.P,R14,2*%
%TO.N,VCC*%
X166350000Y-109344000D03*
%TD*%
%TO.P,R13,1*%
%TO.N,DGND*%
X174740000Y-106380000D03*
%TO.P,R13,2*%
%TO.N,/SS_N*%
X174740000Y-109224000D03*
%TD*%
%TO.P,R12,1*%
%TO.N,VCC*%
X169160000Y-109374000D03*
%TO.P,R12,2*%
%TO.N,/SS_P*%
X169160000Y-106530000D03*
%TD*%
%TO.P,R11,1*%
%TO.N,AGND*%
X148390000Y-119650000D03*
%TO.P,R11,2*%
%TO.N,/LED-*%
X148390000Y-122494000D03*
%TD*%
%TO.P,R10,1*%
%TO.N,VCC*%
X152790000Y-119650000D03*
%TO.P,R10,2*%
%TO.N,/LED+*%
X152790000Y-122494000D03*
%TD*%
%TO.P,R9,1*%
%TO.N,/RST*%
X160810000Y-106620000D03*
%TO.P,R9,2*%
%TO.N,VCC*%
X160810000Y-109464000D03*
%TD*%
%TO.P,R4,1*%
%TO.N,/MISO_N*%
X144930000Y-124138000D03*
%TO.P,R4,2*%
%TO.N,/MISO_P*%
X144930000Y-126982000D03*
%TD*%
%TO.P,R3,1*%
%TO.N,/MOSI_N*%
X171360000Y-86664000D03*
%TO.P,R3,2*%
%TO.N,/MOSI_P*%
X171360000Y-83820000D03*
%TD*%
%TO.P,R2,1*%
%TO.N,/SS_P*%
X171920000Y-106428000D03*
%TO.P,R2,2*%
%TO.N,/SS_N*%
X171920000Y-109272000D03*
%TD*%
%TO.P,R1,1*%
%TO.N,/CLK_P*%
X159290000Y-89612000D03*
%TO.P,R1,2*%
%TO.N,/CLK_N*%
X159290000Y-86768000D03*
%TD*%
D18*
%TO.P,IC2,4*%
%TO.N,/AVFE*%
X169810000Y-117660000D03*
D19*
%TO.P,IC2,3*%
%TO.N,VCC*%
X172110000Y-123960000D03*
%TO.P,IC2,2*%
%TO.N,N/C*%
X169810000Y-123960000D03*
%TO.P,IC2,1*%
%TO.N,AGND*%
X167510000Y-123960000D03*
%TD*%
D18*
%TO.P,IC1,4*%
%TO.N,VCC*%
X160590000Y-117800000D03*
D19*
%TO.P,IC1,3*%
%TO.N,/VIN5V*%
X162890000Y-124100000D03*
%TO.P,IC1,2*%
%TO.N,N/C*%
X160590000Y-124100000D03*
%TO.P,IC1,1*%
%TO.N,AGND*%
X158290000Y-124100000D03*
%TD*%
D20*
%TO.P,C14,2*%
%TO.N,AGND*%
X180570000Y-102880000D03*
%TO.P,C14,1*%
%TO.N,Net-(C13-Pad2)*%
X180570000Y-104880000D03*
%TD*%
%TO.P,C13,2*%
%TO.N,Net-(C13-Pad2)*%
X180550000Y-107610000D03*
%TO.P,C13,1*%
%TO.N,Net-(C13-Pad1)*%
X180550000Y-109610000D03*
%TD*%
%TO.P,C12,2*%
%TO.N,AGND*%
X183340000Y-113860000D03*
%TO.P,C12,1*%
%TO.N,/AVFE*%
X183340000Y-115860000D03*
%TD*%
%TO.P,C11,2*%
%TO.N,AGND*%
X186110000Y-113840000D03*
%TO.P,C11,1*%
%TO.N,/AVFE*%
X186110000Y-115840000D03*
%TD*%
%TO.P,C6,2*%
%TO.N,AGND*%
X188850000Y-113880000D03*
%TO.P,C6,1*%
%TO.N,VCC*%
X188850000Y-115880000D03*
%TD*%
%TO.P,C4,2*%
%TO.N,DGND*%
X167700000Y-114360000D03*
%TO.P,C4,1*%
%TO.N,VCC*%
X167700000Y-112360000D03*
%TD*%
%TO.P,C3,2*%
%TO.N,DGND*%
X170180000Y-114320000D03*
%TO.P,C3,1*%
%TO.N,VCC*%
X170180000Y-112320000D03*
%TD*%
%TO.P,C2,2*%
%TO.N,DGND*%
X165280000Y-114370000D03*
%TO.P,C2,1*%
%TO.N,VCC*%
X165280000Y-112370000D03*
%TD*%
D21*
%TO.N,AGND*%
X157480000Y-128270000D03*
X184980000Y-122650000D03*
X192110000Y-114110000D03*
X169510000Y-127250000D03*
%TO.N,VCC*%
X176380000Y-121910000D03*
X142640000Y-130460000D03*
X149273669Y-114251134D03*
X163950052Y-98200755D03*
X160640000Y-114977210D03*
%TO.N,/PWR_ON*%
X162285404Y-75925404D03*
%TO.N,/RST*%
X162010000Y-103850000D03*
X197340000Y-115530000D03*
X204850000Y-124410000D03*
%TO.N,/SS_N*%
X166200000Y-101280000D03*
X172280000Y-112120000D03*
X154920000Y-104170000D03*
X163070000Y-96160000D03*
%TO.N,/MISO_N*%
X145000000Y-121390000D03*
X156646774Y-114945399D03*
X184070000Y-119200000D03*
%TO.N,/MISO_P*%
X145100000Y-130400000D03*
X133817210Y-104346890D03*
X197329596Y-121119596D03*
%TO.N,/MOSI_N*%
X172850000Y-89750000D03*
X156827220Y-112704146D03*
%TO.N,/MOSI_P*%
X132700000Y-107550000D03*
X174522790Y-83990000D03*
%TO.N,/CLK_N*%
X152200000Y-112300000D03*
X158440000Y-84310000D03*
%TO.N,/MOSI*%
X170330000Y-80570000D03*
%TO.N,/SS*%
X179290000Y-86310000D03*
X173200000Y-92820000D03*
X170035427Y-93379625D03*
%TO.N,/CLK*%
X162190000Y-79232788D03*
%TO.N,/MISO*%
X191340000Y-130900000D03*
%TO.N,/LED-*%
X149050404Y-128510404D03*
%TO.N,/LED+*%
X151079596Y-126739596D03*
%TO.N,/VIN5V*%
X164649326Y-129727210D03*
%TO.N,DGND*%
X148720000Y-95140000D03*
X152631387Y-114458660D03*
X167126118Y-94200931D03*
X162248956Y-93135563D03*
%TD*%
D22*
%TO.N,AGND*%
X123391700Y-80832000D02*
X124424162Y-80832000D01*
X124424162Y-84642000D02*
X123391700Y-84642000D01*
X124908000Y-89722000D02*
X123391700Y-89722000D01*
X125730000Y-88900000D02*
X124908000Y-89722000D01*
X125730000Y-85947838D02*
X125730000Y-88900000D01*
X120661200Y-89722000D02*
X123391700Y-89722000D01*
X147016738Y-119650000D02*
X148390000Y-119650000D01*
X120661200Y-89722000D02*
X119628738Y-89722000D01*
X148590000Y-119450000D02*
X148390000Y-119650000D01*
X188830000Y-113860000D02*
X188850000Y-113880000D01*
X183340000Y-113860000D02*
X188830000Y-113860000D01*
X188850000Y-109750400D02*
X188850000Y-113880000D01*
X181979600Y-102880000D02*
X188850000Y-109750400D01*
X180570000Y-102880000D02*
X181979600Y-102880000D01*
X188850000Y-113880000D02*
X189122962Y-113880000D01*
X181960000Y-125670000D02*
X184980000Y-122650000D01*
X176900000Y-125670000D02*
X181960000Y-125670000D01*
X177242962Y-125670000D02*
X176900000Y-125670000D01*
X189080000Y-114110000D02*
X188850000Y-113880000D01*
X192110000Y-114110000D02*
X189080000Y-114110000D01*
X167510000Y-125569600D02*
X167510000Y-123960000D01*
X167610400Y-125670000D02*
X167510000Y-125569600D01*
X181350000Y-102100000D02*
X180570000Y-102880000D01*
X181350000Y-98440000D02*
X181350000Y-102100000D01*
X146878900Y-119650000D02*
X148390000Y-119650000D01*
X120661200Y-89722000D02*
X118940400Y-89722000D01*
X118940400Y-89722000D02*
X118110000Y-90552400D01*
X118110000Y-90552400D02*
X118110000Y-93980000D01*
X129678776Y-105548776D02*
X129678776Y-108840728D01*
X118110000Y-93980000D02*
X129678776Y-105548776D01*
X129678776Y-108840728D02*
X140488048Y-119650000D01*
X157480000Y-124910000D02*
X158290000Y-124100000D01*
X169510000Y-125750000D02*
X169590000Y-125670000D01*
X169510000Y-127250000D02*
X169510000Y-125750000D01*
X169590000Y-125670000D02*
X167610400Y-125670000D01*
X176900000Y-125670000D02*
X169590000Y-125670000D01*
X157480000Y-128270000D02*
X157480000Y-126490000D01*
X157480000Y-126490000D02*
X157480000Y-124910000D01*
X157480000Y-126490000D02*
X153390000Y-126490000D01*
X153390000Y-126490000D02*
X149650000Y-130230000D01*
X149650000Y-130230000D02*
X148220000Y-130230000D01*
X148220000Y-130230000D02*
X146690000Y-128700000D01*
X146690000Y-119750000D02*
X146590000Y-119650000D01*
X146690000Y-128700000D02*
X146690000Y-119750000D01*
X146590000Y-119650000D02*
X146878900Y-119650000D01*
X140488048Y-119650000D02*
X146590000Y-119650000D01*
X123391700Y-80832000D02*
X125842000Y-80832000D01*
X125522000Y-84642000D02*
X125730000Y-84850000D01*
X123391700Y-84642000D02*
X125522000Y-84642000D01*
X125730000Y-84850000D02*
X125730000Y-85947838D01*
X125730000Y-80944000D02*
X125730000Y-84850000D01*
X120661200Y-80832000D02*
X123391700Y-80832000D01*
X120661200Y-84642000D02*
X123391700Y-84642000D01*
D23*
%TO.N,VCC*%
X160590000Y-117800000D02*
X160590000Y-117540000D01*
D22*
X152790000Y-119650000D02*
X152790000Y-116450000D01*
X152790000Y-116450000D02*
X153670000Y-115570000D01*
X120661200Y-90992000D02*
X123391700Y-90992000D01*
X123391700Y-90992000D02*
X125282000Y-90992000D01*
X125282000Y-90992000D02*
X125730000Y-91440000D01*
X125730000Y-91440000D02*
X125730000Y-96520000D01*
X125730000Y-96520000D02*
X125730000Y-97226395D01*
X135575000Y-106995000D02*
X142385300Y-106995000D01*
X135498605Y-106995000D02*
X135575000Y-106995000D01*
X159400000Y-116610000D02*
X160590000Y-117800000D01*
X169010000Y-109524000D02*
X169160000Y-109374000D01*
X157480000Y-109524000D02*
X169010000Y-109524000D01*
X166350000Y-111010000D02*
X167700000Y-112360000D01*
X166350000Y-109344000D02*
X166350000Y-111010000D01*
X170140000Y-112360000D02*
X170180000Y-112320000D01*
X167700000Y-112360000D02*
X170140000Y-112360000D01*
X167690000Y-112370000D02*
X167700000Y-112360000D01*
X165280000Y-112370000D02*
X167690000Y-112370000D01*
X167183800Y-81765000D02*
X165655000Y-81765000D01*
X165655000Y-81765000D02*
X165330000Y-82090000D01*
X165330000Y-82090000D02*
X165330000Y-85630000D01*
X162311200Y-85630000D02*
X162256200Y-85575000D01*
X172270000Y-123800000D02*
X172110000Y-123960000D01*
X165330000Y-85630000D02*
X164050000Y-85630000D01*
X164050000Y-85630000D02*
X162311200Y-85630000D01*
X125730000Y-99904306D02*
X130440787Y-104615093D01*
X130440787Y-108525093D02*
X131684907Y-109769213D01*
X130440787Y-104615093D02*
X130440787Y-108525093D01*
X131684907Y-109769213D02*
X133715093Y-109769213D01*
X135575000Y-107909306D02*
X135575000Y-106995000D01*
X133715093Y-109769213D02*
X135575000Y-107909306D01*
X125730000Y-96520000D02*
X125730000Y-99904306D01*
X176380000Y-123660000D02*
X176520000Y-123800000D01*
X176380000Y-121910000D02*
X176380000Y-123660000D01*
X176520000Y-123800000D02*
X172270000Y-123800000D01*
X140240000Y-124250000D02*
X142000000Y-124250000D01*
X140060000Y-124430000D02*
X140240000Y-124250000D01*
X140060000Y-127880000D02*
X140060000Y-124430000D01*
X142640000Y-130460000D02*
X140060000Y-127880000D01*
X142385300Y-106995000D02*
X144115300Y-108725000D01*
X144115300Y-108725000D02*
X146825000Y-108725000D01*
X154710000Y-116610000D02*
X159400000Y-116610000D01*
X153670000Y-115570000D02*
X154710000Y-116610000D01*
X146825000Y-108725000D02*
X146825000Y-110414682D01*
X146825000Y-108725000D02*
X146825000Y-111802465D01*
X148273670Y-113251135D02*
X149273669Y-114251134D01*
X146825000Y-111802465D02*
X148273670Y-113251135D01*
X188850000Y-115880000D02*
X190518800Y-115880000D01*
X190518800Y-115880000D02*
X193963800Y-119325000D01*
X161612799Y-97277715D02*
X162535839Y-98200755D01*
X163769999Y-93733343D02*
X162800543Y-94702799D01*
X162370543Y-94702799D02*
X161612799Y-95460543D01*
X162800543Y-94702799D02*
X162370543Y-94702799D01*
X164050000Y-85630000D02*
X163769999Y-85910001D01*
X163769999Y-85910001D02*
X163769999Y-93733343D01*
X161612799Y-95460543D02*
X161612799Y-97277715D01*
X162535839Y-98200755D02*
X163950052Y-98200755D01*
X151472535Y-116450000D02*
X149273669Y-114251134D01*
X152790000Y-116450000D02*
X151472535Y-116450000D01*
X193963800Y-103433800D02*
X193963800Y-119325000D01*
X181350000Y-90820000D02*
X193963800Y-103433800D01*
X158991100Y-109524000D02*
X159400000Y-109932900D01*
X157480000Y-109524000D02*
X158991100Y-109524000D01*
X159400000Y-109932900D02*
X159400000Y-116610000D01*
X188850000Y-115880000D02*
X186987202Y-117742798D01*
X186987202Y-117742798D02*
X182577202Y-117742798D01*
X182577202Y-117742798D02*
X176520000Y-123800000D01*
X160590000Y-115027210D02*
X160640000Y-114977210D01*
X160590000Y-117800000D02*
X160590000Y-115027210D01*
%TO.N,/AVFE*%
X185750000Y-116200000D02*
X186110000Y-115840000D01*
X132902000Y-79562000D02*
X130868000Y-79562000D01*
X130868000Y-79562000D02*
X123391700Y-79562000D01*
X177460000Y-117660000D02*
X177870000Y-117660000D01*
X169810000Y-117660000D02*
X177460000Y-117660000D01*
X130868000Y-79562000D02*
X153401342Y-79562000D01*
X173579556Y-91362798D02*
X172500542Y-91362798D01*
X176860712Y-106479288D02*
X177700000Y-107318576D01*
X176860712Y-88081642D02*
X173579556Y-91362798D01*
X171742798Y-93479458D02*
X176860712Y-98597372D01*
X177700000Y-107318576D02*
X177700000Y-117420000D01*
X172500542Y-91362798D02*
X171742798Y-92120542D01*
X176860712Y-81760712D02*
X176860712Y-88081642D01*
X153401342Y-79562000D02*
X155187756Y-77775586D01*
X172875586Y-77775586D02*
X176860712Y-81760712D01*
X155187756Y-77775586D02*
X172875586Y-77775586D01*
X171742798Y-92120542D02*
X171742798Y-93479458D01*
X176860712Y-98597372D02*
X176860712Y-106479288D01*
X177700000Y-117420000D02*
X177460000Y-117660000D01*
X186090000Y-115860000D02*
X186110000Y-115840000D01*
X183340000Y-115860000D02*
X186090000Y-115860000D01*
X120661200Y-79562000D02*
X123391700Y-79562000D01*
X177700000Y-117420000D02*
X177990000Y-117420000D01*
X178936000Y-116474000D02*
X180590000Y-116474000D01*
X177990000Y-117420000D02*
X178936000Y-116474000D01*
X180590000Y-116474000D02*
X181516000Y-116474000D01*
X182130000Y-115860000D02*
X183340000Y-115860000D01*
X181516000Y-116474000D02*
X182130000Y-115860000D01*
%TO.N,/PWR_ON*%
X120661200Y-87182000D02*
X118940400Y-87182000D01*
X116840000Y-74930000D02*
X116844595Y-74925405D01*
X116844595Y-74925405D02*
X161285405Y-74925405D01*
X161285405Y-74925405D02*
X162285404Y-75925404D01*
X116840000Y-85081600D02*
X116840000Y-74930000D01*
X118940400Y-87182000D02*
X116840000Y-85081600D01*
%TO.N,/RST*%
X151025000Y-96835000D02*
X142385300Y-96835000D01*
X160810000Y-106620000D02*
X151025000Y-96835000D01*
X160810000Y-105050000D02*
X162010000Y-103850000D01*
X160810000Y-106620000D02*
X160810000Y-105050000D01*
X204850000Y-123040000D02*
X204850000Y-124410000D01*
X197340000Y-115530000D02*
X204850000Y-123040000D01*
%TO.N,/SS_N*%
X174692000Y-109272000D02*
X174740000Y-109224000D01*
X171920000Y-109272000D02*
X174692000Y-109272000D01*
X172280000Y-109632000D02*
X171920000Y-109272000D01*
X172280000Y-112120000D02*
X172280000Y-109632000D01*
X142385300Y-100645000D02*
X151395000Y-100645000D01*
X151395000Y-100645000D02*
X154920000Y-104170000D01*
X166200000Y-98322765D02*
X166200000Y-101280000D01*
X164973988Y-92531706D02*
X164540788Y-92964906D01*
X164973988Y-88724612D02*
X164973988Y-92531706D01*
X167183800Y-88115000D02*
X165583600Y-88115000D01*
X164540788Y-96663553D02*
X166200000Y-98322765D01*
X165583600Y-88115000D02*
X164973988Y-88724612D01*
X163500788Y-95729212D02*
X164540788Y-95729212D01*
X163070000Y-96160000D02*
X163500788Y-95729212D01*
X164540788Y-95729212D02*
X164540788Y-96663553D01*
X164540788Y-92964906D02*
X164540788Y-95729212D01*
%TO.N,/SS_P*%
X169160000Y-106530000D02*
X169160000Y-106440000D01*
X169160000Y-106440000D02*
X152290000Y-89570000D01*
X152290000Y-89570000D02*
X138090000Y-89570000D01*
X136562378Y-91097623D02*
X136562378Y-99402378D01*
X138090000Y-89570000D02*
X136562378Y-91097623D01*
X137805000Y-100645000D02*
X139654800Y-100645000D01*
X136562378Y-99402378D02*
X137805000Y-100645000D01*
X171818000Y-106530000D02*
X171920000Y-106428000D01*
X169160000Y-106530000D02*
X171818000Y-106530000D01*
X165807201Y-94820543D02*
X165807201Y-95260543D01*
X165735999Y-93337341D02*
X165302799Y-93770541D01*
X171920000Y-101373342D02*
X171920000Y-106428000D01*
X165735999Y-90121601D02*
X165735999Y-93337341D01*
X167183800Y-89385000D02*
X166472600Y-89385000D01*
X165807201Y-95260543D02*
X171920000Y-101373342D01*
X165302799Y-93770541D02*
X165302798Y-94316140D01*
X166472600Y-89385000D02*
X165735999Y-90121601D01*
X165302798Y-94316140D02*
X165807201Y-94820543D01*
%TO.N,/MISO_N*%
X144930000Y-121460000D02*
X145000000Y-121390000D01*
X144930000Y-124138000D02*
X144930000Y-121460000D01*
X196630139Y-119662395D02*
X198029053Y-119662395D01*
X199207202Y-120840542D02*
X199207202Y-123180798D01*
X198029053Y-119662395D02*
X199207202Y-120840542D01*
X199207202Y-123180798D02*
X197720000Y-124668000D01*
X195697534Y-120595000D02*
X196630139Y-119662395D01*
X193963800Y-120595000D02*
X195697534Y-120595000D01*
X158538044Y-111753373D02*
X158538044Y-114468342D01*
X158060987Y-114945399D02*
X156646774Y-114945399D01*
X158538044Y-114468342D02*
X158060987Y-114945399D01*
X158440000Y-111655329D02*
X158538044Y-111753373D01*
X193963800Y-120595000D02*
X191355000Y-120595000D01*
X191355000Y-119550838D02*
X190392561Y-118588399D01*
X184681601Y-118588399D02*
X184070000Y-119200000D01*
X191355000Y-120595000D02*
X191355000Y-119550838D01*
X190392561Y-118588399D02*
X184681601Y-118588399D01*
X142385300Y-101915000D02*
X146975000Y-101915000D01*
X146975000Y-101915000D02*
X156306944Y-111246944D01*
X156306944Y-111246944D02*
X158326944Y-111246944D01*
X158326944Y-111246944D02*
X158460000Y-111380000D01*
%TO.N,/MISO_P*%
X144818000Y-127094000D02*
X144930000Y-126982000D01*
X142000000Y-127094000D02*
X144818000Y-127094000D01*
X145100000Y-127152000D02*
X144930000Y-126982000D01*
X145100000Y-130400000D02*
X145100000Y-127152000D01*
X136249100Y-101915000D02*
X133817210Y-104346890D01*
X139654800Y-101915000D02*
X136249100Y-101915000D01*
X196584192Y-121865000D02*
X197329596Y-121119596D01*
X193963800Y-121865000D02*
X196584192Y-121865000D01*
%TO.N,/MOSI_N*%
X167183800Y-85575000D02*
X168755000Y-85575000D01*
X169844000Y-86664000D02*
X171360000Y-86664000D01*
X168755000Y-85575000D02*
X169844000Y-86664000D01*
X172850000Y-89750000D02*
X174210000Y-88390000D01*
X174210000Y-88390000D02*
X174210000Y-86540000D01*
X174086000Y-86664000D02*
X171360000Y-86664000D01*
X174210000Y-86540000D02*
X174086000Y-86664000D01*
X156596500Y-112704146D02*
X156827220Y-112704146D01*
X147077354Y-103185000D02*
X156596500Y-112704146D01*
X142385300Y-103185000D02*
X147077354Y-103185000D01*
%TO.N,/MOSI_P*%
X167183800Y-84305000D02*
X169145000Y-84305000D01*
X169630000Y-83820000D02*
X171360000Y-83820000D01*
X169145000Y-84305000D02*
X169630000Y-83820000D01*
X137065000Y-103185000D02*
X132700000Y-107550000D01*
X139654800Y-103185000D02*
X137065000Y-103185000D01*
X174352790Y-83820000D02*
X174522790Y-83990000D01*
X171360000Y-83820000D02*
X174352790Y-83820000D01*
%TO.N,/CLK_N*%
X159290000Y-85671000D02*
X159290000Y-86768000D01*
X162256200Y-84305000D02*
X160656000Y-84305000D01*
X145625000Y-105725000D02*
X152200000Y-112300000D01*
X142385300Y-105725000D02*
X145625000Y-105725000D01*
X158970000Y-84310000D02*
X159810500Y-85150500D01*
X159810500Y-85150500D02*
X159290000Y-85671000D01*
X158440000Y-84310000D02*
X158970000Y-84310000D01*
X160656000Y-84305000D02*
X159810500Y-85150500D01*
%TO.N,/CLK_P*%
X162256200Y-83035000D02*
X161825000Y-83035000D01*
X157722000Y-89612000D02*
X159290000Y-89612000D01*
X157560000Y-89450000D02*
X157722000Y-89612000D01*
X157560000Y-88440000D02*
X157560000Y-89450000D01*
X137850000Y-88440000D02*
X157560000Y-88440000D01*
X136325636Y-106222010D02*
X135105636Y-106222010D01*
X131202798Y-108169458D02*
X131202798Y-104709736D01*
X135800376Y-100112158D02*
X135800376Y-90489624D01*
X132040542Y-109007202D02*
X131202798Y-108169458D01*
X134157202Y-108249458D02*
X133399458Y-109007202D01*
X133399458Y-109007202D02*
X132040542Y-109007202D01*
X134157202Y-107170444D02*
X134157202Y-108249458D01*
X131202798Y-104709736D02*
X135800376Y-100112158D01*
X135105636Y-106222010D02*
X134157202Y-107170444D01*
X135800376Y-90489624D02*
X137850000Y-88440000D01*
X136822646Y-105725000D02*
X136325636Y-106222010D01*
X139654800Y-105725000D02*
X136822646Y-105725000D01*
X156982799Y-83610543D02*
X156982799Y-87862799D01*
X162256200Y-83035000D02*
X162073999Y-82852799D01*
X157740543Y-82852799D02*
X156982799Y-83610543D01*
X162073999Y-82852799D02*
X157740543Y-82852799D01*
X156982799Y-87862799D02*
X157560000Y-88440000D01*
%TO.N,/MOSI*%
X170330000Y-80570000D02*
X169180000Y-81720000D01*
X169180000Y-81720000D02*
X169180000Y-83020000D01*
X169165000Y-83035000D02*
X167183800Y-83035000D01*
X169180000Y-83020000D02*
X169165000Y-83035000D01*
%TO.N,/SS*%
X179290000Y-86730000D02*
X173200000Y-92820000D01*
X179290000Y-86310000D02*
X179290000Y-86730000D01*
X167183800Y-90655000D02*
X168784000Y-90655000D01*
X170035427Y-91906427D02*
X170035427Y-93379625D01*
X168784000Y-90655000D02*
X170035427Y-91906427D01*
%TO.N,/CLK*%
X162256200Y-79298988D02*
X162190000Y-79232788D01*
X162256200Y-81765000D02*
X162256200Y-79298988D01*
%TO.N,/MISO*%
X193140838Y-123135000D02*
X192995838Y-123280000D01*
X193963800Y-123135000D02*
X193140838Y-123135000D01*
X192995838Y-123280000D02*
X192100000Y-123280000D01*
X192100000Y-128444162D02*
X192130000Y-128474162D01*
X192100000Y-123280000D02*
X192100000Y-128444162D01*
X191340000Y-129204162D02*
X192100000Y-128444162D01*
X191340000Y-130900000D02*
X191340000Y-129204162D01*
%TO.N,/LED-*%
X148390000Y-122494000D02*
X148390000Y-127850000D01*
X148390000Y-127850000D02*
X149050404Y-128510404D01*
%TO.N,/LED+*%
X152790000Y-125029192D02*
X151079596Y-126739596D01*
X152790000Y-122494000D02*
X152790000Y-125029192D01*
%TO.N,/VIN5V*%
X162890000Y-124100000D02*
X162890000Y-127967884D01*
X162890000Y-127967884D02*
X164649326Y-129727210D01*
%TO.N,Net-(C13-Pad2)*%
X180550000Y-104900000D02*
X180570000Y-104880000D01*
X180550000Y-107610000D02*
X180550000Y-104900000D01*
%TO.N,Net-(C13-Pad1)*%
X180550000Y-109610000D02*
X180480000Y-109610000D01*
X180590000Y-109650000D02*
X180550000Y-109610000D01*
X180590000Y-113630000D02*
X180590000Y-109650000D01*
%TO.N,/TCK*%
X137934000Y-99375000D02*
X139654800Y-99375000D01*
X137324389Y-98765389D02*
X137934000Y-99375000D01*
X163025093Y-101630787D02*
X162890387Y-101630787D01*
X137324389Y-91413257D02*
X137324389Y-98765389D01*
X166350000Y-106500000D02*
X166350000Y-104955694D01*
X138227646Y-90510000D02*
X137324389Y-91413257D01*
X162890387Y-101630787D02*
X151769600Y-90510000D01*
X166350000Y-104955694D02*
X163025093Y-101630787D01*
X151769600Y-90510000D02*
X138227646Y-90510000D01*
%TO.N,/TMS*%
X157480000Y-106680000D02*
X157480000Y-104573340D01*
X157480000Y-104573340D02*
X152281660Y-99375000D01*
X152281660Y-99375000D02*
X142385300Y-99375000D01*
%TO.N,/TDI*%
X138086400Y-98105000D02*
X139654800Y-98105000D01*
X163680000Y-106500000D02*
X163680000Y-103363340D01*
X138086400Y-91790000D02*
X138086400Y-98105000D01*
X162709458Y-102392798D02*
X158372798Y-102392798D01*
X147770000Y-91790000D02*
X138086400Y-91790000D01*
X163680000Y-103363340D02*
X162709458Y-102392798D01*
X158372798Y-102392798D02*
X147770000Y-91790000D01*
X163680000Y-106500000D02*
X162168701Y-106500000D01*
%TO.N,DGND*%
X139654800Y-95565000D02*
X142385300Y-95565000D01*
X167700000Y-114360000D02*
X167700000Y-114710000D01*
X170130000Y-114370000D02*
X170180000Y-114320000D01*
X165280000Y-114370000D02*
X170130000Y-114370000D01*
X194786762Y-124405000D02*
X195790000Y-125408238D01*
X193963800Y-124405000D02*
X194786762Y-124405000D01*
X195790000Y-125408238D02*
X195790000Y-127260000D01*
X196042000Y-127512000D02*
X197720000Y-127512000D01*
X195790000Y-127260000D02*
X196042000Y-127512000D01*
X142385300Y-104455000D02*
X139654800Y-104455000D01*
X148295000Y-95565000D02*
X148720000Y-95140000D01*
X142385300Y-95565000D02*
X148295000Y-95565000D01*
X174740000Y-106380000D02*
X176840000Y-108480000D01*
X176840000Y-108480000D02*
X176840000Y-110070000D01*
X176840000Y-110070000D02*
X172590000Y-114320000D01*
X172590000Y-114320000D02*
X170180000Y-114320000D01*
X189036200Y-128215000D02*
X185085000Y-128215000D01*
X166797201Y-128707201D02*
X165280000Y-127190000D01*
X185085000Y-128215000D02*
X170701658Y-128215000D01*
X170701658Y-128215000D02*
X170209457Y-128707201D01*
X170209457Y-128707201D02*
X166797201Y-128707201D01*
X165280000Y-115629600D02*
X165280000Y-114370000D01*
X165280000Y-127190000D02*
X165280000Y-115629600D01*
X192874799Y-132357201D02*
X189227201Y-132357201D01*
X189227201Y-132357201D02*
X185085000Y-128215000D01*
X192874799Y-132357201D02*
X197720000Y-127512000D01*
X174740000Y-106380000D02*
X174740000Y-101814813D01*
X162256200Y-93128319D02*
X162248956Y-93135563D01*
X174740000Y-101814813D02*
X167126118Y-94200931D01*
X162256200Y-90655000D02*
X162256200Y-93128319D01*
X142385300Y-104455000D02*
X147269708Y-104455000D01*
X154647202Y-112442845D02*
X152631387Y-114458660D01*
X154647202Y-111832494D02*
X154647202Y-112442845D01*
X147269708Y-104455000D02*
X154647202Y-111832494D01*
%TD*%
M02*
