M48
; DRILL file {KiCad (5.1.10)-1} date 08/27/21 15:11:29
; FORMAT={-:-/ absolute / inch / decimal}
; #@! TF.CreationDate,2021-08-27T15:11:29+05:30
; #@! TF.GenerationSoftware,Kicad,Pcbnew,(5.1.10)-1
; #@! TF.FileFunction,Plated,1,2,PTH
FMAT,2
INCH
T1C0.0315
T2C0.0394
T3C0.0470
T4C0.0787
%
G90
G05
T1
X7.1398Y-3.5756
X7.1398Y-3.6756
X7.1398Y-3.7756
X7.1398Y-3.8756
T2
X5.2244Y-4.2343
X5.2684Y-4.1081
X5.6157Y-5.1362
X5.7087Y-4.7791
X5.7126Y-5.1339
X5.8551Y-3.7457
X5.8681Y-5.0595
X5.8769Y-4.4981
X5.948Y-4.9897
X5.9921Y-4.4213
X6.0091Y-4.5062
X6.0992Y-4.1012
X6.1672Y-4.5254
X6.1743Y-4.4372
X6.2Y-5.05
X6.2378Y-3.3193
X6.3244Y-4.5267
X6.3783Y-4.0886
X6.3854Y-3.1194
X6.3878Y-3.6668
X6.3892Y-2.9892
X6.4201Y-3.7858
X6.4547Y-3.8662
X6.4823Y-5.1074
X6.5433Y-3.9874
X6.5798Y-3.7087
X6.6736Y-5.0098
X6.6943Y-3.6764
X6.7059Y-3.172
X6.7827Y-4.4142
X6.8051Y-3.5335
X6.8189Y-3.6543
X6.871Y-3.3067
X6.9441Y-4.7996
X7.0587Y-3.398
X7.2469Y-4.6929
X7.2827Y-4.8287
X7.5331Y-5.1535
X7.5634Y-4.4925
X7.7689Y-4.7685
X7.7693Y-4.5484
X8.065Y-4.898
T3
X5.1965Y-5.6476
X5.3933Y-5.6476
X5.661Y-5.6504
X5.8579Y-5.6504
X6.1374Y-5.6504
X6.3343Y-5.6504
X6.6413Y-5.6425
X6.8382Y-5.6425
X7.1256Y-5.6386
X7.3224Y-5.6386
X7.6413Y-5.6394
X7.8382Y-5.6394
X8.035Y-5.6394
T4
X4.8854Y-4.3122
T0
M30
