%TF.GenerationSoftware,KiCad,Pcbnew,(5.1.9)-1*%
%TF.CreationDate,2021-09-13T10:00:27+00:00*%
%TF.ProjectId,CZTBoardV3,435a5442-6f61-4726-9456-332e6b696361,rev?*%
%TF.SameCoordinates,Original*%
%TF.FileFunction,Copper,L2,Bot*%
%TF.FilePolarity,Positive*%
%FSLAX46Y46*%
G04 Gerber Fmt 4.6, Leading zero omitted, Abs format (unit mm)*
G04 Created by KiCad (PCBNEW (5.1.9)-1) date 2021-09-13 10:00:27*
%MOMM*%
%LPD*%
G01*
G04 APERTURE LIST*
%TA.AperFunction,NonConductor*%
%ADD10C,0.300000*%
%TD*%
%TA.AperFunction,ComponentPad*%
%ADD11C,1.600000*%
%TD*%
%TA.AperFunction,ComponentPad*%
%ADD12O,2.400000X2.400000*%
%TD*%
%TA.AperFunction,ComponentPad*%
%ADD13C,2.400000*%
%TD*%
%TA.AperFunction,ComponentPad*%
%ADD14C,4.000000*%
%TD*%
%TA.AperFunction,ComponentPad*%
%ADD15O,1.790700X3.581400*%
%TD*%
%TA.AperFunction,ComponentPad*%
%ADD16O,3.500000X3.581400*%
%TD*%
%TA.AperFunction,ComponentPad*%
%ADD17C,1.500000*%
%TD*%
%TA.AperFunction,ComponentPad*%
%ADD18R,1.500000X1.500000*%
%TD*%
%TA.AperFunction,ViaPad*%
%ADD19C,2.000000*%
%TD*%
%TA.AperFunction,Conductor*%
%ADD20C,0.609600*%
%TD*%
%TA.AperFunction,Conductor*%
%ADD21C,0.800000*%
%TD*%
G04 APERTURE END LIST*
D10*
X203648571Y-77633571D02*
X203505714Y-77633571D01*
X203362857Y-77705000D01*
X203291428Y-77776428D01*
X203220000Y-77919285D01*
X203148571Y-78205000D01*
X203148571Y-78562142D01*
X203220000Y-78847857D01*
X203291428Y-78990714D01*
X203362857Y-79062142D01*
X203505714Y-79133571D01*
X203648571Y-79133571D01*
X203791428Y-79062142D01*
X203862857Y-78990714D01*
X203934285Y-78847857D01*
X204005714Y-78562142D01*
X204005714Y-78205000D01*
X203934285Y-77919285D01*
X203862857Y-77776428D01*
X203791428Y-77705000D01*
X203648571Y-77633571D01*
X202434285Y-79133571D02*
X202148571Y-79133571D01*
X202005714Y-79062142D01*
X201934285Y-78990714D01*
X201791428Y-78776428D01*
X201720000Y-78490714D01*
X201720000Y-77919285D01*
X201791428Y-77776428D01*
X201862857Y-77705000D01*
X202005714Y-77633571D01*
X202291428Y-77633571D01*
X202434285Y-77705000D01*
X202505714Y-77776428D01*
X202577142Y-77919285D01*
X202577142Y-78276428D01*
X202505714Y-78419285D01*
X202434285Y-78490714D01*
X202291428Y-78562142D01*
X202005714Y-78562142D01*
X201862857Y-78490714D01*
X201791428Y-78419285D01*
X201720000Y-78276428D01*
X200005714Y-77562142D02*
X201291428Y-79490714D01*
X199577142Y-77776428D02*
X199505714Y-77705000D01*
X199362857Y-77633571D01*
X199005714Y-77633571D01*
X198862857Y-77705000D01*
X198791428Y-77776428D01*
X198720000Y-77919285D01*
X198720000Y-78062142D01*
X198791428Y-78276428D01*
X199648571Y-79133571D01*
X198720000Y-79133571D01*
X197791428Y-77633571D02*
X197648571Y-77633571D01*
X197505714Y-77705000D01*
X197434285Y-77776428D01*
X197362857Y-77919285D01*
X197291428Y-78205000D01*
X197291428Y-78562142D01*
X197362857Y-78847857D01*
X197434285Y-78990714D01*
X197505714Y-79062142D01*
X197648571Y-79133571D01*
X197791428Y-79133571D01*
X197934285Y-79062142D01*
X198005714Y-78990714D01*
X198077142Y-78847857D01*
X198148571Y-78562142D01*
X198148571Y-78205000D01*
X198077142Y-77919285D01*
X198005714Y-77776428D01*
X197934285Y-77705000D01*
X197791428Y-77633571D01*
X196720000Y-77776428D02*
X196648571Y-77705000D01*
X196505714Y-77633571D01*
X196148571Y-77633571D01*
X196005714Y-77705000D01*
X195934285Y-77776428D01*
X195862857Y-77919285D01*
X195862857Y-78062142D01*
X195934285Y-78276428D01*
X196791428Y-79133571D01*
X195862857Y-79133571D01*
X194434285Y-79133571D02*
X195291428Y-79133571D01*
X194862857Y-79133571D02*
X194862857Y-77633571D01*
X195005714Y-77847857D01*
X195148571Y-77990714D01*
X195291428Y-78062142D01*
X200327142Y-81255000D02*
X199612857Y-81255000D01*
X200470000Y-81683571D02*
X199970000Y-80183571D01*
X199470000Y-81683571D01*
X198184285Y-80255000D02*
X198327142Y-80183571D01*
X198541428Y-80183571D01*
X198755714Y-80255000D01*
X198898571Y-80397857D01*
X198970000Y-80540714D01*
X199041428Y-80826428D01*
X199041428Y-81040714D01*
X198970000Y-81326428D01*
X198898571Y-81469285D01*
X198755714Y-81612142D01*
X198541428Y-81683571D01*
X198398571Y-81683571D01*
X198184285Y-81612142D01*
X198112857Y-81540714D01*
X198112857Y-81040714D01*
X198398571Y-81040714D01*
D11*
%TO.P,C10,2*%
%TO.N,/HV*%
X125790000Y-125050000D03*
%TO.P,C10,1*%
%TO.N,/EXT_PICO_600V*%
X125790000Y-130050000D03*
%TD*%
D12*
%TO.P,R20,2*%
%TO.N,/HV*%
X132790000Y-119950000D03*
D13*
%TO.P,R20,1*%
%TO.N,/EXT_PICO_GND*%
X132790000Y-132650000D03*
%TD*%
D14*
%TO.P,U1,41*%
%TO.N,/HV*%
X124090000Y-109530000D03*
%TD*%
D15*
%TO.P,X6,3*%
%TO.N,/GPIO*%
X204090000Y-143240000D03*
%TO.P,X6,2*%
%TO.N,/RST*%
X199090000Y-143240000D03*
%TO.P,X6,1*%
%TO.N,/PWR_ON*%
X194090000Y-143240000D03*
%TD*%
%TO.P,X5,2*%
%TO.N,/MISO*%
X185990000Y-143220000D03*
%TO.P,X5,1*%
%TO.N,/SS*%
X180990000Y-143220000D03*
%TD*%
%TO.P,X4,2*%
%TO.N,/MOSI*%
X173690000Y-143320000D03*
%TO.P,X4,1*%
%TO.N,/CLK*%
X168690000Y-143320000D03*
%TD*%
%TO.P,X3,2*%
%TO.N,/VIN5V*%
X160890000Y-143520000D03*
%TO.P,X3,1*%
%TO.N,AGND*%
X155890000Y-143520000D03*
%TD*%
%TO.P,X2,2*%
%TO.N,/LED+*%
X148790000Y-143520000D03*
%TO.P,X2,1*%
%TO.N,/LED-*%
X143790000Y-143520000D03*
%TD*%
D16*
%TO.P,X1,2*%
%TO.N,/EXT_PICO_GND*%
X136990000Y-143450000D03*
%TO.P,X1,1*%
%TO.N,/EXT_PICO_600V*%
X131990000Y-143450000D03*
%TD*%
D17*
%TO.P,U4,4*%
%TO.N,AGND*%
X181350000Y-98440000D03*
%TO.P,U4,3*%
%TO.N,Net-(U4-Pad3)*%
X181350000Y-95900000D03*
%TO.P,U4,2*%
%TO.N,/NC*%
X181350000Y-93360000D03*
D18*
%TO.P,U4,1*%
%TO.N,VCC*%
X181350000Y-90820000D03*
%TD*%
D19*
%TO.N,AGND*%
X157480000Y-128270000D03*
X184980000Y-122650000D03*
X192110000Y-114110000D03*
X169510000Y-127250000D03*
%TO.N,VCC*%
X176380000Y-121910000D03*
X142640000Y-130460000D03*
X149273669Y-114251134D03*
X163950052Y-98200755D03*
X160640000Y-114977210D03*
%TO.N,/PWR_ON*%
X162285404Y-75925404D03*
%TO.N,/RST*%
X162010000Y-103850000D03*
X197340000Y-115530000D03*
X204850000Y-124410000D03*
%TO.N,/SS_N*%
X166200000Y-101280000D03*
X172280000Y-112120000D03*
X154920000Y-104170000D03*
X163070000Y-96160000D03*
%TO.N,/MISO_N*%
X145000000Y-121390000D03*
X156646774Y-114945399D03*
X184070000Y-119200000D03*
%TO.N,/MISO_P*%
X145100000Y-130400000D03*
X133817210Y-104346890D03*
X197329596Y-121119596D03*
%TO.N,/MOSI_N*%
X172850000Y-89750000D03*
X156827220Y-112704146D03*
%TO.N,/MOSI_P*%
X132700000Y-107550000D03*
X174522790Y-83990000D03*
%TO.N,/CLK_N*%
X152200000Y-112300000D03*
X158440000Y-84310000D03*
%TO.N,/MOSI*%
X170330000Y-80570000D03*
%TO.N,/SS*%
X179290000Y-86310000D03*
X173200000Y-92820000D03*
X170035427Y-93379625D03*
%TO.N,/CLK*%
X162190000Y-79232788D03*
%TO.N,/MISO*%
X191340000Y-130900000D03*
%TO.N,/LED-*%
X149050404Y-128510404D03*
%TO.N,/LED+*%
X151079596Y-126739596D03*
%TO.N,/VIN5V*%
X164649326Y-129727210D03*
%TO.N,DGND*%
X148720000Y-95140000D03*
X152631387Y-114458660D03*
X167126118Y-94200931D03*
X156760397Y-91979603D03*
%TD*%
D20*
%TO.N,AGND*%
X155890000Y-143520000D02*
X155890000Y-129860000D01*
X155890000Y-129860000D02*
X157480000Y-128270000D01*
X184980000Y-122650000D02*
X184980000Y-121020000D01*
X184980000Y-121020000D02*
X188610000Y-117390000D01*
X188610000Y-117390000D02*
X192130000Y-117390000D01*
X192130000Y-117390000D02*
X192110000Y-117370000D01*
X192110000Y-117370000D02*
X192110000Y-114110000D01*
X157480000Y-128270000D02*
X168490000Y-128270000D01*
X168490000Y-128270000D02*
X169510000Y-127250000D01*
%TO.N,VCC*%
X154419211Y-114827496D02*
X154419211Y-107107447D01*
X149273669Y-114251134D02*
X150938397Y-115915862D01*
X150938397Y-115915862D02*
X153330845Y-115915862D01*
X154419211Y-107107447D02*
X163325903Y-98200755D01*
X153330845Y-115915862D02*
X154419211Y-114827496D01*
X163325903Y-98200755D02*
X163950052Y-98200755D01*
X176380000Y-121910000D02*
X167572790Y-121910000D01*
X167572790Y-121910000D02*
X160640000Y-114977210D01*
X156697400Y-116402600D02*
X159214610Y-116402600D01*
X160590000Y-114550000D02*
X160640000Y-114600000D01*
X142640000Y-130460000D02*
X156697400Y-116402600D01*
X159214610Y-116402600D02*
X160640000Y-114977210D01*
X160640000Y-114600000D02*
X160640000Y-114977210D01*
D21*
%TO.N,/HV*%
X125590000Y-111030000D02*
X124090000Y-109530000D01*
X132790000Y-119950000D02*
X125790000Y-119950000D01*
X125590000Y-119750000D02*
X125590000Y-111030000D01*
X125790000Y-119950000D02*
X125590000Y-119750000D01*
X125790000Y-125050000D02*
X125790000Y-119950000D01*
D20*
%TO.N,/PWR_ON*%
X203560000Y-123543342D02*
X203560000Y-106850000D01*
X194090000Y-143240000D02*
X194090000Y-133013342D01*
X194090000Y-133013342D02*
X203560000Y-123543342D01*
X203560000Y-106850000D02*
X172635404Y-75925404D01*
X172635404Y-75925404D02*
X162285404Y-75925404D01*
%TO.N,/RST*%
X199090000Y-143240000D02*
X199090000Y-130170000D01*
X199090000Y-130170000D02*
X204850000Y-124410000D01*
X165737910Y-99647201D02*
X181457201Y-99647201D01*
X162010000Y-103850000D02*
X162010000Y-103375111D01*
X181457201Y-99647201D02*
X197340000Y-115530000D01*
X162010000Y-103375111D02*
X165737910Y-99647201D01*
%TO.N,/SS_N*%
X166200000Y-101280000D02*
X166200000Y-106040000D01*
X166200000Y-106040000D02*
X172280000Y-112120000D01*
X154920000Y-104170000D02*
X161060000Y-98030000D01*
X161200000Y-98030000D02*
X163070000Y-96160000D01*
X161060000Y-98030000D02*
X161200000Y-98030000D01*
%TO.N,/MISO_N*%
X150202173Y-121390000D02*
X156646774Y-114945399D01*
X145000000Y-121390000D02*
X150202173Y-121390000D01*
X184070000Y-119200000D02*
X168020000Y-119200000D01*
X158072173Y-113520000D02*
X156646774Y-114945399D01*
X162340000Y-113520000D02*
X158072173Y-113520000D01*
X168020000Y-119200000D02*
X162340000Y-113520000D01*
%TO.N,/MISO_P*%
X145100000Y-130400000D02*
X143582798Y-131917202D01*
X140070542Y-131917202D02*
X138782798Y-130629458D01*
X143582798Y-131917202D02*
X140070542Y-131917202D01*
X138782798Y-130629458D02*
X138782798Y-109312478D01*
X134817209Y-105346889D02*
X133817210Y-104346890D01*
X138782798Y-109312478D02*
X134817209Y-105346889D01*
X192378567Y-124656412D02*
X195915383Y-121119596D01*
X145100000Y-130400000D02*
X150843588Y-124656412D01*
X195915383Y-121119596D02*
X197329596Y-121119596D01*
X150843588Y-124656412D02*
X192378567Y-124656412D01*
%TO.N,/MOSI_N*%
X172850000Y-89750000D02*
X171313340Y-89750000D01*
X156827220Y-106069438D02*
X156827220Y-112704146D01*
X171313340Y-89750000D02*
X168327201Y-92736139D01*
X168327201Y-93245354D02*
X168583320Y-93501473D01*
X168327201Y-92736139D02*
X168327201Y-93245354D01*
X168583320Y-93501473D02*
X168583320Y-95724145D01*
X163238702Y-99657956D02*
X156827220Y-106069438D01*
X164649509Y-99657956D02*
X163238702Y-99657956D01*
X168583320Y-95724145D02*
X164649509Y-99657956D01*
%TO.N,/MOSI_P*%
X132700000Y-107550000D02*
X132730000Y-107520000D01*
X159099458Y-82167202D02*
X172699992Y-82167202D01*
X173522791Y-82990001D02*
X174522790Y-83990000D01*
X132700000Y-107550000D02*
X131700001Y-106550001D01*
X131700001Y-104307441D02*
X133117753Y-102889689D01*
X172699992Y-82167202D02*
X173522791Y-82990001D01*
X134160311Y-102889689D02*
X154822798Y-82227202D01*
X131700001Y-106550001D02*
X131700001Y-104307441D01*
X133117753Y-102889689D02*
X134160311Y-102889689D01*
X154822798Y-82227202D02*
X159039458Y-82227202D01*
X159039458Y-82227202D02*
X159099458Y-82167202D01*
%TO.N,/CLK_N*%
X146880000Y-94455787D02*
X157025787Y-84310000D01*
X152200000Y-112300000D02*
X146880000Y-106980000D01*
X157025787Y-84310000D02*
X158440000Y-84310000D01*
X146880000Y-106980000D02*
X146880000Y-94455787D01*
%TO.N,/MOSI*%
X173690000Y-143320000D02*
X173690000Y-138990000D01*
X159960000Y-79377466D02*
X159960000Y-79890000D01*
X161954861Y-77382605D02*
X159960000Y-79377466D01*
X170210000Y-80690000D02*
X170330000Y-80570000D01*
X173690000Y-138990000D02*
X184910000Y-127770000D01*
X200870000Y-113070000D02*
X182367201Y-94567201D01*
X177310000Y-81920000D02*
X172772605Y-77382605D01*
X160760000Y-80690000D02*
X170210000Y-80690000D01*
X172772605Y-77382605D02*
X161954861Y-77382605D01*
X180770543Y-94567201D02*
X177310000Y-91106658D01*
X177310000Y-91106658D02*
X177310000Y-81920000D01*
X159960000Y-79890000D02*
X160760000Y-80690000D01*
X195340000Y-127770000D02*
X200870000Y-122240000D01*
X200870000Y-122240000D02*
X200870000Y-113070000D01*
X184910000Y-127770000D02*
X195340000Y-127770000D01*
X182367201Y-94567201D02*
X180770543Y-94567201D01*
%TO.N,/SS*%
X180990000Y-143220000D02*
X180990000Y-135360000D01*
X186990000Y-129360000D02*
X195970000Y-129360000D01*
X202400000Y-109420000D02*
X179290000Y-86310000D01*
X180990000Y-135360000D02*
X186990000Y-129360000D01*
X195970000Y-129360000D02*
X202400000Y-122930000D01*
X202400000Y-122930000D02*
X202400000Y-109420000D01*
X170595052Y-92820000D02*
X170035427Y-93379625D01*
X173200000Y-92820000D02*
X170595052Y-92820000D01*
%TO.N,/CLK*%
X175980000Y-92316658D02*
X175980000Y-82982404D01*
X168690000Y-140919700D02*
X183739700Y-125870000D01*
X193574143Y-125870000D02*
X196474143Y-122970000D01*
X171230385Y-78232789D02*
X163189999Y-78232789D01*
X196474143Y-122970000D02*
X198140000Y-122970000D01*
X199040000Y-122070000D02*
X199040000Y-114343342D01*
X181929457Y-97232799D02*
X180896141Y-97232799D01*
X163189999Y-78232789D02*
X162190000Y-79232788D01*
X180896141Y-97232799D02*
X175980000Y-92316658D01*
X175980000Y-82982404D02*
X171230385Y-78232789D01*
X199040000Y-114343342D02*
X181929457Y-97232799D01*
X183739700Y-125870000D02*
X193574143Y-125870000D01*
X168690000Y-143320000D02*
X168690000Y-140919700D01*
X198140000Y-122970000D02*
X199040000Y-122070000D01*
%TO.N,/MISO*%
X185990000Y-136250000D02*
X191340000Y-130900000D01*
X185990000Y-143220000D02*
X185990000Y-136250000D01*
%TO.N,/LED-*%
X143790000Y-143520000D02*
X143790000Y-133770808D01*
X143790000Y-133770808D02*
X149050404Y-128510404D01*
%TO.N,/LED+*%
X148790000Y-143520000D02*
X148790000Y-131580000D01*
X151079596Y-129290404D02*
X151079596Y-126739596D01*
X148790000Y-131580000D02*
X151079596Y-129290404D01*
%TO.N,/VIN5V*%
X160890000Y-133486536D02*
X164649326Y-129727210D01*
X160890000Y-143520000D02*
X160890000Y-133486536D01*
D21*
%TO.N,/EXT_PICO_600V*%
X131990000Y-143450000D02*
X131990000Y-138450000D01*
X131990000Y-138450000D02*
X125590000Y-132050000D01*
X125590000Y-130250000D02*
X125790000Y-130050000D01*
X125590000Y-132050000D02*
X125590000Y-130250000D01*
%TO.N,/EXT_PICO_GND*%
X136990000Y-136850000D02*
X132790000Y-132650000D01*
X136990000Y-143450000D02*
X136990000Y-136850000D01*
D20*
%TO.N,DGND*%
X153600000Y-95140000D02*
X156760397Y-91979603D01*
X152742799Y-105869457D02*
X152742799Y-95402799D01*
X153657201Y-106783859D02*
X152742799Y-105869457D01*
X153657201Y-113432846D02*
X153657201Y-106783859D01*
X152631387Y-114458660D02*
X153657201Y-113432846D01*
X152480000Y-95140000D02*
X153600000Y-95140000D01*
X152742799Y-95402799D02*
X152480000Y-95140000D01*
X148720000Y-95140000D02*
X152480000Y-95140000D01*
X158981725Y-94200931D02*
X156760397Y-91979603D01*
X167126118Y-94200931D02*
X158981725Y-94200931D01*
%TD*%
M02*
