%TF.GenerationSoftware,KiCad,Pcbnew,(5.1.9)-1*%
%TF.CreationDate,2021-09-07T19:05:13+00:00*%
%TF.ProjectId,CZTBoardV3,435a5442-6f61-4726-9456-332e6b696361,rev?*%
%TF.SameCoordinates,Original*%
%TF.FileFunction,Legend,Bot*%
%TF.FilePolarity,Positive*%
%FSLAX46Y46*%
G04 Gerber Fmt 4.6, Leading zero omitted, Abs format (unit mm)*
G04 Created by KiCad (PCBNEW (5.1.9)-1) date 2021-09-07 19:05:13*
%MOMM*%
%LPD*%
G01*
G04 APERTURE LIST*
%ADD10C,0.120000*%
%ADD11C,0.096520*%
%ADD12C,0.077216*%
G04 APERTURE END LIST*
D10*
%TO.C,R20*%
X134230000Y-131370000D02*
X134710000Y-131370000D01*
X134710000Y-131370000D02*
X134710000Y-121230000D01*
X134710000Y-121230000D02*
X134230000Y-121230000D01*
X131350000Y-131370000D02*
X130870000Y-131370000D01*
X130870000Y-131370000D02*
X130870000Y-121230000D01*
X130870000Y-121230000D02*
X131350000Y-121230000D01*
%TO.C,C10*%
X127960000Y-131170000D02*
X127960000Y-123730000D01*
X123220000Y-131170000D02*
X123220000Y-123730000D01*
X127960000Y-131170000D02*
X123220000Y-131170000D01*
X127960000Y-123730000D02*
X123220000Y-123730000D01*
%TO.C,R20*%
D11*
X134002547Y-134959428D02*
X133428023Y-134557261D01*
X134002547Y-134269999D02*
X132796047Y-134269999D01*
X132796047Y-134729618D01*
X132853500Y-134844523D01*
X132910952Y-134901976D01*
X133025857Y-134959428D01*
X133198214Y-134959428D01*
X133313119Y-134901976D01*
X133370571Y-134844523D01*
X133428023Y-134729618D01*
X133428023Y-134269999D01*
X132910952Y-135419047D02*
X132853500Y-135476499D01*
X132796047Y-135591404D01*
X132796047Y-135878666D01*
X132853500Y-135993571D01*
X132910952Y-136051023D01*
X133025857Y-136108476D01*
X133140761Y-136108476D01*
X133313119Y-136051023D01*
X134002547Y-135361595D01*
X134002547Y-136108476D01*
X132796047Y-136855357D02*
X132796047Y-136970261D01*
X132853500Y-137085166D01*
X132910952Y-137142618D01*
X133025857Y-137200071D01*
X133255666Y-137257523D01*
X133542928Y-137257523D01*
X133772738Y-137200071D01*
X133887642Y-137142618D01*
X133945095Y-137085166D01*
X134002547Y-136970261D01*
X134002547Y-136855357D01*
X133945095Y-136740452D01*
X133887642Y-136682999D01*
X133772738Y-136625547D01*
X133542928Y-136568095D01*
X133255666Y-136568095D01*
X133025857Y-136625547D01*
X132910952Y-136682999D01*
X132853500Y-136740452D01*
X132796047Y-136855357D01*
%TO.C,C10*%
D12*
X126327114Y-131781542D02*
X126373076Y-131735580D01*
X126419038Y-131597695D01*
X126419038Y-131505771D01*
X126373076Y-131367885D01*
X126281152Y-131275961D01*
X126189228Y-131229999D01*
X126005380Y-131184038D01*
X125867495Y-131184038D01*
X125683647Y-131229999D01*
X125591723Y-131275961D01*
X125499800Y-131367885D01*
X125453838Y-131505771D01*
X125453838Y-131597695D01*
X125499800Y-131735580D01*
X125545761Y-131781542D01*
X126419038Y-132700780D02*
X126419038Y-132149238D01*
X126419038Y-132425009D02*
X125453838Y-132425009D01*
X125591723Y-132333085D01*
X125683647Y-132241161D01*
X125729609Y-132149238D01*
X125453838Y-133298285D02*
X125453838Y-133390209D01*
X125499800Y-133482133D01*
X125545761Y-133528095D01*
X125637685Y-133574057D01*
X125821533Y-133620018D01*
X126051342Y-133620018D01*
X126235190Y-133574057D01*
X126327114Y-133528095D01*
X126373076Y-133482133D01*
X126419038Y-133390209D01*
X126419038Y-133298285D01*
X126373076Y-133206361D01*
X126327114Y-133160399D01*
X126235190Y-133114438D01*
X126051342Y-133068476D01*
X125821533Y-133068476D01*
X125637685Y-133114438D01*
X125545761Y-133160399D01*
X125499800Y-133206361D01*
X125453838Y-133298285D01*
%TD*%
M02*
