%TF.GenerationSoftware,KiCad,Pcbnew,(5.1.9)-1*%
%TF.CreationDate,2021-09-13T10:00:27+00:00*%
%TF.ProjectId,CZTBoardV3,435a5442-6f61-4726-9456-332e6b696361,rev?*%
%TF.SameCoordinates,Original*%
%TF.FileFunction,Paste,Top*%
%TF.FilePolarity,Positive*%
%FSLAX46Y46*%
G04 Gerber Fmt 4.6, Leading zero omitted, Abs format (unit mm)*
G04 Created by KiCad (PCBNEW (5.1.9)-1) date 2021-09-13 10:00:27*
%MOMM*%
%LPD*%
G01*
G04 APERTURE LIST*
%ADD10R,1.600000X1.300000*%
%ADD11R,1.803000X1.600000*%
%ADD12R,2.222400X0.736600*%
%ADD13R,1.981200X0.558800*%
%ADD14R,3.800000X2.000000*%
%ADD15R,1.500000X2.000000*%
G04 APERTURE END LIST*
D10*
%TO.C,C14*%
X180570000Y-102880000D03*
X180570000Y-104880000D03*
%TD*%
%TO.C,C11*%
X186110000Y-113840000D03*
X186110000Y-115840000D03*
%TD*%
%TO.C,C12*%
X183340000Y-113860000D03*
X183340000Y-115860000D03*
%TD*%
%TO.C,C13*%
X180550000Y-107610000D03*
X180550000Y-109610000D03*
%TD*%
%TO.C,C6*%
X188850000Y-113880000D03*
X188850000Y-115880000D03*
%TD*%
%TO.C,C3*%
X170180000Y-114320000D03*
X170180000Y-112320000D03*
%TD*%
%TO.C,C4*%
X167700000Y-114360000D03*
X167700000Y-112360000D03*
%TD*%
%TO.C,C2*%
X165280000Y-114370000D03*
X165280000Y-112370000D03*
%TD*%
D11*
%TO.C,R1*%
X159290000Y-89612000D03*
X159290000Y-86768000D03*
%TD*%
%TO.C,R2*%
X171920000Y-106428000D03*
X171920000Y-109272000D03*
%TD*%
%TO.C,R3*%
X171360000Y-86664000D03*
X171360000Y-83820000D03*
%TD*%
%TO.C,R4*%
X144930000Y-124138000D03*
X144930000Y-126982000D03*
%TD*%
%TO.C,R9*%
X160810000Y-106620000D03*
X160810000Y-109464000D03*
%TD*%
%TO.C,R10*%
X152790000Y-119650000D03*
X152790000Y-122494000D03*
%TD*%
%TO.C,R11*%
X148390000Y-119650000D03*
X148390000Y-122494000D03*
%TD*%
%TO.C,R12*%
X169160000Y-109374000D03*
X169160000Y-106530000D03*
%TD*%
%TO.C,R13*%
X174740000Y-106380000D03*
X174740000Y-109224000D03*
%TD*%
%TO.C,R14*%
X166350000Y-106500000D03*
X166350000Y-109344000D03*
%TD*%
%TO.C,R15*%
X157480000Y-106680000D03*
X157480000Y-109524000D03*
%TD*%
%TO.C,R16*%
X163680000Y-106500000D03*
X163680000Y-109344000D03*
%TD*%
%TO.C,R17*%
X197720000Y-124668000D03*
X197720000Y-127512000D03*
%TD*%
%TO.C,R18*%
X142000000Y-127094000D03*
X142000000Y-124250000D03*
%TD*%
%TO.C,R21*%
X180590000Y-116474000D03*
X180590000Y-113630000D03*
%TD*%
D12*
%TO.C,U1*%
X123391700Y-79562000D03*
X120661200Y-79562000D03*
X123391700Y-80832000D03*
X120661200Y-80832000D03*
X123391700Y-82102000D03*
X120661200Y-82102000D03*
X123391700Y-83372000D03*
X120661200Y-83372000D03*
X123391700Y-84642000D03*
X120661200Y-84642000D03*
X123391700Y-85912000D03*
X120661200Y-85912000D03*
X123391700Y-87182000D03*
X120661200Y-87182000D03*
X123391700Y-88452000D03*
X120661200Y-88452000D03*
X123391700Y-89722000D03*
X120661200Y-89722000D03*
X123391700Y-90992000D03*
X120661200Y-90992000D03*
X142385300Y-95565000D03*
X139654800Y-95565000D03*
X142385300Y-96835000D03*
X139654800Y-96835000D03*
X142385300Y-98105000D03*
X139654800Y-98105000D03*
X142385300Y-99375000D03*
X139654800Y-99375000D03*
X142385300Y-100645000D03*
X139654800Y-100645000D03*
X142385300Y-101915000D03*
X139654800Y-101915000D03*
X142385300Y-103185000D03*
X139654800Y-103185000D03*
X142385300Y-104455000D03*
X139654800Y-104455000D03*
X142385300Y-105725000D03*
X139654800Y-105725000D03*
X142385300Y-106995000D03*
X139654800Y-106995000D03*
%TD*%
D13*
%TO.C,U3*%
X193963800Y-119325000D03*
X193963800Y-120595000D03*
X193963800Y-121865000D03*
X193963800Y-123135000D03*
X193963800Y-124405000D03*
X193963800Y-125675000D03*
X193963800Y-126945000D03*
X193963800Y-128215000D03*
X189036200Y-128215000D03*
X189036200Y-126945000D03*
X189036200Y-125675000D03*
X189036200Y-124405000D03*
X189036200Y-123135000D03*
X189036200Y-121865000D03*
X189036200Y-120595000D03*
X189036200Y-119325000D03*
%TD*%
%TO.C,U2*%
X167183800Y-81765000D03*
X167183800Y-83035000D03*
X167183800Y-84305000D03*
X167183800Y-85575000D03*
X167183800Y-86845000D03*
X167183800Y-88115000D03*
X167183800Y-89385000D03*
X167183800Y-90655000D03*
X162256200Y-90655000D03*
X162256200Y-89385000D03*
X162256200Y-88115000D03*
X162256200Y-86845000D03*
X162256200Y-85575000D03*
X162256200Y-84305000D03*
X162256200Y-83035000D03*
X162256200Y-81765000D03*
%TD*%
D14*
%TO.C,IC2*%
X169810000Y-117660000D03*
D15*
X172110000Y-123960000D03*
X169810000Y-123960000D03*
X167510000Y-123960000D03*
%TD*%
D14*
%TO.C,IC1*%
X160590000Y-117800000D03*
D15*
X162890000Y-124100000D03*
X160590000Y-124100000D03*
X158290000Y-124100000D03*
%TD*%
M02*
