%TF.GenerationSoftware,KiCad,Pcbnew,(5.1.9)-1*%
%TF.CreationDate,2021-09-07T19:05:13+00:00*%
%TF.ProjectId,CZTBoardV3,435a5442-6f61-4726-9456-332e6b696361,rev?*%
%TF.SameCoordinates,Original*%
%TF.FileFunction,Legend,Top*%
%TF.FilePolarity,Positive*%
%FSLAX46Y46*%
G04 Gerber Fmt 4.6, Leading zero omitted, Abs format (unit mm)*
G04 Created by KiCad (PCBNEW (5.1.9)-1) date 2021-09-07 19:05:13*
%MOMM*%
%LPD*%
G01*
G04 APERTURE LIST*
%ADD10C,0.120000*%
%ADD11C,0.127000*%
%ADD12C,0.152400*%
%ADD13C,0.203200*%
%ADD14C,0.096520*%
%ADD15C,0.077216*%
%ADD16C,0.101600*%
%ADD17C,0.150000*%
%ADD18C,0.120650*%
%ADD19C,0.076200*%
G04 APERTURE END LIST*
D10*
%TO.C,C14*%
X178200000Y-105100000D02*
X178200000Y-97660000D01*
X182940000Y-105100000D02*
X182940000Y-97660000D01*
X178200000Y-105100000D02*
X182940000Y-105100000D01*
X178200000Y-97660000D02*
X182940000Y-97660000D01*
%TO.C,C13*%
X178180000Y-109830000D02*
X178180000Y-102390000D01*
X182920000Y-109830000D02*
X182920000Y-102390000D01*
X178180000Y-109830000D02*
X182920000Y-109830000D01*
X178180000Y-102390000D02*
X182920000Y-102390000D01*
%TO.C,C12*%
X180970000Y-116080000D02*
X180970000Y-108640000D01*
X185710000Y-116080000D02*
X185710000Y-108640000D01*
X180970000Y-116080000D02*
X185710000Y-116080000D01*
X180970000Y-108640000D02*
X185710000Y-108640000D01*
%TO.C,C11*%
X183740000Y-116060000D02*
X183740000Y-108620000D01*
X188480000Y-116060000D02*
X188480000Y-108620000D01*
X183740000Y-116060000D02*
X188480000Y-116060000D01*
X183740000Y-108620000D02*
X188480000Y-108620000D01*
%TO.C,C6*%
X186480000Y-116100000D02*
X186480000Y-108660000D01*
X191220000Y-116100000D02*
X191220000Y-108660000D01*
X186480000Y-116100000D02*
X191220000Y-116100000D01*
X186480000Y-108660000D02*
X191220000Y-108660000D01*
%TO.C,C4*%
X170070000Y-112140000D02*
X170070000Y-119580000D01*
X165330000Y-112140000D02*
X165330000Y-119580000D01*
X170070000Y-112140000D02*
X165330000Y-112140000D01*
X170070000Y-119580000D02*
X165330000Y-119580000D01*
%TO.C,C3*%
X172550000Y-112100000D02*
X172550000Y-119540000D01*
X167810000Y-112100000D02*
X167810000Y-119540000D01*
X172550000Y-112100000D02*
X167810000Y-112100000D01*
X172550000Y-119540000D02*
X167810000Y-119540000D01*
%TO.C,C2*%
X167650000Y-112150000D02*
X167650000Y-119590000D01*
X162910000Y-112150000D02*
X162910000Y-119590000D01*
X167650000Y-112150000D02*
X162910000Y-112150000D01*
X167650000Y-119590000D02*
X162910000Y-119590000D01*
D11*
%TO.C,U1*%
X155150000Y-73750000D02*
X116090000Y-73750000D01*
X155150000Y-112810000D02*
X155150000Y-73750000D01*
X116090000Y-112810000D02*
X155150000Y-112810000D01*
X116090000Y-73750000D02*
X116090000Y-112810000D01*
X120883400Y-76450500D02*
X123169400Y-76450500D01*
X120883400Y-78228500D02*
X120883400Y-76450500D01*
X119168900Y-78228500D02*
X120883400Y-78228500D01*
X119168900Y-92325500D02*
X119168900Y-78228500D01*
X120883400Y-92325500D02*
X119168900Y-92325500D01*
X120883400Y-94103500D02*
X120883400Y-92325500D01*
X123169400Y-94103500D02*
X120883400Y-94103500D01*
X123169400Y-92325500D02*
X123169400Y-94103500D01*
X124883900Y-92325500D02*
X123169400Y-92325500D01*
X124883900Y-78736500D02*
X124883900Y-92325500D01*
X124058400Y-78736500D02*
X124883900Y-78736500D01*
X124058400Y-78228500D02*
X124058400Y-78736500D01*
X123169400Y-78228500D02*
X124058400Y-78228500D01*
X123169400Y-76450500D02*
X123169400Y-78228500D01*
X139877000Y-92453500D02*
X142163000Y-92453500D01*
X139877000Y-94231500D02*
X139877000Y-92453500D01*
X138162500Y-94231500D02*
X139877000Y-94231500D01*
X138162500Y-108328500D02*
X138162500Y-94231500D01*
X139877000Y-108328500D02*
X138162500Y-108328500D01*
X139877000Y-110106500D02*
X139877000Y-108328500D01*
X142163000Y-110106500D02*
X139877000Y-110106500D01*
X142163000Y-108328500D02*
X142163000Y-110106500D01*
X143877500Y-108328500D02*
X142163000Y-108328500D01*
X143877500Y-94739500D02*
X143877500Y-108328500D01*
X143052000Y-94739500D02*
X143877500Y-94739500D01*
X143052000Y-94231500D02*
X143052000Y-94739500D01*
X142163000Y-94231500D02*
X143052000Y-94231500D01*
X142163000Y-92453500D02*
X142163000Y-94231500D01*
D12*
%TO.C,X6*%
X199601800Y-139760200D02*
G75*
G03*
X199601800Y-139760200I-508000J0D01*
G01*
X204605600Y-139760200D02*
G75*
G03*
X204605600Y-139760200I-508000J0D01*
G01*
X194598000Y-139760200D02*
G75*
G03*
X194598000Y-139760200I-508000J0D01*
G01*
X191601000Y-138439000D02*
X191601000Y-138236000D01*
X206587000Y-138439000D02*
X206587000Y-145043000D01*
X206587000Y-138439000D02*
X191601000Y-138439000D01*
X206587000Y-145043000D02*
X206587000Y-147431000D01*
X191601000Y-145043000D02*
X191601000Y-138439000D01*
X204987000Y-145043000D02*
X206587000Y-145043000D01*
X199983000Y-145043000D02*
X203209000Y-145043000D01*
X194979000Y-145043000D02*
X198205000Y-145043000D01*
X191601000Y-145043000D02*
X193201000Y-145043000D01*
X191601000Y-147431000D02*
X191601000Y-145043000D01*
X206587000Y-138236000D02*
X191601000Y-138236000D01*
X206587000Y-138236000D02*
X206587000Y-138439000D01*
X191601000Y-147431000D02*
X206587000Y-147431000D01*
%TO.C,X5*%
X186501800Y-139740200D02*
G75*
G03*
X186501800Y-139740200I-508000J0D01*
G01*
X181498000Y-139740200D02*
G75*
G03*
X181498000Y-139740200I-508000J0D01*
G01*
X188483000Y-138419000D02*
X188483000Y-145023000D01*
X178501000Y-138419000D02*
X178501000Y-138216000D01*
X178501000Y-138419000D02*
X188483000Y-138419000D01*
X188483000Y-145023000D02*
X188483000Y-147411000D01*
X178501000Y-145023000D02*
X178501000Y-138419000D01*
X186883000Y-145023000D02*
X188483000Y-145023000D01*
X181879000Y-145023000D02*
X185105000Y-145023000D01*
X178501000Y-145023000D02*
X180101000Y-145023000D01*
X178501000Y-147411000D02*
X178501000Y-145023000D01*
X188483000Y-138216000D02*
X178501000Y-138216000D01*
X188483000Y-138216000D02*
X188483000Y-138419000D01*
X178501000Y-147411000D02*
X188483000Y-147411000D01*
%TO.C,X4*%
X174201800Y-139840200D02*
G75*
G03*
X174201800Y-139840200I-508000J0D01*
G01*
X169198000Y-139840200D02*
G75*
G03*
X169198000Y-139840200I-508000J0D01*
G01*
X176183000Y-138519000D02*
X176183000Y-145123000D01*
X166201000Y-138519000D02*
X166201000Y-138316000D01*
X166201000Y-138519000D02*
X176183000Y-138519000D01*
X176183000Y-145123000D02*
X176183000Y-147511000D01*
X166201000Y-145123000D02*
X166201000Y-138519000D01*
X174583000Y-145123000D02*
X176183000Y-145123000D01*
X169579000Y-145123000D02*
X172805000Y-145123000D01*
X166201000Y-145123000D02*
X167801000Y-145123000D01*
X166201000Y-147511000D02*
X166201000Y-145123000D01*
X176183000Y-138316000D02*
X166201000Y-138316000D01*
X176183000Y-138316000D02*
X176183000Y-138519000D01*
X166201000Y-147511000D02*
X176183000Y-147511000D01*
%TO.C,X3*%
X161401800Y-140040200D02*
G75*
G03*
X161401800Y-140040200I-508000J0D01*
G01*
X156398000Y-140040200D02*
G75*
G03*
X156398000Y-140040200I-508000J0D01*
G01*
X163383000Y-138719000D02*
X163383000Y-145323000D01*
X153401000Y-138719000D02*
X153401000Y-138516000D01*
X153401000Y-138719000D02*
X163383000Y-138719000D01*
X163383000Y-145323000D02*
X163383000Y-147711000D01*
X153401000Y-145323000D02*
X153401000Y-138719000D01*
X161783000Y-145323000D02*
X163383000Y-145323000D01*
X156779000Y-145323000D02*
X160005000Y-145323000D01*
X153401000Y-145323000D02*
X155001000Y-145323000D01*
X153401000Y-147711000D02*
X153401000Y-145323000D01*
X163383000Y-138516000D02*
X153401000Y-138516000D01*
X163383000Y-138516000D02*
X163383000Y-138719000D01*
X153401000Y-147711000D02*
X163383000Y-147711000D01*
%TO.C,X2*%
X149301800Y-140040200D02*
G75*
G03*
X149301800Y-140040200I-508000J0D01*
G01*
X144298000Y-140040200D02*
G75*
G03*
X144298000Y-140040200I-508000J0D01*
G01*
X151283000Y-138719000D02*
X151283000Y-145323000D01*
X141301000Y-138719000D02*
X141301000Y-138516000D01*
X141301000Y-138719000D02*
X151283000Y-138719000D01*
X151283000Y-145323000D02*
X151283000Y-147711000D01*
X141301000Y-145323000D02*
X141301000Y-138719000D01*
X149683000Y-145323000D02*
X151283000Y-145323000D01*
X144679000Y-145323000D02*
X147905000Y-145323000D01*
X141301000Y-145323000D02*
X142901000Y-145323000D01*
X141301000Y-147711000D02*
X141301000Y-145323000D01*
X151283000Y-138516000D02*
X141301000Y-138516000D01*
X151283000Y-138516000D02*
X151283000Y-138719000D01*
X141301000Y-147711000D02*
X151283000Y-147711000D01*
%TO.C,X1*%
X137501800Y-139970200D02*
G75*
G03*
X137501800Y-139970200I-508000J0D01*
G01*
X132498000Y-139970200D02*
G75*
G03*
X132498000Y-139970200I-508000J0D01*
G01*
X139483000Y-138649000D02*
X139483000Y-145253000D01*
X129501000Y-138649000D02*
X129501000Y-138446000D01*
X129501000Y-138649000D02*
X139483000Y-138649000D01*
X139483000Y-145253000D02*
X139483000Y-147641000D01*
X129501000Y-145253000D02*
X129501000Y-138649000D01*
X137883000Y-145253000D02*
X139483000Y-145253000D01*
X132879000Y-145253000D02*
X136105000Y-145253000D01*
X129501000Y-145253000D02*
X131101000Y-145253000D01*
X129501000Y-147641000D02*
X129501000Y-145253000D01*
X139483000Y-138446000D02*
X129501000Y-138446000D01*
X139483000Y-138446000D02*
X139483000Y-138649000D01*
X129501000Y-147641000D02*
X139483000Y-147641000D01*
D10*
%TO.C,U4*%
X178190000Y-88220000D02*
X179800000Y-88220000D01*
X178190000Y-88220000D02*
X178190000Y-90220000D01*
X178470000Y-100760000D02*
X178470000Y-88510000D01*
X184230000Y-100760000D02*
X178470000Y-100760000D01*
X184230000Y-88500000D02*
X184230000Y-100760000D01*
X178480000Y-88500000D02*
X184220000Y-88500000D01*
D12*
%TO.C,U3*%
X195208400Y-127122800D02*
X195208400Y-126767200D01*
X195462400Y-127122800D02*
X195208400Y-127122800D01*
X195462400Y-126767200D02*
X195462400Y-127122800D01*
X191195200Y-118766200D02*
X190204600Y-118766200D01*
X191804800Y-118766200D02*
X191195200Y-118766200D01*
X192795400Y-118766200D02*
X191804800Y-118766200D01*
X190204600Y-128773800D02*
X192795400Y-128773800D01*
D10*
X191195200Y-118766200D02*
G75*
G03*
X191804800Y-118766200I304800J0D01*
G01*
D12*
%TO.C,U2*%
X168428400Y-89562800D02*
X168428400Y-89207200D01*
X168682400Y-89562800D02*
X168428400Y-89562800D01*
X168682400Y-89207200D02*
X168682400Y-89562800D01*
X164415200Y-81206200D02*
X163424600Y-81206200D01*
X165024800Y-81206200D02*
X164415200Y-81206200D01*
X166015400Y-81206200D02*
X165024800Y-81206200D01*
X163424600Y-91213800D02*
X166015400Y-91213800D01*
D10*
X164415200Y-81206200D02*
G75*
G03*
X165024800Y-81206200I304800J0D01*
G01*
D13*
%TO.C,IC2*%
X166533000Y-119032000D02*
X173087000Y-119032000D01*
X166533000Y-122588000D02*
X166533000Y-119032000D01*
X173087000Y-122588000D02*
X166533000Y-122588000D01*
X173087000Y-119032000D02*
X173087000Y-122588000D01*
%TO.C,IC1*%
X157313000Y-119172000D02*
X163867000Y-119172000D01*
X157313000Y-122728000D02*
X157313000Y-119172000D01*
X163867000Y-122728000D02*
X157313000Y-122728000D01*
X163867000Y-119172000D02*
X163867000Y-122728000D01*
%TO.C,R1*%
D14*
X158077452Y-90499428D02*
X158651976Y-90097261D01*
X158077452Y-89809999D02*
X159283952Y-89809999D01*
X159283952Y-90269618D01*
X159226500Y-90384523D01*
X159169047Y-90441976D01*
X159054142Y-90499428D01*
X158881785Y-90499428D01*
X158766880Y-90441976D01*
X158709428Y-90384523D01*
X158651976Y-90269618D01*
X158651976Y-89809999D01*
X158077452Y-91648476D02*
X158077452Y-90959047D01*
X158077452Y-91303761D02*
X159283952Y-91303761D01*
X159111595Y-91188857D01*
X158996690Y-91073952D01*
X158939238Y-90959047D01*
%TO.C,R2*%
X173132547Y-108021595D02*
X172558023Y-108423761D01*
X173132547Y-108711023D02*
X171926047Y-108711023D01*
X171926047Y-108251404D01*
X171983500Y-108136499D01*
X172040952Y-108079047D01*
X172155857Y-108021595D01*
X172328214Y-108021595D01*
X172443119Y-108079047D01*
X172500571Y-108136499D01*
X172558023Y-108251404D01*
X172558023Y-108711023D01*
X172040952Y-107561976D02*
X171983500Y-107504523D01*
X171926047Y-107389618D01*
X171926047Y-107102357D01*
X171983500Y-106987452D01*
X172040952Y-106929999D01*
X172155857Y-106872547D01*
X172270761Y-106872547D01*
X172443119Y-106929999D01*
X173132547Y-107619428D01*
X173132547Y-106872547D01*
%TO.C,R3*%
X170147452Y-87551428D02*
X170721976Y-87149261D01*
X170147452Y-86861999D02*
X171353952Y-86861999D01*
X171353952Y-87321618D01*
X171296500Y-87436523D01*
X171239047Y-87493976D01*
X171124142Y-87551428D01*
X170951785Y-87551428D01*
X170836880Y-87493976D01*
X170779428Y-87436523D01*
X170721976Y-87321618D01*
X170721976Y-86861999D01*
X171353952Y-87953595D02*
X171353952Y-88700476D01*
X170894333Y-88298309D01*
X170894333Y-88470666D01*
X170836880Y-88585571D01*
X170779428Y-88643023D01*
X170664523Y-88700476D01*
X170377261Y-88700476D01*
X170262357Y-88643023D01*
X170204904Y-88585571D01*
X170147452Y-88470666D01*
X170147452Y-88125952D01*
X170204904Y-88011047D01*
X170262357Y-87953595D01*
%TO.C,R4*%
X146142547Y-125731595D02*
X145568023Y-126133761D01*
X146142547Y-126421023D02*
X144936047Y-126421023D01*
X144936047Y-125961404D01*
X144993500Y-125846499D01*
X145050952Y-125789047D01*
X145165857Y-125731595D01*
X145338214Y-125731595D01*
X145453119Y-125789047D01*
X145510571Y-125846499D01*
X145568023Y-125961404D01*
X145568023Y-126421023D01*
X145338214Y-124697452D02*
X146142547Y-124697452D01*
X144878595Y-124984714D02*
X145740380Y-125271976D01*
X145740380Y-124525095D01*
%TO.C,R9*%
X162022547Y-108213595D02*
X161448023Y-108615761D01*
X162022547Y-108903023D02*
X160816047Y-108903023D01*
X160816047Y-108443404D01*
X160873500Y-108328499D01*
X160930952Y-108271047D01*
X161045857Y-108213595D01*
X161218214Y-108213595D01*
X161333119Y-108271047D01*
X161390571Y-108328499D01*
X161448023Y-108443404D01*
X161448023Y-108903023D01*
X162022547Y-107639071D02*
X162022547Y-107409261D01*
X161965095Y-107294357D01*
X161907642Y-107236904D01*
X161735285Y-107121999D01*
X161505476Y-107064547D01*
X161045857Y-107064547D01*
X160930952Y-107121999D01*
X160873500Y-107179452D01*
X160816047Y-107294357D01*
X160816047Y-107524166D01*
X160873500Y-107639071D01*
X160930952Y-107696523D01*
X161045857Y-107753976D01*
X161333119Y-107753976D01*
X161448023Y-107696523D01*
X161505476Y-107639071D01*
X161562928Y-107524166D01*
X161562928Y-107294357D01*
X161505476Y-107179452D01*
X161448023Y-107121999D01*
X161333119Y-107064547D01*
%TO.C,R10*%
X154002547Y-122392642D02*
X153428023Y-122794809D01*
X154002547Y-123082071D02*
X152796047Y-123082071D01*
X152796047Y-122622452D01*
X152853500Y-122507547D01*
X152910952Y-122450095D01*
X153025857Y-122392642D01*
X153198214Y-122392642D01*
X153313119Y-122450095D01*
X153370571Y-122507547D01*
X153428023Y-122622452D01*
X153428023Y-123082071D01*
X154002547Y-121243595D02*
X154002547Y-121933023D01*
X154002547Y-121588309D02*
X152796047Y-121588309D01*
X152968404Y-121703214D01*
X153083309Y-121818118D01*
X153140761Y-121933023D01*
X152796047Y-120496714D02*
X152796047Y-120381809D01*
X152853500Y-120266904D01*
X152910952Y-120209452D01*
X153025857Y-120151999D01*
X153255666Y-120094547D01*
X153542928Y-120094547D01*
X153772738Y-120151999D01*
X153887642Y-120209452D01*
X153945095Y-120266904D01*
X154002547Y-120381809D01*
X154002547Y-120496714D01*
X153945095Y-120611618D01*
X153887642Y-120669071D01*
X153772738Y-120726523D01*
X153542928Y-120783976D01*
X153255666Y-120783976D01*
X153025857Y-120726523D01*
X152910952Y-120669071D01*
X152853500Y-120611618D01*
X152796047Y-120496714D01*
%TO.C,R11*%
X149602547Y-122392642D02*
X149028023Y-122794809D01*
X149602547Y-123082071D02*
X148396047Y-123082071D01*
X148396047Y-122622452D01*
X148453500Y-122507547D01*
X148510952Y-122450095D01*
X148625857Y-122392642D01*
X148798214Y-122392642D01*
X148913119Y-122450095D01*
X148970571Y-122507547D01*
X149028023Y-122622452D01*
X149028023Y-123082071D01*
X149602547Y-121243595D02*
X149602547Y-121933023D01*
X149602547Y-121588309D02*
X148396047Y-121588309D01*
X148568404Y-121703214D01*
X148683309Y-121818118D01*
X148740761Y-121933023D01*
X149602547Y-120094547D02*
X149602547Y-120783976D01*
X149602547Y-120439261D02*
X148396047Y-120439261D01*
X148568404Y-120554166D01*
X148683309Y-120669071D01*
X148740761Y-120783976D01*
%TO.C,R12*%
X167832547Y-108182571D02*
X167258023Y-108584738D01*
X167832547Y-108872000D02*
X166626047Y-108872000D01*
X166626047Y-108412381D01*
X166683500Y-108297476D01*
X166740952Y-108240023D01*
X166855857Y-108182571D01*
X167028214Y-108182571D01*
X167143119Y-108240023D01*
X167200571Y-108297476D01*
X167258023Y-108412381D01*
X167258023Y-108872000D01*
X167832547Y-107033523D02*
X167832547Y-107722952D01*
X167832547Y-107378238D02*
X166626047Y-107378238D01*
X166798404Y-107493142D01*
X166913309Y-107608047D01*
X166970761Y-107722952D01*
X166740952Y-106573904D02*
X166683500Y-106516452D01*
X166626047Y-106401547D01*
X166626047Y-106114285D01*
X166683500Y-105999381D01*
X166740952Y-105941928D01*
X166855857Y-105884476D01*
X166970761Y-105884476D01*
X167143119Y-105941928D01*
X167832547Y-106631357D01*
X167832547Y-105884476D01*
%TO.C,R13*%
X175952547Y-109122642D02*
X175378023Y-109524809D01*
X175952547Y-109812071D02*
X174746047Y-109812071D01*
X174746047Y-109352452D01*
X174803500Y-109237547D01*
X174860952Y-109180095D01*
X174975857Y-109122642D01*
X175148214Y-109122642D01*
X175263119Y-109180095D01*
X175320571Y-109237547D01*
X175378023Y-109352452D01*
X175378023Y-109812071D01*
X175952547Y-107973595D02*
X175952547Y-108663023D01*
X175952547Y-108318309D02*
X174746047Y-108318309D01*
X174918404Y-108433214D01*
X175033309Y-108548118D01*
X175090761Y-108663023D01*
X174746047Y-107571428D02*
X174746047Y-106824547D01*
X175205666Y-107226714D01*
X175205666Y-107054357D01*
X175263119Y-106939452D01*
X175320571Y-106881999D01*
X175435476Y-106824547D01*
X175722738Y-106824547D01*
X175837642Y-106881999D01*
X175895095Y-106939452D01*
X175952547Y-107054357D01*
X175952547Y-107399071D01*
X175895095Y-107513976D01*
X175837642Y-107571428D01*
%TO.C,R14*%
X167562547Y-109242642D02*
X166988023Y-109644809D01*
X167562547Y-109932071D02*
X166356047Y-109932071D01*
X166356047Y-109472452D01*
X166413500Y-109357547D01*
X166470952Y-109300095D01*
X166585857Y-109242642D01*
X166758214Y-109242642D01*
X166873119Y-109300095D01*
X166930571Y-109357547D01*
X166988023Y-109472452D01*
X166988023Y-109932071D01*
X167562547Y-108093595D02*
X167562547Y-108783023D01*
X167562547Y-108438309D02*
X166356047Y-108438309D01*
X166528404Y-108553214D01*
X166643309Y-108668118D01*
X166700761Y-108783023D01*
X166758214Y-107059452D02*
X167562547Y-107059452D01*
X166298595Y-107346714D02*
X167160380Y-107633976D01*
X167160380Y-106887095D01*
%TO.C,R15*%
X158692547Y-109422642D02*
X158118023Y-109824809D01*
X158692547Y-110112071D02*
X157486047Y-110112071D01*
X157486047Y-109652452D01*
X157543500Y-109537547D01*
X157600952Y-109480095D01*
X157715857Y-109422642D01*
X157888214Y-109422642D01*
X158003119Y-109480095D01*
X158060571Y-109537547D01*
X158118023Y-109652452D01*
X158118023Y-110112071D01*
X158692547Y-108273595D02*
X158692547Y-108963023D01*
X158692547Y-108618309D02*
X157486047Y-108618309D01*
X157658404Y-108733214D01*
X157773309Y-108848118D01*
X157830761Y-108963023D01*
X157486047Y-107181999D02*
X157486047Y-107756523D01*
X158060571Y-107813976D01*
X158003119Y-107756523D01*
X157945666Y-107641618D01*
X157945666Y-107354357D01*
X158003119Y-107239452D01*
X158060571Y-107181999D01*
X158175476Y-107124547D01*
X158462738Y-107124547D01*
X158577642Y-107181999D01*
X158635095Y-107239452D01*
X158692547Y-107354357D01*
X158692547Y-107641618D01*
X158635095Y-107756523D01*
X158577642Y-107813976D01*
%TO.C,R16*%
X164892547Y-109242642D02*
X164318023Y-109644809D01*
X164892547Y-109932071D02*
X163686047Y-109932071D01*
X163686047Y-109472452D01*
X163743500Y-109357547D01*
X163800952Y-109300095D01*
X163915857Y-109242642D01*
X164088214Y-109242642D01*
X164203119Y-109300095D01*
X164260571Y-109357547D01*
X164318023Y-109472452D01*
X164318023Y-109932071D01*
X164892547Y-108093595D02*
X164892547Y-108783023D01*
X164892547Y-108438309D02*
X163686047Y-108438309D01*
X163858404Y-108553214D01*
X163973309Y-108668118D01*
X164030761Y-108783023D01*
X163686047Y-107059452D02*
X163686047Y-107289261D01*
X163743500Y-107404166D01*
X163800952Y-107461618D01*
X163973309Y-107576523D01*
X164203119Y-107633976D01*
X164662738Y-107633976D01*
X164777642Y-107576523D01*
X164835095Y-107519071D01*
X164892547Y-107404166D01*
X164892547Y-107174357D01*
X164835095Y-107059452D01*
X164777642Y-107001999D01*
X164662738Y-106944547D01*
X164375476Y-106944547D01*
X164260571Y-107001999D01*
X164203119Y-107059452D01*
X164145666Y-107174357D01*
X164145666Y-107404166D01*
X164203119Y-107519071D01*
X164260571Y-107576523D01*
X164375476Y-107633976D01*
%TO.C,R17*%
X198932547Y-127410642D02*
X198358023Y-127812809D01*
X198932547Y-128100071D02*
X197726047Y-128100071D01*
X197726047Y-127640452D01*
X197783500Y-127525547D01*
X197840952Y-127468095D01*
X197955857Y-127410642D01*
X198128214Y-127410642D01*
X198243119Y-127468095D01*
X198300571Y-127525547D01*
X198358023Y-127640452D01*
X198358023Y-128100071D01*
X198932547Y-126261595D02*
X198932547Y-126951023D01*
X198932547Y-126606309D02*
X197726047Y-126606309D01*
X197898404Y-126721214D01*
X198013309Y-126836118D01*
X198070761Y-126951023D01*
X197726047Y-125859428D02*
X197726047Y-125055095D01*
X198932547Y-125572166D01*
%TO.C,R18*%
X140787452Y-127981428D02*
X141361976Y-127579261D01*
X140787452Y-127291999D02*
X141993952Y-127291999D01*
X141993952Y-127751618D01*
X141936500Y-127866523D01*
X141879047Y-127923976D01*
X141764142Y-127981428D01*
X141591785Y-127981428D01*
X141476880Y-127923976D01*
X141419428Y-127866523D01*
X141361976Y-127751618D01*
X141361976Y-127291999D01*
X140787452Y-129130476D02*
X140787452Y-128441047D01*
X140787452Y-128785761D02*
X141993952Y-128785761D01*
X141821595Y-128670857D01*
X141706690Y-128555952D01*
X141649238Y-128441047D01*
X141476880Y-129819904D02*
X141534333Y-129704999D01*
X141591785Y-129647547D01*
X141706690Y-129590095D01*
X141764142Y-129590095D01*
X141879047Y-129647547D01*
X141936500Y-129704999D01*
X141993952Y-129819904D01*
X141993952Y-130049714D01*
X141936500Y-130164618D01*
X141879047Y-130222071D01*
X141764142Y-130279523D01*
X141706690Y-130279523D01*
X141591785Y-130222071D01*
X141534333Y-130164618D01*
X141476880Y-130049714D01*
X141476880Y-129819904D01*
X141419428Y-129704999D01*
X141361976Y-129647547D01*
X141247071Y-129590095D01*
X141017261Y-129590095D01*
X140902357Y-129647547D01*
X140844904Y-129704999D01*
X140787452Y-129819904D01*
X140787452Y-130049714D01*
X140844904Y-130164618D01*
X140902357Y-130222071D01*
X141017261Y-130279523D01*
X141247071Y-130279523D01*
X141361976Y-130222071D01*
X141419428Y-130164618D01*
X141476880Y-130049714D01*
%TO.C,R21*%
X180359428Y-116264547D02*
X179957261Y-115690023D01*
X179669999Y-116264547D02*
X179669999Y-115058047D01*
X180129618Y-115058047D01*
X180244523Y-115115500D01*
X180301976Y-115172952D01*
X180359428Y-115287857D01*
X180359428Y-115460214D01*
X180301976Y-115575119D01*
X180244523Y-115632571D01*
X180129618Y-115690023D01*
X179669999Y-115690023D01*
X180819047Y-115172952D02*
X180876499Y-115115500D01*
X180991404Y-115058047D01*
X181278666Y-115058047D01*
X181393571Y-115115500D01*
X181451023Y-115172952D01*
X181508476Y-115287857D01*
X181508476Y-115402761D01*
X181451023Y-115575119D01*
X180761595Y-116264547D01*
X181508476Y-116264547D01*
X182657523Y-116264547D02*
X181968095Y-116264547D01*
X182312809Y-116264547D02*
X182312809Y-115058047D01*
X182197904Y-115230404D01*
X182082999Y-115345309D01*
X181968095Y-115402761D01*
%TO.C,C14*%
D15*
X179832885Y-105711542D02*
X179786923Y-105665580D01*
X179740961Y-105527695D01*
X179740961Y-105435771D01*
X179786923Y-105297885D01*
X179878847Y-105205961D01*
X179970771Y-105159999D01*
X180154619Y-105114038D01*
X180292504Y-105114038D01*
X180476352Y-105159999D01*
X180568276Y-105205961D01*
X180660200Y-105297885D01*
X180706161Y-105435771D01*
X180706161Y-105527695D01*
X180660200Y-105665580D01*
X180614238Y-105711542D01*
X179740961Y-106630780D02*
X179740961Y-106079238D01*
X179740961Y-106355009D02*
X180706161Y-106355009D01*
X180568276Y-106263085D01*
X180476352Y-106171161D01*
X180430390Y-106079238D01*
X180384428Y-107458095D02*
X179740961Y-107458095D01*
X180752123Y-107228285D02*
X180062695Y-106998476D01*
X180062695Y-107595980D01*
%TO.C,C13*%
X179812885Y-110441542D02*
X179766923Y-110395580D01*
X179720961Y-110257695D01*
X179720961Y-110165771D01*
X179766923Y-110027885D01*
X179858847Y-109935961D01*
X179950771Y-109889999D01*
X180134619Y-109844038D01*
X180272504Y-109844038D01*
X180456352Y-109889999D01*
X180548276Y-109935961D01*
X180640200Y-110027885D01*
X180686161Y-110165771D01*
X180686161Y-110257695D01*
X180640200Y-110395580D01*
X180594238Y-110441542D01*
X179720961Y-111360780D02*
X179720961Y-110809238D01*
X179720961Y-111085009D02*
X180686161Y-111085009D01*
X180548276Y-110993085D01*
X180456352Y-110901161D01*
X180410390Y-110809238D01*
X180686161Y-111682514D02*
X180686161Y-112280018D01*
X180318466Y-111958285D01*
X180318466Y-112096171D01*
X180272504Y-112188095D01*
X180226542Y-112234057D01*
X180134619Y-112280018D01*
X179904809Y-112280018D01*
X179812885Y-112234057D01*
X179766923Y-112188095D01*
X179720961Y-112096171D01*
X179720961Y-111820399D01*
X179766923Y-111728476D01*
X179812885Y-111682514D01*
%TO.C,C12*%
X182602885Y-116691542D02*
X182556923Y-116645580D01*
X182510961Y-116507695D01*
X182510961Y-116415771D01*
X182556923Y-116277885D01*
X182648847Y-116185961D01*
X182740771Y-116139999D01*
X182924619Y-116094038D01*
X183062504Y-116094038D01*
X183246352Y-116139999D01*
X183338276Y-116185961D01*
X183430200Y-116277885D01*
X183476161Y-116415771D01*
X183476161Y-116507695D01*
X183430200Y-116645580D01*
X183384238Y-116691542D01*
X182510961Y-117610780D02*
X182510961Y-117059238D01*
X182510961Y-117335009D02*
X183476161Y-117335009D01*
X183338276Y-117243085D01*
X183246352Y-117151161D01*
X183200390Y-117059238D01*
X183384238Y-117978476D02*
X183430200Y-118024438D01*
X183476161Y-118116361D01*
X183476161Y-118346171D01*
X183430200Y-118438095D01*
X183384238Y-118484057D01*
X183292314Y-118530018D01*
X183200390Y-118530018D01*
X183062504Y-118484057D01*
X182510961Y-117932514D01*
X182510961Y-118530018D01*
%TO.C,C11*%
X185372885Y-116671542D02*
X185326923Y-116625580D01*
X185280961Y-116487695D01*
X185280961Y-116395771D01*
X185326923Y-116257885D01*
X185418847Y-116165961D01*
X185510771Y-116119999D01*
X185694619Y-116074038D01*
X185832504Y-116074038D01*
X186016352Y-116119999D01*
X186108276Y-116165961D01*
X186200200Y-116257885D01*
X186246161Y-116395771D01*
X186246161Y-116487695D01*
X186200200Y-116625580D01*
X186154238Y-116671542D01*
X185280961Y-117590780D02*
X185280961Y-117039238D01*
X185280961Y-117315009D02*
X186246161Y-117315009D01*
X186108276Y-117223085D01*
X186016352Y-117131161D01*
X185970390Y-117039238D01*
X185280961Y-118510018D02*
X185280961Y-117958476D01*
X185280961Y-118234247D02*
X186246161Y-118234247D01*
X186108276Y-118142323D01*
X186016352Y-118050399D01*
X185970390Y-117958476D01*
%TO.C,C6*%
X187837114Y-115048457D02*
X187883076Y-115094419D01*
X187929038Y-115232304D01*
X187929038Y-115324228D01*
X187883076Y-115462114D01*
X187791152Y-115554038D01*
X187699228Y-115600000D01*
X187515380Y-115645961D01*
X187377495Y-115645961D01*
X187193647Y-115600000D01*
X187101723Y-115554038D01*
X187009800Y-115462114D01*
X186963838Y-115324228D01*
X186963838Y-115232304D01*
X187009800Y-115094419D01*
X187055761Y-115048457D01*
X186963838Y-114221142D02*
X186963838Y-114404990D01*
X187009800Y-114496914D01*
X187055761Y-114542876D01*
X187193647Y-114634800D01*
X187377495Y-114680761D01*
X187745190Y-114680761D01*
X187837114Y-114634800D01*
X187883076Y-114588838D01*
X187929038Y-114496914D01*
X187929038Y-114313066D01*
X187883076Y-114221142D01*
X187837114Y-114175181D01*
X187745190Y-114129219D01*
X187515380Y-114129219D01*
X187423457Y-114175181D01*
X187377495Y-114221142D01*
X187331533Y-114313066D01*
X187331533Y-114496914D01*
X187377495Y-114588838D01*
X187423457Y-114634800D01*
X187515380Y-114680761D01*
%TO.C,C4*%
X168437114Y-113513276D02*
X168483076Y-113559238D01*
X168529038Y-113697123D01*
X168529038Y-113789047D01*
X168483076Y-113926933D01*
X168391152Y-114018857D01*
X168299228Y-114064818D01*
X168115380Y-114110780D01*
X167977495Y-114110780D01*
X167793647Y-114064818D01*
X167701723Y-114018857D01*
X167609800Y-113926933D01*
X167563838Y-113789047D01*
X167563838Y-113697123D01*
X167609800Y-113559238D01*
X167655761Y-113513276D01*
X167885571Y-112685961D02*
X168529038Y-112685961D01*
X167517876Y-112915771D02*
X168207304Y-113145580D01*
X168207304Y-112548076D01*
%TO.C,C3*%
X170917114Y-113473276D02*
X170963076Y-113519238D01*
X171009038Y-113657123D01*
X171009038Y-113749047D01*
X170963076Y-113886933D01*
X170871152Y-113978857D01*
X170779228Y-114024818D01*
X170595380Y-114070780D01*
X170457495Y-114070780D01*
X170273647Y-114024818D01*
X170181723Y-113978857D01*
X170089800Y-113886933D01*
X170043838Y-113749047D01*
X170043838Y-113657123D01*
X170089800Y-113519238D01*
X170135761Y-113473276D01*
X170043838Y-113151542D02*
X170043838Y-112554038D01*
X170411533Y-112875771D01*
X170411533Y-112737885D01*
X170457495Y-112645961D01*
X170503457Y-112599999D01*
X170595380Y-112554038D01*
X170825190Y-112554038D01*
X170917114Y-112599999D01*
X170963076Y-112645961D01*
X171009038Y-112737885D01*
X171009038Y-113013657D01*
X170963076Y-113105580D01*
X170917114Y-113151542D01*
%TO.C,C2*%
X166017114Y-113523276D02*
X166063076Y-113569238D01*
X166109038Y-113707123D01*
X166109038Y-113799047D01*
X166063076Y-113936933D01*
X165971152Y-114028857D01*
X165879228Y-114074818D01*
X165695380Y-114120780D01*
X165557495Y-114120780D01*
X165373647Y-114074818D01*
X165281723Y-114028857D01*
X165189800Y-113936933D01*
X165143838Y-113799047D01*
X165143838Y-113707123D01*
X165189800Y-113569238D01*
X165235761Y-113523276D01*
X165235761Y-113155580D02*
X165189800Y-113109618D01*
X165143838Y-113017695D01*
X165143838Y-112787885D01*
X165189800Y-112695961D01*
X165235761Y-112649999D01*
X165327685Y-112604038D01*
X165419609Y-112604038D01*
X165557495Y-112649999D01*
X166109038Y-113201542D01*
X166109038Y-112604038D01*
%TO.C,U1*%
D14*
X135184047Y-97882000D02*
X136160738Y-97882000D01*
X136275642Y-97824547D01*
X136333095Y-97767095D01*
X136390547Y-97652190D01*
X136390547Y-97422381D01*
X136333095Y-97307476D01*
X136275642Y-97250023D01*
X136160738Y-97192571D01*
X135184047Y-97192571D01*
X136390547Y-95986071D02*
X136390547Y-96675500D01*
X136390547Y-96330785D02*
X135184047Y-96330785D01*
X135356404Y-96445690D01*
X135471309Y-96560595D01*
X135528761Y-96675500D01*
D16*
X124179352Y-90061150D02*
X124121900Y-90003698D01*
X124064447Y-89888793D01*
X124064447Y-89601531D01*
X124121900Y-89486626D01*
X124179352Y-89429174D01*
X124294257Y-89371721D01*
X124409161Y-89371721D01*
X124581519Y-89429174D01*
X125270947Y-90118602D01*
X125270947Y-89371721D01*
X117396947Y-89371721D02*
X117396947Y-90061150D01*
X117396947Y-89716436D02*
X116190447Y-89716436D01*
X116362804Y-89831340D01*
X116477709Y-89946245D01*
X116535161Y-90061150D01*
X143172952Y-106064150D02*
X143115500Y-106006698D01*
X143058047Y-105891793D01*
X143058047Y-105604531D01*
X143115500Y-105489626D01*
X143172952Y-105432174D01*
X143287857Y-105374721D01*
X143402761Y-105374721D01*
X143575119Y-105432174D01*
X144264547Y-106121602D01*
X144264547Y-105374721D01*
X136390547Y-105374721D02*
X136390547Y-106064150D01*
X136390547Y-105719436D02*
X135184047Y-105719436D01*
X135356404Y-105834340D01*
X135471309Y-105949245D01*
X135528761Y-106064150D01*
%TO.C,mount*%
D17*
X200958571Y-66912380D02*
X200958571Y-66245714D01*
X200958571Y-66340952D02*
X201006190Y-66293333D01*
X201101428Y-66245714D01*
X201244285Y-66245714D01*
X201339523Y-66293333D01*
X201387142Y-66388571D01*
X201387142Y-66912380D01*
X201387142Y-66388571D02*
X201434761Y-66293333D01*
X201530000Y-66245714D01*
X201672857Y-66245714D01*
X201768095Y-66293333D01*
X201815714Y-66388571D01*
X201815714Y-66912380D01*
X202434761Y-66912380D02*
X202339523Y-66864761D01*
X202291904Y-66817142D01*
X202244285Y-66721904D01*
X202244285Y-66436190D01*
X202291904Y-66340952D01*
X202339523Y-66293333D01*
X202434761Y-66245714D01*
X202577619Y-66245714D01*
X202672857Y-66293333D01*
X202720476Y-66340952D01*
X202768095Y-66436190D01*
X202768095Y-66721904D01*
X202720476Y-66817142D01*
X202672857Y-66864761D01*
X202577619Y-66912380D01*
X202434761Y-66912380D01*
X203625238Y-66245714D02*
X203625238Y-66912380D01*
X203196666Y-66245714D02*
X203196666Y-66769523D01*
X203244285Y-66864761D01*
X203339523Y-66912380D01*
X203482380Y-66912380D01*
X203577619Y-66864761D01*
X203625238Y-66817142D01*
X204101428Y-66245714D02*
X204101428Y-66912380D01*
X204101428Y-66340952D02*
X204149047Y-66293333D01*
X204244285Y-66245714D01*
X204387142Y-66245714D01*
X204482380Y-66293333D01*
X204530000Y-66388571D01*
X204530000Y-66912380D01*
X204863333Y-66245714D02*
X205244285Y-66245714D01*
X205006190Y-65912380D02*
X205006190Y-66769523D01*
X205053809Y-66864761D01*
X205149047Y-66912380D01*
X205244285Y-66912380D01*
X114878571Y-150632380D02*
X114878571Y-149965714D01*
X114878571Y-150060952D02*
X114926190Y-150013333D01*
X115021428Y-149965714D01*
X115164285Y-149965714D01*
X115259523Y-150013333D01*
X115307142Y-150108571D01*
X115307142Y-150632380D01*
X115307142Y-150108571D02*
X115354761Y-150013333D01*
X115450000Y-149965714D01*
X115592857Y-149965714D01*
X115688095Y-150013333D01*
X115735714Y-150108571D01*
X115735714Y-150632380D01*
X116354761Y-150632380D02*
X116259523Y-150584761D01*
X116211904Y-150537142D01*
X116164285Y-150441904D01*
X116164285Y-150156190D01*
X116211904Y-150060952D01*
X116259523Y-150013333D01*
X116354761Y-149965714D01*
X116497619Y-149965714D01*
X116592857Y-150013333D01*
X116640476Y-150060952D01*
X116688095Y-150156190D01*
X116688095Y-150441904D01*
X116640476Y-150537142D01*
X116592857Y-150584761D01*
X116497619Y-150632380D01*
X116354761Y-150632380D01*
X117545238Y-149965714D02*
X117545238Y-150632380D01*
X117116666Y-149965714D02*
X117116666Y-150489523D01*
X117164285Y-150584761D01*
X117259523Y-150632380D01*
X117402380Y-150632380D01*
X117497619Y-150584761D01*
X117545238Y-150537142D01*
X118021428Y-149965714D02*
X118021428Y-150632380D01*
X118021428Y-150060952D02*
X118069047Y-150013333D01*
X118164285Y-149965714D01*
X118307142Y-149965714D01*
X118402380Y-150013333D01*
X118450000Y-150108571D01*
X118450000Y-150632380D01*
X118783333Y-149965714D02*
X119164285Y-149965714D01*
X118926190Y-149632380D02*
X118926190Y-150489523D01*
X118973809Y-150584761D01*
X119069047Y-150632380D01*
X119164285Y-150632380D01*
X200548571Y-150872380D02*
X200548571Y-150205714D01*
X200548571Y-150300952D02*
X200596190Y-150253333D01*
X200691428Y-150205714D01*
X200834285Y-150205714D01*
X200929523Y-150253333D01*
X200977142Y-150348571D01*
X200977142Y-150872380D01*
X200977142Y-150348571D02*
X201024761Y-150253333D01*
X201120000Y-150205714D01*
X201262857Y-150205714D01*
X201358095Y-150253333D01*
X201405714Y-150348571D01*
X201405714Y-150872380D01*
X202024761Y-150872380D02*
X201929523Y-150824761D01*
X201881904Y-150777142D01*
X201834285Y-150681904D01*
X201834285Y-150396190D01*
X201881904Y-150300952D01*
X201929523Y-150253333D01*
X202024761Y-150205714D01*
X202167619Y-150205714D01*
X202262857Y-150253333D01*
X202310476Y-150300952D01*
X202358095Y-150396190D01*
X202358095Y-150681904D01*
X202310476Y-150777142D01*
X202262857Y-150824761D01*
X202167619Y-150872380D01*
X202024761Y-150872380D01*
X203215238Y-150205714D02*
X203215238Y-150872380D01*
X202786666Y-150205714D02*
X202786666Y-150729523D01*
X202834285Y-150824761D01*
X202929523Y-150872380D01*
X203072380Y-150872380D01*
X203167619Y-150824761D01*
X203215238Y-150777142D01*
X203691428Y-150205714D02*
X203691428Y-150872380D01*
X203691428Y-150300952D02*
X203739047Y-150253333D01*
X203834285Y-150205714D01*
X203977142Y-150205714D01*
X204072380Y-150253333D01*
X204120000Y-150348571D01*
X204120000Y-150872380D01*
X204453333Y-150205714D02*
X204834285Y-150205714D01*
X204596190Y-149872380D02*
X204596190Y-150729523D01*
X204643809Y-150824761D01*
X204739047Y-150872380D01*
X204834285Y-150872380D01*
X115038571Y-66012380D02*
X115038571Y-65345714D01*
X115038571Y-65440952D02*
X115086190Y-65393333D01*
X115181428Y-65345714D01*
X115324285Y-65345714D01*
X115419523Y-65393333D01*
X115467142Y-65488571D01*
X115467142Y-66012380D01*
X115467142Y-65488571D02*
X115514761Y-65393333D01*
X115610000Y-65345714D01*
X115752857Y-65345714D01*
X115848095Y-65393333D01*
X115895714Y-65488571D01*
X115895714Y-66012380D01*
X116514761Y-66012380D02*
X116419523Y-65964761D01*
X116371904Y-65917142D01*
X116324285Y-65821904D01*
X116324285Y-65536190D01*
X116371904Y-65440952D01*
X116419523Y-65393333D01*
X116514761Y-65345714D01*
X116657619Y-65345714D01*
X116752857Y-65393333D01*
X116800476Y-65440952D01*
X116848095Y-65536190D01*
X116848095Y-65821904D01*
X116800476Y-65917142D01*
X116752857Y-65964761D01*
X116657619Y-66012380D01*
X116514761Y-66012380D01*
X117705238Y-65345714D02*
X117705238Y-66012380D01*
X117276666Y-65345714D02*
X117276666Y-65869523D01*
X117324285Y-65964761D01*
X117419523Y-66012380D01*
X117562380Y-66012380D01*
X117657619Y-65964761D01*
X117705238Y-65917142D01*
X118181428Y-65345714D02*
X118181428Y-66012380D01*
X118181428Y-65440952D02*
X118229047Y-65393333D01*
X118324285Y-65345714D01*
X118467142Y-65345714D01*
X118562380Y-65393333D01*
X118610000Y-65488571D01*
X118610000Y-66012380D01*
X118943333Y-65345714D02*
X119324285Y-65345714D01*
X119086190Y-65012380D02*
X119086190Y-65869523D01*
X119133809Y-65964761D01*
X119229047Y-66012380D01*
X119324285Y-66012380D01*
%TO.C,X6*%
D18*
X193397179Y-145848247D02*
X194201512Y-147054747D01*
X194201512Y-145848247D02*
X193397179Y-147054747D01*
X195178203Y-145848247D02*
X194948393Y-145848247D01*
X194833489Y-145905700D01*
X194776036Y-145963152D01*
X194661132Y-146135509D01*
X194603679Y-146365319D01*
X194603679Y-146824938D01*
X194661132Y-146939842D01*
X194718584Y-146997295D01*
X194833489Y-147054747D01*
X195063298Y-147054747D01*
X195178203Y-146997295D01*
X195235655Y-146939842D01*
X195293108Y-146824938D01*
X195293108Y-146537676D01*
X195235655Y-146422771D01*
X195178203Y-146365319D01*
X195063298Y-146307866D01*
X194833489Y-146307866D01*
X194718584Y-146365319D01*
X194661132Y-146422771D01*
X194603679Y-146537676D01*
%TO.C,X5*%
X179894579Y-145689847D02*
X180698912Y-146896347D01*
X180698912Y-145689847D02*
X179894579Y-146896347D01*
X181733055Y-145689847D02*
X181158532Y-145689847D01*
X181101079Y-146264371D01*
X181158532Y-146206919D01*
X181273436Y-146149466D01*
X181560698Y-146149466D01*
X181675603Y-146206919D01*
X181733055Y-146264371D01*
X181790508Y-146379276D01*
X181790508Y-146666538D01*
X181733055Y-146781442D01*
X181675603Y-146838895D01*
X181560698Y-146896347D01*
X181273436Y-146896347D01*
X181158532Y-146838895D01*
X181101079Y-146781442D01*
D11*
X184223359Y-140165952D02*
X184280811Y-140108500D01*
X184395716Y-140051047D01*
X184682978Y-140051047D01*
X184797883Y-140108500D01*
X184855335Y-140165952D01*
X184912788Y-140280857D01*
X184912788Y-140395761D01*
X184855335Y-140568119D01*
X184165907Y-141257547D01*
X184912788Y-141257547D01*
X179959788Y-141257547D02*
X179270359Y-141257547D01*
X179615073Y-141257547D02*
X179615073Y-140051047D01*
X179500169Y-140223404D01*
X179385264Y-140338309D01*
X179270359Y-140395761D01*
%TO.C,X4*%
D18*
X167594579Y-145789847D02*
X168398912Y-146996347D01*
X168398912Y-145789847D02*
X167594579Y-146996347D01*
X169375603Y-146192014D02*
X169375603Y-146996347D01*
X169088341Y-145732395D02*
X168801079Y-146594180D01*
X169547960Y-146594180D01*
D11*
X171923359Y-140265952D02*
X171980811Y-140208500D01*
X172095716Y-140151047D01*
X172382978Y-140151047D01*
X172497883Y-140208500D01*
X172555335Y-140265952D01*
X172612788Y-140380857D01*
X172612788Y-140495761D01*
X172555335Y-140668119D01*
X171865907Y-141357547D01*
X172612788Y-141357547D01*
X167659788Y-141357547D02*
X166970359Y-141357547D01*
X167315073Y-141357547D02*
X167315073Y-140151047D01*
X167200169Y-140323404D01*
X167085264Y-140438309D01*
X166970359Y-140495761D01*
%TO.C,X3*%
D18*
X154794579Y-145989847D02*
X155598912Y-147196347D01*
X155598912Y-145989847D02*
X154794579Y-147196347D01*
X155943627Y-145989847D02*
X156690508Y-145989847D01*
X156288341Y-146449466D01*
X156460698Y-146449466D01*
X156575603Y-146506919D01*
X156633055Y-146564371D01*
X156690508Y-146679276D01*
X156690508Y-146966538D01*
X156633055Y-147081442D01*
X156575603Y-147138895D01*
X156460698Y-147196347D01*
X156115984Y-147196347D01*
X156001079Y-147138895D01*
X155943627Y-147081442D01*
D11*
X159123359Y-140465952D02*
X159180811Y-140408500D01*
X159295716Y-140351047D01*
X159582978Y-140351047D01*
X159697883Y-140408500D01*
X159755335Y-140465952D01*
X159812788Y-140580857D01*
X159812788Y-140695761D01*
X159755335Y-140868119D01*
X159065907Y-141557547D01*
X159812788Y-141557547D01*
X154859788Y-141557547D02*
X154170359Y-141557547D01*
X154515073Y-141557547D02*
X154515073Y-140351047D01*
X154400169Y-140523404D01*
X154285264Y-140638309D01*
X154170359Y-140695761D01*
%TO.C,X2*%
D18*
X142694579Y-145989847D02*
X143498912Y-147196347D01*
X143498912Y-145989847D02*
X142694579Y-147196347D01*
X143901079Y-146104752D02*
X143958532Y-146047300D01*
X144073436Y-145989847D01*
X144360698Y-145989847D01*
X144475603Y-146047300D01*
X144533055Y-146104752D01*
X144590508Y-146219657D01*
X144590508Y-146334561D01*
X144533055Y-146506919D01*
X143843627Y-147196347D01*
X144590508Y-147196347D01*
D11*
X147023359Y-140465952D02*
X147080811Y-140408500D01*
X147195716Y-140351047D01*
X147482978Y-140351047D01*
X147597883Y-140408500D01*
X147655335Y-140465952D01*
X147712788Y-140580857D01*
X147712788Y-140695761D01*
X147655335Y-140868119D01*
X146965907Y-141557547D01*
X147712788Y-141557547D01*
X142759788Y-141557547D02*
X142070359Y-141557547D01*
X142415073Y-141557547D02*
X142415073Y-140351047D01*
X142300169Y-140523404D01*
X142185264Y-140638309D01*
X142070359Y-140695761D01*
%TO.C,X1*%
D18*
X130894579Y-145919847D02*
X131698912Y-147126347D01*
X131698912Y-145919847D02*
X130894579Y-147126347D01*
X132790508Y-147126347D02*
X132101079Y-147126347D01*
X132445793Y-147126347D02*
X132445793Y-145919847D01*
X132330889Y-146092204D01*
X132215984Y-146207109D01*
X132101079Y-146264561D01*
D11*
X135223359Y-140395952D02*
X135280811Y-140338500D01*
X135395716Y-140281047D01*
X135682978Y-140281047D01*
X135797883Y-140338500D01*
X135855335Y-140395952D01*
X135912788Y-140510857D01*
X135912788Y-140625761D01*
X135855335Y-140798119D01*
X135165907Y-141487547D01*
X135912788Y-141487547D01*
X130959788Y-141487547D02*
X130270359Y-141487547D01*
X130615073Y-141487547D02*
X130615073Y-140281047D01*
X130500169Y-140453404D01*
X130385264Y-140568309D01*
X130270359Y-140625761D01*
%TO.C,U4*%
D17*
X179588095Y-86772380D02*
X179588095Y-87581904D01*
X179635714Y-87677142D01*
X179683333Y-87724761D01*
X179778571Y-87772380D01*
X179969047Y-87772380D01*
X180064285Y-87724761D01*
X180111904Y-87677142D01*
X180159523Y-87581904D01*
X180159523Y-86772380D01*
X181064285Y-87105714D02*
X181064285Y-87772380D01*
X180826190Y-86724761D02*
X180588095Y-87439047D01*
X181207142Y-87439047D01*
%TO.C,U3*%
D18*
X193415084Y-116054447D02*
X193415084Y-117031138D01*
X193472536Y-117146042D01*
X193529989Y-117203495D01*
X193644893Y-117260947D01*
X193874703Y-117260947D01*
X193989608Y-117203495D01*
X194047060Y-117146042D01*
X194104512Y-117031138D01*
X194104512Y-116054447D01*
X194564132Y-116054447D02*
X195311012Y-116054447D01*
X194908846Y-116514066D01*
X195081203Y-116514066D01*
X195196108Y-116571519D01*
X195253560Y-116628971D01*
X195311012Y-116743876D01*
X195311012Y-117031138D01*
X195253560Y-117146042D01*
X195196108Y-117203495D01*
X195081203Y-117260947D01*
X194736489Y-117260947D01*
X194621584Y-117203495D01*
X194564132Y-117146042D01*
D19*
X188707149Y-117629247D02*
X188707149Y-117916509D01*
X188419887Y-117801604D02*
X188707149Y-117916509D01*
X188994410Y-117801604D01*
X188534791Y-118146319D02*
X188707149Y-117916509D01*
X188879506Y-118146319D01*
%TO.C,U2*%
D18*
X166635084Y-78494447D02*
X166635084Y-79471138D01*
X166692536Y-79586042D01*
X166749989Y-79643495D01*
X166864893Y-79700947D01*
X167094703Y-79700947D01*
X167209608Y-79643495D01*
X167267060Y-79586042D01*
X167324512Y-79471138D01*
X167324512Y-78494447D01*
X167841584Y-78609352D02*
X167899036Y-78551900D01*
X168013941Y-78494447D01*
X168301203Y-78494447D01*
X168416108Y-78551900D01*
X168473560Y-78609352D01*
X168531012Y-78724257D01*
X168531012Y-78839161D01*
X168473560Y-79011519D01*
X167784132Y-79700947D01*
X168531012Y-79700947D01*
D19*
X161927149Y-80069247D02*
X161927149Y-80356509D01*
X161639887Y-80241604D02*
X161927149Y-80356509D01*
X162214410Y-80241604D01*
X161754791Y-80586319D02*
X161927149Y-80356509D01*
X162099506Y-80586319D01*
%TO.C,IC2*%
D14*
X167619999Y-120701747D02*
X167619999Y-119495247D01*
X168883952Y-120586842D02*
X168826499Y-120644295D01*
X168654142Y-120701747D01*
X168539238Y-120701747D01*
X168366880Y-120644295D01*
X168251976Y-120529390D01*
X168194523Y-120414485D01*
X168137071Y-120184676D01*
X168137071Y-120012319D01*
X168194523Y-119782509D01*
X168251976Y-119667604D01*
X168366880Y-119552700D01*
X168539238Y-119495247D01*
X168654142Y-119495247D01*
X168826499Y-119552700D01*
X168883952Y-119610152D01*
X169343571Y-119610152D02*
X169401023Y-119552700D01*
X169515928Y-119495247D01*
X169803190Y-119495247D01*
X169918095Y-119552700D01*
X169975547Y-119610152D01*
X170032999Y-119725057D01*
X170032999Y-119839961D01*
X169975547Y-120012319D01*
X169286118Y-120701747D01*
X170032999Y-120701747D01*
%TO.C,IC1*%
X158399999Y-120841747D02*
X158399999Y-119635247D01*
X159663952Y-120726842D02*
X159606499Y-120784295D01*
X159434142Y-120841747D01*
X159319238Y-120841747D01*
X159146880Y-120784295D01*
X159031976Y-120669390D01*
X158974523Y-120554485D01*
X158917071Y-120324676D01*
X158917071Y-120152319D01*
X158974523Y-119922509D01*
X159031976Y-119807604D01*
X159146880Y-119692700D01*
X159319238Y-119635247D01*
X159434142Y-119635247D01*
X159606499Y-119692700D01*
X159663952Y-119750152D01*
X160812999Y-120841747D02*
X160123571Y-120841747D01*
X160468285Y-120841747D02*
X160468285Y-119635247D01*
X160353380Y-119807604D01*
X160238476Y-119922509D01*
X160123571Y-119979961D01*
%TD*%
M02*
