%TF.GenerationSoftware,KiCad,Pcbnew,(5.1.9)-1*%
%TF.CreationDate,2021-09-13T10:00:27+00:00*%
%TF.ProjectId,CZTBoardV3,435a5442-6f61-4726-9456-332e6b696361,rev?*%
%TF.SameCoordinates,Original*%
%TF.FileFunction,Legend,Top*%
%TF.FilePolarity,Positive*%
%FSLAX46Y46*%
G04 Gerber Fmt 4.6, Leading zero omitted, Abs format (unit mm)*
G04 Created by KiCad (PCBNEW (5.1.9)-1) date 2021-09-13 10:00:27*
%MOMM*%
%LPD*%
G01*
G04 APERTURE LIST*
%ADD10C,0.127000*%
%ADD11C,0.152400*%
%ADD12C,0.120000*%
%ADD13C,0.203200*%
%ADD14C,0.077216*%
%ADD15C,0.096520*%
%ADD16C,0.101600*%
%ADD17C,0.150000*%
%ADD18C,0.120650*%
%ADD19C,0.076200*%
G04 APERTURE END LIST*
D10*
%TO.C,U1*%
X155150000Y-73750000D02*
X116090000Y-73750000D01*
X155150000Y-112810000D02*
X155150000Y-73750000D01*
X116090000Y-112810000D02*
X155150000Y-112810000D01*
X116090000Y-73750000D02*
X116090000Y-112810000D01*
X120883400Y-76450500D02*
X123169400Y-76450500D01*
X120883400Y-78228500D02*
X120883400Y-76450500D01*
X119168900Y-78228500D02*
X120883400Y-78228500D01*
X119168900Y-92325500D02*
X119168900Y-78228500D01*
X120883400Y-92325500D02*
X119168900Y-92325500D01*
X120883400Y-94103500D02*
X120883400Y-92325500D01*
X123169400Y-94103500D02*
X120883400Y-94103500D01*
X123169400Y-92325500D02*
X123169400Y-94103500D01*
X124883900Y-92325500D02*
X123169400Y-92325500D01*
X124883900Y-78736500D02*
X124883900Y-92325500D01*
X124058400Y-78736500D02*
X124883900Y-78736500D01*
X124058400Y-78228500D02*
X124058400Y-78736500D01*
X123169400Y-78228500D02*
X124058400Y-78228500D01*
X123169400Y-76450500D02*
X123169400Y-78228500D01*
X139877000Y-92453500D02*
X142163000Y-92453500D01*
X139877000Y-94231500D02*
X139877000Y-92453500D01*
X138162500Y-94231500D02*
X139877000Y-94231500D01*
X138162500Y-108328500D02*
X138162500Y-94231500D01*
X139877000Y-108328500D02*
X138162500Y-108328500D01*
X139877000Y-110106500D02*
X139877000Y-108328500D01*
X142163000Y-110106500D02*
X139877000Y-110106500D01*
X142163000Y-108328500D02*
X142163000Y-110106500D01*
X143877500Y-108328500D02*
X142163000Y-108328500D01*
X143877500Y-94739500D02*
X143877500Y-108328500D01*
X143052000Y-94739500D02*
X143877500Y-94739500D01*
X143052000Y-94231500D02*
X143052000Y-94739500D01*
X142163000Y-94231500D02*
X143052000Y-94231500D01*
X142163000Y-92453500D02*
X142163000Y-94231500D01*
D11*
%TO.C,X6*%
X199601800Y-139760200D02*
G75*
G03*
X199601800Y-139760200I-508000J0D01*
G01*
X204605600Y-139760200D02*
G75*
G03*
X204605600Y-139760200I-508000J0D01*
G01*
X194598000Y-139760200D02*
G75*
G03*
X194598000Y-139760200I-508000J0D01*
G01*
X191601000Y-138439000D02*
X191601000Y-138236000D01*
X206587000Y-138439000D02*
X206587000Y-145043000D01*
X206587000Y-138439000D02*
X191601000Y-138439000D01*
X206587000Y-145043000D02*
X206587000Y-147431000D01*
X191601000Y-145043000D02*
X191601000Y-138439000D01*
X204987000Y-145043000D02*
X206587000Y-145043000D01*
X199983000Y-145043000D02*
X203209000Y-145043000D01*
X194979000Y-145043000D02*
X198205000Y-145043000D01*
X191601000Y-145043000D02*
X193201000Y-145043000D01*
X191601000Y-147431000D02*
X191601000Y-145043000D01*
X206587000Y-138236000D02*
X191601000Y-138236000D01*
X206587000Y-138236000D02*
X206587000Y-138439000D01*
X191601000Y-147431000D02*
X206587000Y-147431000D01*
%TO.C,X5*%
X186501800Y-139740200D02*
G75*
G03*
X186501800Y-139740200I-508000J0D01*
G01*
X181498000Y-139740200D02*
G75*
G03*
X181498000Y-139740200I-508000J0D01*
G01*
X188483000Y-138419000D02*
X188483000Y-145023000D01*
X178501000Y-138419000D02*
X178501000Y-138216000D01*
X178501000Y-138419000D02*
X188483000Y-138419000D01*
X188483000Y-145023000D02*
X188483000Y-147411000D01*
X178501000Y-145023000D02*
X178501000Y-138419000D01*
X186883000Y-145023000D02*
X188483000Y-145023000D01*
X181879000Y-145023000D02*
X185105000Y-145023000D01*
X178501000Y-145023000D02*
X180101000Y-145023000D01*
X178501000Y-147411000D02*
X178501000Y-145023000D01*
X188483000Y-138216000D02*
X178501000Y-138216000D01*
X188483000Y-138216000D02*
X188483000Y-138419000D01*
X178501000Y-147411000D02*
X188483000Y-147411000D01*
%TO.C,X4*%
X174201800Y-139840200D02*
G75*
G03*
X174201800Y-139840200I-508000J0D01*
G01*
X169198000Y-139840200D02*
G75*
G03*
X169198000Y-139840200I-508000J0D01*
G01*
X176183000Y-138519000D02*
X176183000Y-145123000D01*
X166201000Y-138519000D02*
X166201000Y-138316000D01*
X166201000Y-138519000D02*
X176183000Y-138519000D01*
X176183000Y-145123000D02*
X176183000Y-147511000D01*
X166201000Y-145123000D02*
X166201000Y-138519000D01*
X174583000Y-145123000D02*
X176183000Y-145123000D01*
X169579000Y-145123000D02*
X172805000Y-145123000D01*
X166201000Y-145123000D02*
X167801000Y-145123000D01*
X166201000Y-147511000D02*
X166201000Y-145123000D01*
X176183000Y-138316000D02*
X166201000Y-138316000D01*
X176183000Y-138316000D02*
X176183000Y-138519000D01*
X166201000Y-147511000D02*
X176183000Y-147511000D01*
%TO.C,X3*%
X161401800Y-140040200D02*
G75*
G03*
X161401800Y-140040200I-508000J0D01*
G01*
X156398000Y-140040200D02*
G75*
G03*
X156398000Y-140040200I-508000J0D01*
G01*
X163383000Y-138719000D02*
X163383000Y-145323000D01*
X153401000Y-138719000D02*
X153401000Y-138516000D01*
X153401000Y-138719000D02*
X163383000Y-138719000D01*
X163383000Y-145323000D02*
X163383000Y-147711000D01*
X153401000Y-145323000D02*
X153401000Y-138719000D01*
X161783000Y-145323000D02*
X163383000Y-145323000D01*
X156779000Y-145323000D02*
X160005000Y-145323000D01*
X153401000Y-145323000D02*
X155001000Y-145323000D01*
X153401000Y-147711000D02*
X153401000Y-145323000D01*
X163383000Y-138516000D02*
X153401000Y-138516000D01*
X163383000Y-138516000D02*
X163383000Y-138719000D01*
X153401000Y-147711000D02*
X163383000Y-147711000D01*
%TO.C,X2*%
X149301800Y-140040200D02*
G75*
G03*
X149301800Y-140040200I-508000J0D01*
G01*
X144298000Y-140040200D02*
G75*
G03*
X144298000Y-140040200I-508000J0D01*
G01*
X151283000Y-138719000D02*
X151283000Y-145323000D01*
X141301000Y-138719000D02*
X141301000Y-138516000D01*
X141301000Y-138719000D02*
X151283000Y-138719000D01*
X151283000Y-145323000D02*
X151283000Y-147711000D01*
X141301000Y-145323000D02*
X141301000Y-138719000D01*
X149683000Y-145323000D02*
X151283000Y-145323000D01*
X144679000Y-145323000D02*
X147905000Y-145323000D01*
X141301000Y-145323000D02*
X142901000Y-145323000D01*
X141301000Y-147711000D02*
X141301000Y-145323000D01*
X151283000Y-138516000D02*
X141301000Y-138516000D01*
X151283000Y-138516000D02*
X151283000Y-138719000D01*
X141301000Y-147711000D02*
X151283000Y-147711000D01*
%TO.C,X1*%
X137501800Y-139970200D02*
G75*
G03*
X137501800Y-139970200I-508000J0D01*
G01*
X132498000Y-139970200D02*
G75*
G03*
X132498000Y-139970200I-508000J0D01*
G01*
X139483000Y-138649000D02*
X139483000Y-145253000D01*
X129501000Y-138649000D02*
X129501000Y-138446000D01*
X129501000Y-138649000D02*
X139483000Y-138649000D01*
X139483000Y-145253000D02*
X139483000Y-147641000D01*
X129501000Y-145253000D02*
X129501000Y-138649000D01*
X137883000Y-145253000D02*
X139483000Y-145253000D01*
X132879000Y-145253000D02*
X136105000Y-145253000D01*
X129501000Y-145253000D02*
X131101000Y-145253000D01*
X129501000Y-147641000D02*
X129501000Y-145253000D01*
X139483000Y-138446000D02*
X129501000Y-138446000D01*
X139483000Y-138446000D02*
X139483000Y-138649000D01*
X129501000Y-147641000D02*
X139483000Y-147641000D01*
D12*
%TO.C,U4*%
X178190000Y-88220000D02*
X179800000Y-88220000D01*
X178190000Y-88220000D02*
X178190000Y-90220000D01*
X178470000Y-100760000D02*
X178470000Y-88510000D01*
X184230000Y-100760000D02*
X178470000Y-100760000D01*
X184230000Y-88500000D02*
X184230000Y-100760000D01*
X178480000Y-88500000D02*
X184220000Y-88500000D01*
D11*
%TO.C,U3*%
X195208400Y-127122800D02*
X195208400Y-126767200D01*
X195462400Y-127122800D02*
X195208400Y-127122800D01*
X195462400Y-126767200D02*
X195462400Y-127122800D01*
X191195200Y-118766200D02*
X190204600Y-118766200D01*
X191804800Y-118766200D02*
X191195200Y-118766200D01*
X192795400Y-118766200D02*
X191804800Y-118766200D01*
X190204600Y-128773800D02*
X192795400Y-128773800D01*
D12*
X191195200Y-118766200D02*
G75*
G03*
X191804800Y-118766200I304800J0D01*
G01*
D11*
%TO.C,U2*%
X168428400Y-89562800D02*
X168428400Y-89207200D01*
X168682400Y-89562800D02*
X168428400Y-89562800D01*
X168682400Y-89207200D02*
X168682400Y-89562800D01*
X164415200Y-81206200D02*
X163424600Y-81206200D01*
X165024800Y-81206200D02*
X164415200Y-81206200D01*
X166015400Y-81206200D02*
X165024800Y-81206200D01*
X163424600Y-91213800D02*
X166015400Y-91213800D01*
D12*
X164415200Y-81206200D02*
G75*
G03*
X165024800Y-81206200I304800J0D01*
G01*
D13*
%TO.C,IC2*%
X166533000Y-119032000D02*
X173087000Y-119032000D01*
X166533000Y-122588000D02*
X166533000Y-119032000D01*
X173087000Y-122588000D02*
X166533000Y-122588000D01*
X173087000Y-119032000D02*
X173087000Y-122588000D01*
%TO.C,IC1*%
X157313000Y-119172000D02*
X163867000Y-119172000D01*
X157313000Y-122728000D02*
X157313000Y-119172000D01*
X163867000Y-122728000D02*
X157313000Y-122728000D01*
X163867000Y-119172000D02*
X163867000Y-122728000D01*
%TO.C,C14*%
D14*
X182721542Y-105512114D02*
X182675580Y-105558076D01*
X182537695Y-105604038D01*
X182445771Y-105604038D01*
X182307885Y-105558076D01*
X182215961Y-105466152D01*
X182169999Y-105374228D01*
X182124038Y-105190380D01*
X182124038Y-105052495D01*
X182169999Y-104868647D01*
X182215961Y-104776723D01*
X182307885Y-104684800D01*
X182445771Y-104638838D01*
X182537695Y-104638838D01*
X182675580Y-104684800D01*
X182721542Y-104730761D01*
X183640780Y-105604038D02*
X183089238Y-105604038D01*
X183365009Y-105604038D02*
X183365009Y-104638838D01*
X183273085Y-104776723D01*
X183181161Y-104868647D01*
X183089238Y-104914609D01*
X184468095Y-104960571D02*
X184468095Y-105604038D01*
X184238285Y-104592876D02*
X184008476Y-105282304D01*
X184605980Y-105282304D01*
%TO.C,C11*%
X185821542Y-112512114D02*
X185775580Y-112558076D01*
X185637695Y-112604038D01*
X185545771Y-112604038D01*
X185407885Y-112558076D01*
X185315961Y-112466152D01*
X185269999Y-112374228D01*
X185224038Y-112190380D01*
X185224038Y-112052495D01*
X185269999Y-111868647D01*
X185315961Y-111776723D01*
X185407885Y-111684800D01*
X185545771Y-111638838D01*
X185637695Y-111638838D01*
X185775580Y-111684800D01*
X185821542Y-111730761D01*
X186740780Y-112604038D02*
X186189238Y-112604038D01*
X186465009Y-112604038D02*
X186465009Y-111638838D01*
X186373085Y-111776723D01*
X186281161Y-111868647D01*
X186189238Y-111914609D01*
X187660018Y-112604038D02*
X187108476Y-112604038D01*
X187384247Y-112604038D02*
X187384247Y-111638838D01*
X187292323Y-111776723D01*
X187200399Y-111868647D01*
X187108476Y-111914609D01*
%TO.C,C12*%
X182621542Y-112512114D02*
X182575580Y-112558076D01*
X182437695Y-112604038D01*
X182345771Y-112604038D01*
X182207885Y-112558076D01*
X182115961Y-112466152D01*
X182069999Y-112374228D01*
X182024038Y-112190380D01*
X182024038Y-112052495D01*
X182069999Y-111868647D01*
X182115961Y-111776723D01*
X182207885Y-111684800D01*
X182345771Y-111638838D01*
X182437695Y-111638838D01*
X182575580Y-111684800D01*
X182621542Y-111730761D01*
X183540780Y-112604038D02*
X182989238Y-112604038D01*
X183265009Y-112604038D02*
X183265009Y-111638838D01*
X183173085Y-111776723D01*
X183081161Y-111868647D01*
X182989238Y-111914609D01*
X183908476Y-111730761D02*
X183954438Y-111684800D01*
X184046361Y-111638838D01*
X184276171Y-111638838D01*
X184368095Y-111684800D01*
X184414057Y-111730761D01*
X184460018Y-111822685D01*
X184460018Y-111914609D01*
X184414057Y-112052495D01*
X183862514Y-112604038D01*
X184460018Y-112604038D01*
%TO.C,C13*%
X182721542Y-109812114D02*
X182675580Y-109858076D01*
X182537695Y-109904038D01*
X182445771Y-109904038D01*
X182307885Y-109858076D01*
X182215961Y-109766152D01*
X182169999Y-109674228D01*
X182124038Y-109490380D01*
X182124038Y-109352495D01*
X182169999Y-109168647D01*
X182215961Y-109076723D01*
X182307885Y-108984800D01*
X182445771Y-108938838D01*
X182537695Y-108938838D01*
X182675580Y-108984800D01*
X182721542Y-109030761D01*
X183640780Y-109904038D02*
X183089238Y-109904038D01*
X183365009Y-109904038D02*
X183365009Y-108938838D01*
X183273085Y-109076723D01*
X183181161Y-109168647D01*
X183089238Y-109214609D01*
X183962514Y-108938838D02*
X184560018Y-108938838D01*
X184238285Y-109306533D01*
X184376171Y-109306533D01*
X184468095Y-109352495D01*
X184514057Y-109398457D01*
X184560018Y-109490380D01*
X184560018Y-109720190D01*
X184514057Y-109812114D01*
X184468095Y-109858076D01*
X184376171Y-109904038D01*
X184100399Y-109904038D01*
X184008476Y-109858076D01*
X183962514Y-109812114D01*
%TO.C,C6*%
X189021542Y-112512114D02*
X188975580Y-112558076D01*
X188837695Y-112604038D01*
X188745771Y-112604038D01*
X188607885Y-112558076D01*
X188515961Y-112466152D01*
X188469999Y-112374228D01*
X188424038Y-112190380D01*
X188424038Y-112052495D01*
X188469999Y-111868647D01*
X188515961Y-111776723D01*
X188607885Y-111684800D01*
X188745771Y-111638838D01*
X188837695Y-111638838D01*
X188975580Y-111684800D01*
X189021542Y-111730761D01*
X189848857Y-111638838D02*
X189665009Y-111638838D01*
X189573085Y-111684800D01*
X189527123Y-111730761D01*
X189435199Y-111868647D01*
X189389238Y-112052495D01*
X189389238Y-112420190D01*
X189435199Y-112512114D01*
X189481161Y-112558076D01*
X189573085Y-112604038D01*
X189756933Y-112604038D01*
X189848857Y-112558076D01*
X189894818Y-112512114D01*
X189940780Y-112420190D01*
X189940780Y-112190380D01*
X189894818Y-112098457D01*
X189848857Y-112052495D01*
X189756933Y-112006533D01*
X189573085Y-112006533D01*
X189481161Y-112052495D01*
X189435199Y-112098457D01*
X189389238Y-112190380D01*
%TO.C,C3*%
X171936723Y-114112114D02*
X171890761Y-114158076D01*
X171752876Y-114204038D01*
X171660952Y-114204038D01*
X171523066Y-114158076D01*
X171431142Y-114066152D01*
X171385181Y-113974228D01*
X171339219Y-113790380D01*
X171339219Y-113652495D01*
X171385181Y-113468647D01*
X171431142Y-113376723D01*
X171523066Y-113284800D01*
X171660952Y-113238838D01*
X171752876Y-113238838D01*
X171890761Y-113284800D01*
X171936723Y-113330761D01*
X172258457Y-113238838D02*
X172855961Y-113238838D01*
X172534228Y-113606533D01*
X172672114Y-113606533D01*
X172764038Y-113652495D01*
X172810000Y-113698457D01*
X172855961Y-113790380D01*
X172855961Y-114020190D01*
X172810000Y-114112114D01*
X172764038Y-114158076D01*
X172672114Y-114204038D01*
X172396342Y-114204038D01*
X172304419Y-114158076D01*
X172258457Y-114112114D01*
%TO.C,C4*%
X167936723Y-116212114D02*
X167890761Y-116258076D01*
X167752876Y-116304038D01*
X167660952Y-116304038D01*
X167523066Y-116258076D01*
X167431142Y-116166152D01*
X167385181Y-116074228D01*
X167339219Y-115890380D01*
X167339219Y-115752495D01*
X167385181Y-115568647D01*
X167431142Y-115476723D01*
X167523066Y-115384800D01*
X167660952Y-115338838D01*
X167752876Y-115338838D01*
X167890761Y-115384800D01*
X167936723Y-115430761D01*
X168764038Y-115660571D02*
X168764038Y-116304038D01*
X168534228Y-115292876D02*
X168304419Y-115982304D01*
X168901923Y-115982304D01*
%TO.C,C2*%
X163036723Y-112612114D02*
X162990761Y-112658076D01*
X162852876Y-112704038D01*
X162760952Y-112704038D01*
X162623066Y-112658076D01*
X162531142Y-112566152D01*
X162485181Y-112474228D01*
X162439219Y-112290380D01*
X162439219Y-112152495D01*
X162485181Y-111968647D01*
X162531142Y-111876723D01*
X162623066Y-111784800D01*
X162760952Y-111738838D01*
X162852876Y-111738838D01*
X162990761Y-111784800D01*
X163036723Y-111830761D01*
X163404419Y-111830761D02*
X163450381Y-111784800D01*
X163542304Y-111738838D01*
X163772114Y-111738838D01*
X163864038Y-111784800D01*
X163910000Y-111830761D01*
X163955961Y-111922685D01*
X163955961Y-112014609D01*
X163910000Y-112152495D01*
X163358457Y-112704038D01*
X163955961Y-112704038D01*
%TO.C,R1*%
D15*
X159429428Y-92192547D02*
X159027261Y-91618023D01*
X158739999Y-92192547D02*
X158739999Y-90986047D01*
X159199618Y-90986047D01*
X159314523Y-91043500D01*
X159371976Y-91100952D01*
X159429428Y-91215857D01*
X159429428Y-91388214D01*
X159371976Y-91503119D01*
X159314523Y-91560571D01*
X159199618Y-91618023D01*
X158739999Y-91618023D01*
X160578476Y-92192547D02*
X159889047Y-92192547D01*
X160233761Y-92192547D02*
X160233761Y-90986047D01*
X160118857Y-91158404D01*
X160003952Y-91273309D01*
X159889047Y-91330761D01*
%TO.C,R2*%
X172448404Y-105292547D02*
X172046238Y-104718023D01*
X171758976Y-105292547D02*
X171758976Y-104086047D01*
X172218595Y-104086047D01*
X172333500Y-104143500D01*
X172390952Y-104200952D01*
X172448404Y-104315857D01*
X172448404Y-104488214D01*
X172390952Y-104603119D01*
X172333500Y-104660571D01*
X172218595Y-104718023D01*
X171758976Y-104718023D01*
X172908023Y-104200952D02*
X172965476Y-104143500D01*
X173080381Y-104086047D01*
X173367642Y-104086047D01*
X173482547Y-104143500D01*
X173540000Y-104200952D01*
X173597452Y-104315857D01*
X173597452Y-104430761D01*
X173540000Y-104603119D01*
X172850571Y-105292547D01*
X173597452Y-105292547D01*
%TO.C,R3*%
X170929428Y-88992547D02*
X170527261Y-88418023D01*
X170239999Y-88992547D02*
X170239999Y-87786047D01*
X170699618Y-87786047D01*
X170814523Y-87843500D01*
X170871976Y-87900952D01*
X170929428Y-88015857D01*
X170929428Y-88188214D01*
X170871976Y-88303119D01*
X170814523Y-88360571D01*
X170699618Y-88418023D01*
X170239999Y-88418023D01*
X171331595Y-87786047D02*
X172078476Y-87786047D01*
X171676309Y-88245666D01*
X171848666Y-88245666D01*
X171963571Y-88303119D01*
X172021023Y-88360571D01*
X172078476Y-88475476D01*
X172078476Y-88762738D01*
X172021023Y-88877642D01*
X171963571Y-88935095D01*
X171848666Y-88992547D01*
X171503952Y-88992547D01*
X171389047Y-88935095D01*
X171331595Y-88877642D01*
%TO.C,R4*%
X142948404Y-122792547D02*
X142546238Y-122218023D01*
X142258976Y-122792547D02*
X142258976Y-121586047D01*
X142718595Y-121586047D01*
X142833500Y-121643500D01*
X142890952Y-121700952D01*
X142948404Y-121815857D01*
X142948404Y-121988214D01*
X142890952Y-122103119D01*
X142833500Y-122160571D01*
X142718595Y-122218023D01*
X142258976Y-122218023D01*
X143982547Y-121988214D02*
X143982547Y-122792547D01*
X143695285Y-121528595D02*
X143408023Y-122390380D01*
X144154904Y-122390380D01*
%TO.C,R9*%
X160948404Y-105392547D02*
X160546238Y-104818023D01*
X160258976Y-105392547D02*
X160258976Y-104186047D01*
X160718595Y-104186047D01*
X160833500Y-104243500D01*
X160890952Y-104300952D01*
X160948404Y-104415857D01*
X160948404Y-104588214D01*
X160890952Y-104703119D01*
X160833500Y-104760571D01*
X160718595Y-104818023D01*
X160258976Y-104818023D01*
X161522928Y-105392547D02*
X161752738Y-105392547D01*
X161867642Y-105335095D01*
X161925095Y-105277642D01*
X162040000Y-105105285D01*
X162097452Y-104875476D01*
X162097452Y-104415857D01*
X162040000Y-104300952D01*
X161982547Y-104243500D01*
X161867642Y-104186047D01*
X161637833Y-104186047D01*
X161522928Y-104243500D01*
X161465476Y-104300952D01*
X161408023Y-104415857D01*
X161408023Y-104703119D01*
X161465476Y-104818023D01*
X161522928Y-104875476D01*
X161637833Y-104932928D01*
X161867642Y-104932928D01*
X161982547Y-104875476D01*
X162040000Y-104818023D01*
X162097452Y-104703119D01*
%TO.C,R10*%
X154699357Y-121392547D02*
X154297190Y-120818023D01*
X154009928Y-121392547D02*
X154009928Y-120186047D01*
X154469547Y-120186047D01*
X154584452Y-120243500D01*
X154641904Y-120300952D01*
X154699357Y-120415857D01*
X154699357Y-120588214D01*
X154641904Y-120703119D01*
X154584452Y-120760571D01*
X154469547Y-120818023D01*
X154009928Y-120818023D01*
X155848404Y-121392547D02*
X155158976Y-121392547D01*
X155503690Y-121392547D02*
X155503690Y-120186047D01*
X155388785Y-120358404D01*
X155273881Y-120473309D01*
X155158976Y-120530761D01*
X156595285Y-120186047D02*
X156710190Y-120186047D01*
X156825095Y-120243500D01*
X156882547Y-120300952D01*
X156940000Y-120415857D01*
X156997452Y-120645666D01*
X156997452Y-120932928D01*
X156940000Y-121162738D01*
X156882547Y-121277642D01*
X156825095Y-121335095D01*
X156710190Y-121392547D01*
X156595285Y-121392547D01*
X156480381Y-121335095D01*
X156422928Y-121277642D01*
X156365476Y-121162738D01*
X156308023Y-120932928D01*
X156308023Y-120645666D01*
X156365476Y-120415857D01*
X156422928Y-120300952D01*
X156480381Y-120243500D01*
X156595285Y-120186047D01*
%TO.C,R11*%
X147399357Y-118192547D02*
X146997190Y-117618023D01*
X146709928Y-118192547D02*
X146709928Y-116986047D01*
X147169547Y-116986047D01*
X147284452Y-117043500D01*
X147341904Y-117100952D01*
X147399357Y-117215857D01*
X147399357Y-117388214D01*
X147341904Y-117503119D01*
X147284452Y-117560571D01*
X147169547Y-117618023D01*
X146709928Y-117618023D01*
X148548404Y-118192547D02*
X147858976Y-118192547D01*
X148203690Y-118192547D02*
X148203690Y-116986047D01*
X148088785Y-117158404D01*
X147973881Y-117273309D01*
X147858976Y-117330761D01*
X149697452Y-118192547D02*
X149008023Y-118192547D01*
X149352738Y-118192547D02*
X149352738Y-116986047D01*
X149237833Y-117158404D01*
X149122928Y-117273309D01*
X149008023Y-117330761D01*
%TO.C,R12*%
X168929428Y-105392547D02*
X168527261Y-104818023D01*
X168239999Y-105392547D02*
X168239999Y-104186047D01*
X168699618Y-104186047D01*
X168814523Y-104243500D01*
X168871976Y-104300952D01*
X168929428Y-104415857D01*
X168929428Y-104588214D01*
X168871976Y-104703119D01*
X168814523Y-104760571D01*
X168699618Y-104818023D01*
X168239999Y-104818023D01*
X170078476Y-105392547D02*
X169389047Y-105392547D01*
X169733761Y-105392547D02*
X169733761Y-104186047D01*
X169618857Y-104358404D01*
X169503952Y-104473309D01*
X169389047Y-104530761D01*
X170538095Y-104300952D02*
X170595547Y-104243500D01*
X170710452Y-104186047D01*
X170997714Y-104186047D01*
X171112618Y-104243500D01*
X171170071Y-104300952D01*
X171227523Y-104415857D01*
X171227523Y-104530761D01*
X171170071Y-104703119D01*
X170480642Y-105392547D01*
X171227523Y-105392547D01*
%TO.C,R13*%
X174899357Y-105192547D02*
X174497190Y-104618023D01*
X174209928Y-105192547D02*
X174209928Y-103986047D01*
X174669547Y-103986047D01*
X174784452Y-104043500D01*
X174841904Y-104100952D01*
X174899357Y-104215857D01*
X174899357Y-104388214D01*
X174841904Y-104503119D01*
X174784452Y-104560571D01*
X174669547Y-104618023D01*
X174209928Y-104618023D01*
X176048404Y-105192547D02*
X175358976Y-105192547D01*
X175703690Y-105192547D02*
X175703690Y-103986047D01*
X175588785Y-104158404D01*
X175473881Y-104273309D01*
X175358976Y-104330761D01*
X176450571Y-103986047D02*
X177197452Y-103986047D01*
X176795285Y-104445666D01*
X176967642Y-104445666D01*
X177082547Y-104503119D01*
X177140000Y-104560571D01*
X177197452Y-104675476D01*
X177197452Y-104962738D01*
X177140000Y-105077642D01*
X177082547Y-105135095D01*
X176967642Y-105192547D01*
X176622928Y-105192547D01*
X176508023Y-105135095D01*
X176450571Y-105077642D01*
%TO.C,R14*%
X165599357Y-111592547D02*
X165197190Y-111018023D01*
X164909928Y-111592547D02*
X164909928Y-110386047D01*
X165369547Y-110386047D01*
X165484452Y-110443500D01*
X165541904Y-110500952D01*
X165599357Y-110615857D01*
X165599357Y-110788214D01*
X165541904Y-110903119D01*
X165484452Y-110960571D01*
X165369547Y-111018023D01*
X164909928Y-111018023D01*
X166748404Y-111592547D02*
X166058976Y-111592547D01*
X166403690Y-111592547D02*
X166403690Y-110386047D01*
X166288785Y-110558404D01*
X166173881Y-110673309D01*
X166058976Y-110730761D01*
X167782547Y-110788214D02*
X167782547Y-111592547D01*
X167495285Y-110328595D02*
X167208023Y-111190380D01*
X167954904Y-111190380D01*
%TO.C,R15*%
X157599357Y-111892547D02*
X157197190Y-111318023D01*
X156909928Y-111892547D02*
X156909928Y-110686047D01*
X157369547Y-110686047D01*
X157484452Y-110743500D01*
X157541904Y-110800952D01*
X157599357Y-110915857D01*
X157599357Y-111088214D01*
X157541904Y-111203119D01*
X157484452Y-111260571D01*
X157369547Y-111318023D01*
X156909928Y-111318023D01*
X158748404Y-111892547D02*
X158058976Y-111892547D01*
X158403690Y-111892547D02*
X158403690Y-110686047D01*
X158288785Y-110858404D01*
X158173881Y-110973309D01*
X158058976Y-111030761D01*
X159840000Y-110686047D02*
X159265476Y-110686047D01*
X159208023Y-111260571D01*
X159265476Y-111203119D01*
X159380381Y-111145666D01*
X159667642Y-111145666D01*
X159782547Y-111203119D01*
X159840000Y-111260571D01*
X159897452Y-111375476D01*
X159897452Y-111662738D01*
X159840000Y-111777642D01*
X159782547Y-111835095D01*
X159667642Y-111892547D01*
X159380381Y-111892547D01*
X159265476Y-111835095D01*
X159208023Y-111777642D01*
%TO.C,R16*%
X163199357Y-105092547D02*
X162797190Y-104518023D01*
X162509928Y-105092547D02*
X162509928Y-103886047D01*
X162969547Y-103886047D01*
X163084452Y-103943500D01*
X163141904Y-104000952D01*
X163199357Y-104115857D01*
X163199357Y-104288214D01*
X163141904Y-104403119D01*
X163084452Y-104460571D01*
X162969547Y-104518023D01*
X162509928Y-104518023D01*
X164348404Y-105092547D02*
X163658976Y-105092547D01*
X164003690Y-105092547D02*
X164003690Y-103886047D01*
X163888785Y-104058404D01*
X163773881Y-104173309D01*
X163658976Y-104230761D01*
X165382547Y-103886047D02*
X165152738Y-103886047D01*
X165037833Y-103943500D01*
X164980381Y-104000952D01*
X164865476Y-104173309D01*
X164808023Y-104403119D01*
X164808023Y-104862738D01*
X164865476Y-104977642D01*
X164922928Y-105035095D01*
X165037833Y-105092547D01*
X165267642Y-105092547D01*
X165382547Y-105035095D01*
X165440000Y-104977642D01*
X165497452Y-104862738D01*
X165497452Y-104575476D01*
X165440000Y-104460571D01*
X165382547Y-104403119D01*
X165267642Y-104345666D01*
X165037833Y-104345666D01*
X164922928Y-104403119D01*
X164865476Y-104460571D01*
X164808023Y-104575476D01*
%TO.C,R17*%
X198099357Y-130192547D02*
X197697190Y-129618023D01*
X197409928Y-130192547D02*
X197409928Y-128986047D01*
X197869547Y-128986047D01*
X197984452Y-129043500D01*
X198041904Y-129100952D01*
X198099357Y-129215857D01*
X198099357Y-129388214D01*
X198041904Y-129503119D01*
X197984452Y-129560571D01*
X197869547Y-129618023D01*
X197409928Y-129618023D01*
X199248404Y-130192547D02*
X198558976Y-130192547D01*
X198903690Y-130192547D02*
X198903690Y-128986047D01*
X198788785Y-129158404D01*
X198673881Y-129273309D01*
X198558976Y-129330761D01*
X199650571Y-128986047D02*
X200454904Y-128986047D01*
X199937833Y-130192547D01*
%TO.C,R18*%
X141629428Y-129392547D02*
X141227261Y-128818023D01*
X140939999Y-129392547D02*
X140939999Y-128186047D01*
X141399618Y-128186047D01*
X141514523Y-128243500D01*
X141571976Y-128300952D01*
X141629428Y-128415857D01*
X141629428Y-128588214D01*
X141571976Y-128703119D01*
X141514523Y-128760571D01*
X141399618Y-128818023D01*
X140939999Y-128818023D01*
X142778476Y-129392547D02*
X142089047Y-129392547D01*
X142433761Y-129392547D02*
X142433761Y-128186047D01*
X142318857Y-128358404D01*
X142203952Y-128473309D01*
X142089047Y-128530761D01*
X143467904Y-128703119D02*
X143352999Y-128645666D01*
X143295547Y-128588214D01*
X143238095Y-128473309D01*
X143238095Y-128415857D01*
X143295547Y-128300952D01*
X143352999Y-128243500D01*
X143467904Y-128186047D01*
X143697714Y-128186047D01*
X143812618Y-128243500D01*
X143870071Y-128300952D01*
X143927523Y-128415857D01*
X143927523Y-128473309D01*
X143870071Y-128588214D01*
X143812618Y-128645666D01*
X143697714Y-128703119D01*
X143467904Y-128703119D01*
X143352999Y-128760571D01*
X143295547Y-128818023D01*
X143238095Y-128932928D01*
X143238095Y-129162738D01*
X143295547Y-129277642D01*
X143352999Y-129335095D01*
X143467904Y-129392547D01*
X143697714Y-129392547D01*
X143812618Y-129335095D01*
X143870071Y-129277642D01*
X143927523Y-129162738D01*
X143927523Y-128932928D01*
X143870071Y-128818023D01*
X143812618Y-128760571D01*
X143697714Y-128703119D01*
%TO.C,R21*%
X180029428Y-118892547D02*
X179627261Y-118318023D01*
X179339999Y-118892547D02*
X179339999Y-117686047D01*
X179799618Y-117686047D01*
X179914523Y-117743500D01*
X179971976Y-117800952D01*
X180029428Y-117915857D01*
X180029428Y-118088214D01*
X179971976Y-118203119D01*
X179914523Y-118260571D01*
X179799618Y-118318023D01*
X179339999Y-118318023D01*
X180489047Y-117800952D02*
X180546499Y-117743500D01*
X180661404Y-117686047D01*
X180948666Y-117686047D01*
X181063571Y-117743500D01*
X181121023Y-117800952D01*
X181178476Y-117915857D01*
X181178476Y-118030761D01*
X181121023Y-118203119D01*
X180431595Y-118892547D01*
X181178476Y-118892547D01*
X182327523Y-118892547D02*
X181638095Y-118892547D01*
X181982809Y-118892547D02*
X181982809Y-117686047D01*
X181867904Y-117858404D01*
X181752999Y-117973309D01*
X181638095Y-118030761D01*
%TO.C,U1*%
X135184047Y-97882000D02*
X136160738Y-97882000D01*
X136275642Y-97824547D01*
X136333095Y-97767095D01*
X136390547Y-97652190D01*
X136390547Y-97422381D01*
X136333095Y-97307476D01*
X136275642Y-97250023D01*
X136160738Y-97192571D01*
X135184047Y-97192571D01*
X136390547Y-95986071D02*
X136390547Y-96675500D01*
X136390547Y-96330785D02*
X135184047Y-96330785D01*
X135356404Y-96445690D01*
X135471309Y-96560595D01*
X135528761Y-96675500D01*
D16*
X124179352Y-90061150D02*
X124121900Y-90003698D01*
X124064447Y-89888793D01*
X124064447Y-89601531D01*
X124121900Y-89486626D01*
X124179352Y-89429174D01*
X124294257Y-89371721D01*
X124409161Y-89371721D01*
X124581519Y-89429174D01*
X125270947Y-90118602D01*
X125270947Y-89371721D01*
X117396947Y-89371721D02*
X117396947Y-90061150D01*
X117396947Y-89716436D02*
X116190447Y-89716436D01*
X116362804Y-89831340D01*
X116477709Y-89946245D01*
X116535161Y-90061150D01*
X143172952Y-106064150D02*
X143115500Y-106006698D01*
X143058047Y-105891793D01*
X143058047Y-105604531D01*
X143115500Y-105489626D01*
X143172952Y-105432174D01*
X143287857Y-105374721D01*
X143402761Y-105374721D01*
X143575119Y-105432174D01*
X144264547Y-106121602D01*
X144264547Y-105374721D01*
X136390547Y-105374721D02*
X136390547Y-106064150D01*
X136390547Y-105719436D02*
X135184047Y-105719436D01*
X135356404Y-105834340D01*
X135471309Y-105949245D01*
X135528761Y-106064150D01*
%TO.C,mount*%
D17*
X200958571Y-66912380D02*
X200958571Y-66245714D01*
X200958571Y-66340952D02*
X201006190Y-66293333D01*
X201101428Y-66245714D01*
X201244285Y-66245714D01*
X201339523Y-66293333D01*
X201387142Y-66388571D01*
X201387142Y-66912380D01*
X201387142Y-66388571D02*
X201434761Y-66293333D01*
X201530000Y-66245714D01*
X201672857Y-66245714D01*
X201768095Y-66293333D01*
X201815714Y-66388571D01*
X201815714Y-66912380D01*
X202434761Y-66912380D02*
X202339523Y-66864761D01*
X202291904Y-66817142D01*
X202244285Y-66721904D01*
X202244285Y-66436190D01*
X202291904Y-66340952D01*
X202339523Y-66293333D01*
X202434761Y-66245714D01*
X202577619Y-66245714D01*
X202672857Y-66293333D01*
X202720476Y-66340952D01*
X202768095Y-66436190D01*
X202768095Y-66721904D01*
X202720476Y-66817142D01*
X202672857Y-66864761D01*
X202577619Y-66912380D01*
X202434761Y-66912380D01*
X203625238Y-66245714D02*
X203625238Y-66912380D01*
X203196666Y-66245714D02*
X203196666Y-66769523D01*
X203244285Y-66864761D01*
X203339523Y-66912380D01*
X203482380Y-66912380D01*
X203577619Y-66864761D01*
X203625238Y-66817142D01*
X204101428Y-66245714D02*
X204101428Y-66912380D01*
X204101428Y-66340952D02*
X204149047Y-66293333D01*
X204244285Y-66245714D01*
X204387142Y-66245714D01*
X204482380Y-66293333D01*
X204530000Y-66388571D01*
X204530000Y-66912380D01*
X204863333Y-66245714D02*
X205244285Y-66245714D01*
X205006190Y-65912380D02*
X205006190Y-66769523D01*
X205053809Y-66864761D01*
X205149047Y-66912380D01*
X205244285Y-66912380D01*
X114878571Y-150632380D02*
X114878571Y-149965714D01*
X114878571Y-150060952D02*
X114926190Y-150013333D01*
X115021428Y-149965714D01*
X115164285Y-149965714D01*
X115259523Y-150013333D01*
X115307142Y-150108571D01*
X115307142Y-150632380D01*
X115307142Y-150108571D02*
X115354761Y-150013333D01*
X115450000Y-149965714D01*
X115592857Y-149965714D01*
X115688095Y-150013333D01*
X115735714Y-150108571D01*
X115735714Y-150632380D01*
X116354761Y-150632380D02*
X116259523Y-150584761D01*
X116211904Y-150537142D01*
X116164285Y-150441904D01*
X116164285Y-150156190D01*
X116211904Y-150060952D01*
X116259523Y-150013333D01*
X116354761Y-149965714D01*
X116497619Y-149965714D01*
X116592857Y-150013333D01*
X116640476Y-150060952D01*
X116688095Y-150156190D01*
X116688095Y-150441904D01*
X116640476Y-150537142D01*
X116592857Y-150584761D01*
X116497619Y-150632380D01*
X116354761Y-150632380D01*
X117545238Y-149965714D02*
X117545238Y-150632380D01*
X117116666Y-149965714D02*
X117116666Y-150489523D01*
X117164285Y-150584761D01*
X117259523Y-150632380D01*
X117402380Y-150632380D01*
X117497619Y-150584761D01*
X117545238Y-150537142D01*
X118021428Y-149965714D02*
X118021428Y-150632380D01*
X118021428Y-150060952D02*
X118069047Y-150013333D01*
X118164285Y-149965714D01*
X118307142Y-149965714D01*
X118402380Y-150013333D01*
X118450000Y-150108571D01*
X118450000Y-150632380D01*
X118783333Y-149965714D02*
X119164285Y-149965714D01*
X118926190Y-149632380D02*
X118926190Y-150489523D01*
X118973809Y-150584761D01*
X119069047Y-150632380D01*
X119164285Y-150632380D01*
X200548571Y-150872380D02*
X200548571Y-150205714D01*
X200548571Y-150300952D02*
X200596190Y-150253333D01*
X200691428Y-150205714D01*
X200834285Y-150205714D01*
X200929523Y-150253333D01*
X200977142Y-150348571D01*
X200977142Y-150872380D01*
X200977142Y-150348571D02*
X201024761Y-150253333D01*
X201120000Y-150205714D01*
X201262857Y-150205714D01*
X201358095Y-150253333D01*
X201405714Y-150348571D01*
X201405714Y-150872380D01*
X202024761Y-150872380D02*
X201929523Y-150824761D01*
X201881904Y-150777142D01*
X201834285Y-150681904D01*
X201834285Y-150396190D01*
X201881904Y-150300952D01*
X201929523Y-150253333D01*
X202024761Y-150205714D01*
X202167619Y-150205714D01*
X202262857Y-150253333D01*
X202310476Y-150300952D01*
X202358095Y-150396190D01*
X202358095Y-150681904D01*
X202310476Y-150777142D01*
X202262857Y-150824761D01*
X202167619Y-150872380D01*
X202024761Y-150872380D01*
X203215238Y-150205714D02*
X203215238Y-150872380D01*
X202786666Y-150205714D02*
X202786666Y-150729523D01*
X202834285Y-150824761D01*
X202929523Y-150872380D01*
X203072380Y-150872380D01*
X203167619Y-150824761D01*
X203215238Y-150777142D01*
X203691428Y-150205714D02*
X203691428Y-150872380D01*
X203691428Y-150300952D02*
X203739047Y-150253333D01*
X203834285Y-150205714D01*
X203977142Y-150205714D01*
X204072380Y-150253333D01*
X204120000Y-150348571D01*
X204120000Y-150872380D01*
X204453333Y-150205714D02*
X204834285Y-150205714D01*
X204596190Y-149872380D02*
X204596190Y-150729523D01*
X204643809Y-150824761D01*
X204739047Y-150872380D01*
X204834285Y-150872380D01*
X115038571Y-66012380D02*
X115038571Y-65345714D01*
X115038571Y-65440952D02*
X115086190Y-65393333D01*
X115181428Y-65345714D01*
X115324285Y-65345714D01*
X115419523Y-65393333D01*
X115467142Y-65488571D01*
X115467142Y-66012380D01*
X115467142Y-65488571D02*
X115514761Y-65393333D01*
X115610000Y-65345714D01*
X115752857Y-65345714D01*
X115848095Y-65393333D01*
X115895714Y-65488571D01*
X115895714Y-66012380D01*
X116514761Y-66012380D02*
X116419523Y-65964761D01*
X116371904Y-65917142D01*
X116324285Y-65821904D01*
X116324285Y-65536190D01*
X116371904Y-65440952D01*
X116419523Y-65393333D01*
X116514761Y-65345714D01*
X116657619Y-65345714D01*
X116752857Y-65393333D01*
X116800476Y-65440952D01*
X116848095Y-65536190D01*
X116848095Y-65821904D01*
X116800476Y-65917142D01*
X116752857Y-65964761D01*
X116657619Y-66012380D01*
X116514761Y-66012380D01*
X117705238Y-65345714D02*
X117705238Y-66012380D01*
X117276666Y-65345714D02*
X117276666Y-65869523D01*
X117324285Y-65964761D01*
X117419523Y-66012380D01*
X117562380Y-66012380D01*
X117657619Y-65964761D01*
X117705238Y-65917142D01*
X118181428Y-65345714D02*
X118181428Y-66012380D01*
X118181428Y-65440952D02*
X118229047Y-65393333D01*
X118324285Y-65345714D01*
X118467142Y-65345714D01*
X118562380Y-65393333D01*
X118610000Y-65488571D01*
X118610000Y-66012380D01*
X118943333Y-65345714D02*
X119324285Y-65345714D01*
X119086190Y-65012380D02*
X119086190Y-65869523D01*
X119133809Y-65964761D01*
X119229047Y-66012380D01*
X119324285Y-66012380D01*
%TO.C,X6*%
D18*
X193397179Y-145848247D02*
X194201512Y-147054747D01*
X194201512Y-145848247D02*
X193397179Y-147054747D01*
X195178203Y-145848247D02*
X194948393Y-145848247D01*
X194833489Y-145905700D01*
X194776036Y-145963152D01*
X194661132Y-146135509D01*
X194603679Y-146365319D01*
X194603679Y-146824938D01*
X194661132Y-146939842D01*
X194718584Y-146997295D01*
X194833489Y-147054747D01*
X195063298Y-147054747D01*
X195178203Y-146997295D01*
X195235655Y-146939842D01*
X195293108Y-146824938D01*
X195293108Y-146537676D01*
X195235655Y-146422771D01*
X195178203Y-146365319D01*
X195063298Y-146307866D01*
X194833489Y-146307866D01*
X194718584Y-146365319D01*
X194661132Y-146422771D01*
X194603679Y-146537676D01*
%TO.C,X5*%
X179894579Y-145689847D02*
X180698912Y-146896347D01*
X180698912Y-145689847D02*
X179894579Y-146896347D01*
X181733055Y-145689847D02*
X181158532Y-145689847D01*
X181101079Y-146264371D01*
X181158532Y-146206919D01*
X181273436Y-146149466D01*
X181560698Y-146149466D01*
X181675603Y-146206919D01*
X181733055Y-146264371D01*
X181790508Y-146379276D01*
X181790508Y-146666538D01*
X181733055Y-146781442D01*
X181675603Y-146838895D01*
X181560698Y-146896347D01*
X181273436Y-146896347D01*
X181158532Y-146838895D01*
X181101079Y-146781442D01*
D10*
X184223359Y-140165952D02*
X184280811Y-140108500D01*
X184395716Y-140051047D01*
X184682978Y-140051047D01*
X184797883Y-140108500D01*
X184855335Y-140165952D01*
X184912788Y-140280857D01*
X184912788Y-140395761D01*
X184855335Y-140568119D01*
X184165907Y-141257547D01*
X184912788Y-141257547D01*
X179959788Y-141257547D02*
X179270359Y-141257547D01*
X179615073Y-141257547D02*
X179615073Y-140051047D01*
X179500169Y-140223404D01*
X179385264Y-140338309D01*
X179270359Y-140395761D01*
%TO.C,X4*%
D18*
X167594579Y-145789847D02*
X168398912Y-146996347D01*
X168398912Y-145789847D02*
X167594579Y-146996347D01*
X169375603Y-146192014D02*
X169375603Y-146996347D01*
X169088341Y-145732395D02*
X168801079Y-146594180D01*
X169547960Y-146594180D01*
D10*
X171923359Y-140265952D02*
X171980811Y-140208500D01*
X172095716Y-140151047D01*
X172382978Y-140151047D01*
X172497883Y-140208500D01*
X172555335Y-140265952D01*
X172612788Y-140380857D01*
X172612788Y-140495761D01*
X172555335Y-140668119D01*
X171865907Y-141357547D01*
X172612788Y-141357547D01*
X167659788Y-141357547D02*
X166970359Y-141357547D01*
X167315073Y-141357547D02*
X167315073Y-140151047D01*
X167200169Y-140323404D01*
X167085264Y-140438309D01*
X166970359Y-140495761D01*
%TO.C,X3*%
D18*
X154794579Y-145989847D02*
X155598912Y-147196347D01*
X155598912Y-145989847D02*
X154794579Y-147196347D01*
X155943627Y-145989847D02*
X156690508Y-145989847D01*
X156288341Y-146449466D01*
X156460698Y-146449466D01*
X156575603Y-146506919D01*
X156633055Y-146564371D01*
X156690508Y-146679276D01*
X156690508Y-146966538D01*
X156633055Y-147081442D01*
X156575603Y-147138895D01*
X156460698Y-147196347D01*
X156115984Y-147196347D01*
X156001079Y-147138895D01*
X155943627Y-147081442D01*
D10*
X159123359Y-140465952D02*
X159180811Y-140408500D01*
X159295716Y-140351047D01*
X159582978Y-140351047D01*
X159697883Y-140408500D01*
X159755335Y-140465952D01*
X159812788Y-140580857D01*
X159812788Y-140695761D01*
X159755335Y-140868119D01*
X159065907Y-141557547D01*
X159812788Y-141557547D01*
X154859788Y-141557547D02*
X154170359Y-141557547D01*
X154515073Y-141557547D02*
X154515073Y-140351047D01*
X154400169Y-140523404D01*
X154285264Y-140638309D01*
X154170359Y-140695761D01*
%TO.C,X2*%
D18*
X142694579Y-145989847D02*
X143498912Y-147196347D01*
X143498912Y-145989847D02*
X142694579Y-147196347D01*
X143901079Y-146104752D02*
X143958532Y-146047300D01*
X144073436Y-145989847D01*
X144360698Y-145989847D01*
X144475603Y-146047300D01*
X144533055Y-146104752D01*
X144590508Y-146219657D01*
X144590508Y-146334561D01*
X144533055Y-146506919D01*
X143843627Y-147196347D01*
X144590508Y-147196347D01*
D10*
X147023359Y-140465952D02*
X147080811Y-140408500D01*
X147195716Y-140351047D01*
X147482978Y-140351047D01*
X147597883Y-140408500D01*
X147655335Y-140465952D01*
X147712788Y-140580857D01*
X147712788Y-140695761D01*
X147655335Y-140868119D01*
X146965907Y-141557547D01*
X147712788Y-141557547D01*
X142759788Y-141557547D02*
X142070359Y-141557547D01*
X142415073Y-141557547D02*
X142415073Y-140351047D01*
X142300169Y-140523404D01*
X142185264Y-140638309D01*
X142070359Y-140695761D01*
%TO.C,X1*%
D18*
X130894579Y-145919847D02*
X131698912Y-147126347D01*
X131698912Y-145919847D02*
X130894579Y-147126347D01*
X132790508Y-147126347D02*
X132101079Y-147126347D01*
X132445793Y-147126347D02*
X132445793Y-145919847D01*
X132330889Y-146092204D01*
X132215984Y-146207109D01*
X132101079Y-146264561D01*
D10*
X135223359Y-140395952D02*
X135280811Y-140338500D01*
X135395716Y-140281047D01*
X135682978Y-140281047D01*
X135797883Y-140338500D01*
X135855335Y-140395952D01*
X135912788Y-140510857D01*
X135912788Y-140625761D01*
X135855335Y-140798119D01*
X135165907Y-141487547D01*
X135912788Y-141487547D01*
X130959788Y-141487547D02*
X130270359Y-141487547D01*
X130615073Y-141487547D02*
X130615073Y-140281047D01*
X130500169Y-140453404D01*
X130385264Y-140568309D01*
X130270359Y-140625761D01*
%TO.C,U4*%
D17*
X181528095Y-86772380D02*
X181528095Y-87581904D01*
X181575714Y-87677142D01*
X181623333Y-87724761D01*
X181718571Y-87772380D01*
X181909047Y-87772380D01*
X182004285Y-87724761D01*
X182051904Y-87677142D01*
X182099523Y-87581904D01*
X182099523Y-86772380D01*
X183004285Y-87105714D02*
X183004285Y-87772380D01*
X182766190Y-86724761D02*
X182528095Y-87439047D01*
X183147142Y-87439047D01*
%TO.C,U3*%
D18*
X193415084Y-116054447D02*
X193415084Y-117031138D01*
X193472536Y-117146042D01*
X193529989Y-117203495D01*
X193644893Y-117260947D01*
X193874703Y-117260947D01*
X193989608Y-117203495D01*
X194047060Y-117146042D01*
X194104512Y-117031138D01*
X194104512Y-116054447D01*
X194564132Y-116054447D02*
X195311012Y-116054447D01*
X194908846Y-116514066D01*
X195081203Y-116514066D01*
X195196108Y-116571519D01*
X195253560Y-116628971D01*
X195311012Y-116743876D01*
X195311012Y-117031138D01*
X195253560Y-117146042D01*
X195196108Y-117203495D01*
X195081203Y-117260947D01*
X194736489Y-117260947D01*
X194621584Y-117203495D01*
X194564132Y-117146042D01*
D19*
X188707149Y-117629247D02*
X188707149Y-117916509D01*
X188419887Y-117801604D02*
X188707149Y-117916509D01*
X188994410Y-117801604D01*
X188534791Y-118146319D02*
X188707149Y-117916509D01*
X188879506Y-118146319D01*
%TO.C,U2*%
D18*
X166955684Y-78786047D02*
X166955684Y-79762738D01*
X167013136Y-79877642D01*
X167070589Y-79935095D01*
X167185493Y-79992547D01*
X167415303Y-79992547D01*
X167530208Y-79935095D01*
X167587660Y-79877642D01*
X167645112Y-79762738D01*
X167645112Y-78786047D01*
X168162184Y-78900952D02*
X168219636Y-78843500D01*
X168334541Y-78786047D01*
X168621803Y-78786047D01*
X168736708Y-78843500D01*
X168794160Y-78900952D01*
X168851612Y-79015857D01*
X168851612Y-79130761D01*
X168794160Y-79303119D01*
X168104732Y-79992547D01*
X168851612Y-79992547D01*
D19*
X161927149Y-80069247D02*
X161927149Y-80356509D01*
X161639887Y-80241604D02*
X161927149Y-80356509D01*
X162214410Y-80241604D01*
X161754791Y-80586319D02*
X161927149Y-80356509D01*
X162099506Y-80586319D01*
%TO.C,IC2*%
D15*
X167619999Y-120701747D02*
X167619999Y-119495247D01*
X168883952Y-120586842D02*
X168826499Y-120644295D01*
X168654142Y-120701747D01*
X168539238Y-120701747D01*
X168366880Y-120644295D01*
X168251976Y-120529390D01*
X168194523Y-120414485D01*
X168137071Y-120184676D01*
X168137071Y-120012319D01*
X168194523Y-119782509D01*
X168251976Y-119667604D01*
X168366880Y-119552700D01*
X168539238Y-119495247D01*
X168654142Y-119495247D01*
X168826499Y-119552700D01*
X168883952Y-119610152D01*
X169343571Y-119610152D02*
X169401023Y-119552700D01*
X169515928Y-119495247D01*
X169803190Y-119495247D01*
X169918095Y-119552700D01*
X169975547Y-119610152D01*
X170032999Y-119725057D01*
X170032999Y-119839961D01*
X169975547Y-120012319D01*
X169286118Y-120701747D01*
X170032999Y-120701747D01*
%TO.C,IC1*%
X158399999Y-120841747D02*
X158399999Y-119635247D01*
X159663952Y-120726842D02*
X159606499Y-120784295D01*
X159434142Y-120841747D01*
X159319238Y-120841747D01*
X159146880Y-120784295D01*
X159031976Y-120669390D01*
X158974523Y-120554485D01*
X158917071Y-120324676D01*
X158917071Y-120152319D01*
X158974523Y-119922509D01*
X159031976Y-119807604D01*
X159146880Y-119692700D01*
X159319238Y-119635247D01*
X159434142Y-119635247D01*
X159606499Y-119692700D01*
X159663952Y-119750152D01*
X160812999Y-120841747D02*
X160123571Y-120841747D01*
X160468285Y-120841747D02*
X160468285Y-119635247D01*
X160353380Y-119807604D01*
X160238476Y-119922509D01*
X160123571Y-119979961D01*
%TD*%
M02*
