%TF.GenerationSoftware,KiCad,Pcbnew,(5.1.9)-1*%
%TF.CreationDate,2021-09-13T10:00:27+00:00*%
%TF.ProjectId,CZTBoardV3,435a5442-6f61-4726-9456-332e6b696361,rev?*%
%TF.SameCoordinates,Original*%
%TF.FileFunction,Glue,Top*%
%TF.FilePolarity,Positive*%
%FSLAX46Y46*%
G04 Gerber Fmt 4.6, Leading zero omitted, Abs format (unit mm)*
G04 Created by KiCad (PCBNEW (5.1.9)-1) date 2021-09-13 10:00:27*
%MOMM*%
%LPD*%
G01*
G04 APERTURE LIST*
%ADD10C,0.100000*%
G04 APERTURE END LIST*
D10*
%TO.C,R1*%
G36*
X159990000Y-88490000D02*
G01*
X159990000Y-87890000D01*
X158590000Y-87890000D01*
X158590000Y-88490000D01*
X159990000Y-88490000D01*
G37*
%TO.C,R2*%
G36*
X171220000Y-107550000D02*
G01*
X171220000Y-108150000D01*
X172620000Y-108150000D01*
X172620000Y-107550000D01*
X171220000Y-107550000D01*
G37*
%TO.C,R3*%
G36*
X172060000Y-85542000D02*
G01*
X172060000Y-84942000D01*
X170660000Y-84942000D01*
X170660000Y-85542000D01*
X172060000Y-85542000D01*
G37*
%TO.C,R4*%
G36*
X144230000Y-125260000D02*
G01*
X144230000Y-125860000D01*
X145630000Y-125860000D01*
X145630000Y-125260000D01*
X144230000Y-125260000D01*
G37*
%TO.C,R9*%
G36*
X160110000Y-107742000D02*
G01*
X160110000Y-108342000D01*
X161510000Y-108342000D01*
X161510000Y-107742000D01*
X160110000Y-107742000D01*
G37*
%TO.C,R10*%
G36*
X152090000Y-120772000D02*
G01*
X152090000Y-121372000D01*
X153490000Y-121372000D01*
X153490000Y-120772000D01*
X152090000Y-120772000D01*
G37*
%TO.C,R11*%
G36*
X147690000Y-120772000D02*
G01*
X147690000Y-121372000D01*
X149090000Y-121372000D01*
X149090000Y-120772000D01*
X147690000Y-120772000D01*
G37*
%TO.C,R12*%
G36*
X169860000Y-108252000D02*
G01*
X169860000Y-107652000D01*
X168460000Y-107652000D01*
X168460000Y-108252000D01*
X169860000Y-108252000D01*
G37*
%TO.C,R13*%
G36*
X174040000Y-107502000D02*
G01*
X174040000Y-108102000D01*
X175440000Y-108102000D01*
X175440000Y-107502000D01*
X174040000Y-107502000D01*
G37*
%TO.C,R14*%
G36*
X165650000Y-107622000D02*
G01*
X165650000Y-108222000D01*
X167050000Y-108222000D01*
X167050000Y-107622000D01*
X165650000Y-107622000D01*
G37*
%TO.C,R15*%
G36*
X156780000Y-107802000D02*
G01*
X156780000Y-108402000D01*
X158180000Y-108402000D01*
X158180000Y-107802000D01*
X156780000Y-107802000D01*
G37*
%TO.C,R16*%
G36*
X162980000Y-107622000D02*
G01*
X162980000Y-108222000D01*
X164380000Y-108222000D01*
X164380000Y-107622000D01*
X162980000Y-107622000D01*
G37*
%TO.C,R17*%
G36*
X197020000Y-125790000D02*
G01*
X197020000Y-126390000D01*
X198420000Y-126390000D01*
X198420000Y-125790000D01*
X197020000Y-125790000D01*
G37*
%TO.C,R18*%
G36*
X142700000Y-125972000D02*
G01*
X142700000Y-125372000D01*
X141300000Y-125372000D01*
X141300000Y-125972000D01*
X142700000Y-125972000D01*
G37*
%TO.C,R21*%
G36*
X181290000Y-115352000D02*
G01*
X181290000Y-114752000D01*
X179890000Y-114752000D01*
X179890000Y-115352000D01*
X181290000Y-115352000D01*
G37*
%TD*%
M02*
