%TF.GenerationSoftware,KiCad,Pcbnew,(5.1.9)-1*%
%TF.CreationDate,2021-09-13T10:00:27+00:00*%
%TF.ProjectId,CZTBoardV3,435a5442-6f61-4726-9456-332e6b696361,rev?*%
%TF.SameCoordinates,Original*%
%TF.FileFunction,Legend,Bot*%
%TF.FilePolarity,Positive*%
%FSLAX46Y46*%
G04 Gerber Fmt 4.6, Leading zero omitted, Abs format (unit mm)*
G04 Created by KiCad (PCBNEW (5.1.9)-1) date 2021-09-13 10:00:27*
%MOMM*%
%LPD*%
G01*
G04 APERTURE LIST*
%ADD10C,0.120000*%
%ADD11C,0.077216*%
%ADD12C,0.096520*%
G04 APERTURE END LIST*
D10*
%TO.C,C10*%
X128160000Y-123830000D02*
X123420000Y-123830000D01*
X128160000Y-131270000D02*
X123420000Y-131270000D01*
X123420000Y-131270000D02*
X123420000Y-123830000D01*
X128160000Y-131270000D02*
X128160000Y-123830000D01*
%TO.C,R20*%
X134230000Y-131370000D02*
X134710000Y-131370000D01*
X134710000Y-131370000D02*
X134710000Y-121230000D01*
X134710000Y-121230000D02*
X134230000Y-121230000D01*
X131350000Y-131370000D02*
X130870000Y-131370000D01*
X130870000Y-131370000D02*
X130870000Y-121230000D01*
X130870000Y-121230000D02*
X131350000Y-121230000D01*
%TO.C,C10*%
D11*
X126527114Y-131881542D02*
X126573076Y-131835580D01*
X126619038Y-131697695D01*
X126619038Y-131605771D01*
X126573076Y-131467885D01*
X126481152Y-131375961D01*
X126389228Y-131329999D01*
X126205380Y-131284038D01*
X126067495Y-131284038D01*
X125883647Y-131329999D01*
X125791723Y-131375961D01*
X125699800Y-131467885D01*
X125653838Y-131605771D01*
X125653838Y-131697695D01*
X125699800Y-131835580D01*
X125745761Y-131881542D01*
X126619038Y-132800780D02*
X126619038Y-132249238D01*
X126619038Y-132525009D02*
X125653838Y-132525009D01*
X125791723Y-132433085D01*
X125883647Y-132341161D01*
X125929609Y-132249238D01*
X125653838Y-133398285D02*
X125653838Y-133490209D01*
X125699800Y-133582133D01*
X125745761Y-133628095D01*
X125837685Y-133674057D01*
X126021533Y-133720018D01*
X126251342Y-133720018D01*
X126435190Y-133674057D01*
X126527114Y-133628095D01*
X126573076Y-133582133D01*
X126619038Y-133490209D01*
X126619038Y-133398285D01*
X126573076Y-133306361D01*
X126527114Y-133260399D01*
X126435190Y-133214438D01*
X126251342Y-133168476D01*
X126021533Y-133168476D01*
X125837685Y-133214438D01*
X125745761Y-133260399D01*
X125699800Y-133306361D01*
X125653838Y-133398285D01*
%TO.C,R20*%
D12*
X134002547Y-134959428D02*
X133428023Y-134557261D01*
X134002547Y-134269999D02*
X132796047Y-134269999D01*
X132796047Y-134729618D01*
X132853500Y-134844523D01*
X132910952Y-134901976D01*
X133025857Y-134959428D01*
X133198214Y-134959428D01*
X133313119Y-134901976D01*
X133370571Y-134844523D01*
X133428023Y-134729618D01*
X133428023Y-134269999D01*
X132910952Y-135419047D02*
X132853500Y-135476499D01*
X132796047Y-135591404D01*
X132796047Y-135878666D01*
X132853500Y-135993571D01*
X132910952Y-136051023D01*
X133025857Y-136108476D01*
X133140761Y-136108476D01*
X133313119Y-136051023D01*
X134002547Y-135361595D01*
X134002547Y-136108476D01*
X132796047Y-136855357D02*
X132796047Y-136970261D01*
X132853500Y-137085166D01*
X132910952Y-137142618D01*
X133025857Y-137200071D01*
X133255666Y-137257523D01*
X133542928Y-137257523D01*
X133772738Y-137200071D01*
X133887642Y-137142618D01*
X133945095Y-137085166D01*
X134002547Y-136970261D01*
X134002547Y-136855357D01*
X133945095Y-136740452D01*
X133887642Y-136682999D01*
X133772738Y-136625547D01*
X133542928Y-136568095D01*
X133255666Y-136568095D01*
X133025857Y-136625547D01*
X132910952Y-136682999D01*
X132853500Y-136740452D01*
X132796047Y-136855357D01*
%TD*%
M02*
